<?xml version="1.0" standalone="no"?>
<!DOCTYPE svg PUBLIC "-//W3C//DTD SVG 1.1//EN" "http://www.w3.org/Graphics/SVG/1.1/DTD/svg11.dtd" >
<svg>
<metadata>
Created by FontForge 20090914 at Mon Aug  3 23:39:37 2015
 By www-data
Copyright (c) 2002, 2006 Parachute&#194;&#168;, www.parachute.gr.  All rights reserved.
</metadata>
<defs>
<font id="PFBeauSansPro-Light" horiz-adv-x="1818" >
  <font-face 
    font-family="PF BeauSans Pro Light"
    font-weight="300"
    font-stretch="normal"
    units-per-em="1000"
    panose-1="2 0 5 0 0 0 0 2 0 4"
    ascent="750"
    descent="-250"
    x-height="525"
    cap-height="701"
    bbox="-164.907 -260.003 1760 913.002"
    underline-thickness="50"
    underline-position="-50"
    unicode-range="U+0020-U+FB05"
  />
<missing-glyph horiz-adv-x="439" 
d="M0 700h439v-700h-439v700zM362 47l-142 260l-144 -260h286zM362 653h-286l144 -260zM46 88l145 262l-145 263v-525zM392 87v527l-145 -264z" />
    <glyph glyph-name="fj" unicode="fj" horiz-adv-x="534" 
d="M467 61c0 -44.667 -4.5 -82.835 -13.5 -114.502s-21.167 -58.5 -36.5 -80.5s-33.333 -39.667 -54 -53s-42.334 -24.333 -65.001 -33c-7.33301 -2.66699 -12.333 -0.333984 -15 6.99902l-15 44c-2 6 1 10.667 9 14c24.667 10.667 44.5 23.334 59.5 38.001
s26.833 30.834 35.5 48.501s14.5 36.5 17.5 56.5s4.5 41 4.5 63v415h-221v-453c0 -5.33301 -0.833008 -8.83301 -2.5 -10.5s-5.16699 -2.5 -10.5 -2.5h-46c-5.33301 0 -9 0.833008 -11 2.5s-3 5.16699 -3 10.5v453h-79c-5.33301 0 -8.83301 1.16699 -10.5 3.5
s-2.5 5.16602 -2.5 8.49902v20c0 7.33301 4.33301 12 13 14l79 13v56c0 48 14.167 86 42.5 114s74.166 42 137.499 42c13.333 0 33.333 -1.16699 60 -3.5s55 -7.5 85 -15.5c4.66699 -1.33301 7.33398 -3.16602 8.00098 -5.49902s0.333984 -5.16602 -0.999023 -8.49902
l-8 -37c-0.666992 -6 -5 -8.33301 -13 -7c-22.667 5.33301 -46 9 -70 11s-42.333 3 -55 3c-21.333 0 -39.166 -2.33301 -53.499 -7s-25.833 -11 -34.5 -19s-14.834 -17.667 -18.501 -29s-5.5 -23.333 -5.5 -36v-58h280c5.33301 0 8.83301 -0.833008 10.5 -2.5
s2.5 -5.16699 2.5 -10.5v-451v0z" />
    <glyph glyph-name="ffj" unicode="ffj" horiz-adv-x="814" 
d="M456 525l280.004 0.00195312c5.33301 0 9 -0.833008 11 -2.5s3 -5.16699 3 -10.5v-451c0 -44.667 -4.5 -82.834 -13.5 -114.501s-21.333 -58.5 -37 -80.5s-33.834 -39.667 -54.501 -53s-42.334 -24.333 -65.001 -33c-4 -1.33301 -7.16699 -1.33301 -9.5 0
s-3.83301 3.66602 -4.5 6.99902l-15 44c-2.66699 6 0 10.667 8 14c24.667 10.667 44.5 23.334 59.5 38.001s26.833 30.834 35.5 48.501s14.5 36.5 17.5 56.5s4.5 41 4.5 63v415h-220v-453c0 -5.33301 -1 -8.83301 -3 -10.5s-5.66699 -2.5 -11 -2.5h-45
c-5.33301 0 -9 0.833008 -11 2.5s-3 5.16699 -3 10.5v453h-210v-453c0 -5.33301 -0.833008 -8.83301 -2.5 -10.5s-5.16699 -2.5 -10.5 -2.5h-46c-5.33301 0 -9 0.833008 -11 2.5s-3 5.16699 -3 10.5v453h-79c-5.33301 0 -8.83301 1.16699 -10.5 3.5
s-2.5 5.16602 -2.5 8.49902v20c0 7.33301 4.33301 12 13 14l79 13v43c0 48 14.667 86.333 44 115s76 43 140 43c13.333 0.666992 33.833 -0.333008 61.5 -3s57.5 -8 89.5 -16c29.333 23.333 71.666 35 126.999 35c13.333 0 33.5 -1.33301 60.5 -4s55.5 -8 85.5 -16
c4.66699 -1.33301 7.16699 -3 7.5 -5s0.166016 -4.66699 -0.500977 -8l-8 -37c-2 -6.66699 -6.33301 -9.33398 -13 -8.00098c-23.333 5.33301 -47 9 -71 11s-42.333 3 -55 3c-21.333 0 -39.166 -2.33301 -53.499 -7s-25.833 -11 -34.5 -19s-14.834 -17.5 -18.501 -28.5
s-5.5 -23.167 -5.5 -36.5v-62zM174.004 525.002h208.999v60c0 26 4 48.667 12 68c-20 3.33301 -39.667 6 -59 8s-34.666 2.66699 -45.999 2c-43.333 0 -73.5 -9 -90.5 -27s-25.5 -40 -25.5 -66v-45z" />
    <glyph glyph-name="ff" unicode="ff" horiz-adv-x="614" 
d="M523 740c9.33301 0 22.8301 -0.5 40.4971 -1.5s36.167 -4.16699 55.5 -9.5c5.33301 -1.33301 8 -3.16602 8 -5.49902s-0.333008 -5.16602 -1 -8.49902l-8 -38c-1.33301 -4 -3.16602 -6.16699 -5.49902 -6.5s-5.16602 -0.5 -8.49902 -0.5c-13.333 2 -25.333 3.33301 -36 4
s-20.667 1 -30 1c-30.667 0 -52.167 -6.33301 -64.5 -19s-18.5 -30.334 -18.5 -53.001v-78h134c5.33301 0 8.66602 -1 9.99902 -3s2 -5.33301 2 -10v-34c0 -3.33301 -0.666992 -6.16602 -2 -8.49902s-4.66602 -3.5 -9.99902 -3.5h-134v-454
c0 -5.33301 -1 -8.66602 -3 -9.99902s-5.66699 -2 -11 -2h-46c-5.33301 0 -9 0.666992 -11 2s-3 4.66602 -3 9.99902v454h-208v-454c0 -5.33301 -1 -8.66602 -3 -9.99902s-5.66699 -2 -11 -2h-45c-5.33301 0 -9 0.666992 -11 2s-3 4.66602 -3 9.99902v454h-80
c-5.33301 0 -8.66602 1.16699 -9.99902 3.5s-2 5.16602 -2 8.49902v20c0 7.33301 4 12 12 14l80 13v46c0 48.667 14.833 87 44.5 115s76.5 41.667 140.5 41c21.333 -0.666992 43.5 -2.33398 66.5 -5.00098s46.5 -6.66699 70.5 -12c23.333 20 57 30 101 30zM172.997 525h208
v76c0 19.333 2.66699 37 8 53c-19.333 3.33301 -37.833 5.83301 -55.5 7.5s-32.167 2.5 -43.5 2.5c-22 0 -40.5 -2.33301 -55.5 -7s-27 -11 -36 -19s-15.5 -17.5 -19.5 -28.5s-6 -23.167 -6 -36.5v-48z" />
    <glyph glyph-name="fi" unicode="fi" horiz-adv-x="534" 
d="M407 0c-5.33301 0 -8.83301 0.832031 -10.5 2.49902s-2.5 5.16699 -2.5 10.5v453h-221v-453c0 -5.33301 -0.833008 -8.83301 -2.5 -10.5s-5.16699 -2.5 -10.5 -2.5h-46c-5.33301 0 -9 0.833008 -11 2.5s-3 5.16699 -3 10.5v453h-79
c-5.33301 0 -8.83301 1.16699 -10.5 3.5s-2.5 5.16602 -2.5 8.49902v20c0 7.33301 4.33301 12 13 14l79 13v54c0 48 14.167 86.167 42.5 114.5s74.166 42.5 137.499 42.5c13.333 0 33.333 -1.16699 60 -3.5s55 -7.5 85 -15.5
c4.66699 -1.33301 7.33398 -3.16602 8.00098 -5.49902s0.333984 -5.16602 -0.999023 -8.49902l-8 -37c-0.666992 -6.66699 -5 -9 -13 -7c-22.667 4.66699 -46 8 -70 10s-42.333 3 -55 3c-21.333 0 -39.166 -2.33301 -53.499 -7s-25.833 -11 -34.5 -19
s-14.834 -17.5 -18.501 -28.5s-5.5 -23.167 -5.5 -36.5v-56h281c5.33301 0 8.66602 -1 9.99902 -3s2 -5.33301 2 -10v-499c0 -5.33301 -1 -8.83301 -3 -10.5s-5.66699 -2.5 -11 -2.5h-46v0z" />
    <glyph glyph-name="fl" unicode="fl" horiz-adv-x="575" 
d="M173 13c0 -5.33301 -0.831055 -8.83301 -2.49805 -10.5s-5.16699 -2.5 -10.5 -2.5h-46c-5.33301 -0 -9 0.833008 -11 2.5s-3 5.16699 -3 10.5v453h-79c-5.33301 0 -8.83301 1.16699 -10.5 3.5s-2.5 5.16602 -2.5 8.49902v20c0 7.33301 4.33301 12 13 14l79 13v58
c0 48 14.167 86 42.5 114s74.166 42 137.499 42c12.667 0 31.5 -1 56.5 -3s50.833 -6.66699 77.5 -14l40 11c5.33301 0 8.83301 -0.833008 10.5 -2.5s2.5 -5.16699 2.5 -10.5v-611c0 -19.333 2.5 -32.833 7.5 -40.5s14.833 -11.5 29.5 -11.5
c6.66699 0 13.167 0.333008 19.5 1s12.166 1.33398 17.499 2.00098c3.33301 0.666992 5.83301 0.5 7.5 -0.5s2.83398 -3.5 3.50098 -7.5l5 -33c0.666992 -5.33301 0.666992 -8.83301 0 -10.5s-3.33398 -3.5 -8.00098 -5.5c-11.333 -4.66699 -23.5 -7.66699 -36.5 -9
s-24.5 -2 -34.5 -2c-32 0 -54 7.83301 -66 23.5s-18 39.5 -18 71.5v577c-21.333 4 -41.833 7 -61.5 9s-35.167 3 -46.5 3c-21.333 0 -39.166 -2.33301 -53.499 -7s-25.833 -11 -34.5 -19s-14.834 -17.667 -18.501 -29s-5.5 -23.333 -5.5 -36v-60h144
c5.33301 0 8.66602 -1.16699 9.99902 -3.5s2 -5.5 2 -9.5v-34c0 -4 -0.666992 -7 -2 -9s-4.66602 -3 -9.99902 -3h-145v-453z" />
    <glyph glyph-name="ffi" unicode="ffi" horiz-adv-x="814" 
d="M689 0c-5.33301 0 -8.83105 0.834961 -10.498 2.50195s-2.5 5.16699 -2.5 10.5v453h-220v-453c0 -5.33301 -1 -8.83301 -3 -10.5s-5.66699 -2.5 -11 -2.5h-45c-5.33301 0 -9 0.833008 -11 2.5s-3 5.16699 -3 10.5v453h-210v-453
c0 -5.33301 -0.833008 -8.83301 -2.5 -10.5s-5.16699 -2.5 -10.5 -2.5h-46c-5.33301 0 -9 0.833008 -11 2.5s-3 5.16699 -3 10.5v453h-79c-5.33301 0 -8.83301 1.16699 -10.5 3.5s-2.5 5.16602 -2.5 8.49902v20c0 7.33301 4.33301 12 13 14l79 13v41
c0 48 14.667 86.333 44 115s76 43 140 43c13.333 0.666992 33.833 -0.333008 61.5 -3s57.5 -8 89.5 -16c28.667 22.667 71 34 127 34c13.333 0 33.5 -1.16699 60.5 -3.5s55.5 -7.5 85.5 -15.5c4.66699 -1.33301 7.16699 -3 7.5 -5s0.166016 -4.66699 -0.500977 -8l-8 -37
c-2 -6.66699 -6.33301 -9.33398 -13 -8.00098c-23.333 5.33301 -47 9 -71 11s-42.333 3 -55 3c-21.333 0 -39.166 -2.33301 -53.499 -7s-25.833 -11 -34.5 -19s-14.834 -17.5 -18.501 -28.5s-5.5 -23.167 -5.5 -36.5v-60h281c5.33301 0 8.66602 -1 9.99902 -3
s2 -5.33301 2 -10v-499c0 -5.33301 -0.833008 -8.83301 -2.5 -10.5s-5.16699 -2.5 -10.5 -2.5h-47zM174.002 525.002h208.999v58c0 26 4 48.667 12 68c-20 3.33301 -39.667 6 -59 8s-34.666 2.66699 -45.999 2c-43.333 0 -73.5 -9 -90.5 -27s-25.5 -40 -25.5 -66v-43z" />
    <glyph glyph-name="ffl" unicode="ffl" horiz-adv-x="857" 
d="M456 13c0 -5.33301 -1.00195 -8.83105 -3.00195 -10.498s-5.66699 -2.5 -11 -2.5h-45c-5.33301 0 -9 0.833008 -11 2.5s-3 5.16699 -3 10.5v453h-210v-453c0 -5.33301 -0.833008 -8.83301 -2.5 -10.5s-5.16699 -2.5 -10.5 -2.5h-46c-5.33301 0 -9 0.833008 -11 2.5
s-3 5.16699 -3 10.5v453h-79c-5.33301 0 -8.83301 1.16699 -10.5 3.5s-2.5 5.16602 -2.5 8.49902v20c0 7.33301 4.33301 12 13 14l79 13v43c0 48 14.667 86.5 44 115.5s76 43.5 140 43.5c13.333 0 33.833 -1.16699 61.5 -3.5s57.5 -7.5 89.5 -15.5
c30 22.667 72.333 34 127 34c12.667 0 31.334 -1 56.001 -3s50.667 -6.33301 78 -13l40 10c5.33301 0 8.83301 -0.833008 10.5 -2.5s2.5 -5.16699 2.5 -10.5v-615c0 -19.333 2.5 -32.666 7.5 -39.999s14.833 -11 29.5 -11c13.333 0 25.666 1 36.999 3
c3.33301 0 5.83301 -0.5 7.5 -1.5s2.83398 -3.5 3.50098 -7.5l5 -33c0.666992 -4.66699 0.666992 -7.83398 0 -9.50098s-3.33398 -3.83398 -8.00098 -6.50098c-11.333 -4 -23.5 -6.66699 -36.5 -8s-24.5 -2 -34.5 -2c-32 0 -54.167 7.83301 -66.5 23.5
s-18.5 39.5 -18.5 71.5v580c-21.333 4 -41.666 7 -60.999 9s-34.666 3 -45.999 3c-21.333 0 -39.166 -2.33301 -53.499 -7s-25.833 -11 -34.5 -19s-14.834 -17.667 -18.501 -29s-5.5 -23.333 -5.5 -36v-63h144c5.33301 0 8.66602 -1.16699 9.99902 -3.5s2 -5.5 2 -9.5v-34
c0 -4 -0.666992 -7 -2 -9s-4.66602 -3 -9.99902 -3h-144v-453zM173.998 525.002h209v61c0 26 4 48.667 12 68c-19.333 3.33301 -38.833 5.83301 -58.5 7.5s-35.167 2.5 -46.5 2.5c-43.333 -0.666992 -73.5 -10 -90.5 -28s-25.5 -40 -25.5 -66v-45z" />
    <glyph glyph-name="ft" unicode="ft" horiz-adv-x="645" 
d="M636 18c0.666992 -3.33301 0.84082 -6.16504 0.507812 -8.49805s-2.83301 -4.5 -7.5 -6.5c-18.667 -5.33301 -38 -8.83301 -58 -10.5s-34.667 -2.5 -44 -2.5c-50.667 0 -85.834 10.667 -105.501 32s-29.5 55 -29.5 101v343h-218v-454c0 -5.33301 -1 -8.66602 -3 -9.99902
s-5.66699 -2 -11 -2h-46c-5.33301 0 -9 0.666992 -11 2s-3 4.66602 -3 9.99902v454h-79c-5.33301 0 -8.83301 1.16699 -10.5 3.5s-2.5 5.16602 -2.5 8.49902v19c0 8 4.33301 13 13 15c3.33301 0.666992 8.66602 1.66699 15.999 3s15.166 2.66602 23.499 3.99902
s16.166 2.66602 23.499 3.99902s12.666 2 15.999 2v71c0 44 11 78.333 33 103s58.333 37 109 37c11.333 0 25.666 -0.666992 42.999 -2s35 -4.66602 53 -9.99902c4.66699 -1.33301 7.16699 -3 7.5 -5s0.166016 -4.66699 -0.500977 -8l-8 -40c-2 -6 -6.33301 -8 -13 -6
c-12 2 -24.167 3.5 -36.5 4.5s-23.166 1.5 -32.499 1.5c-32.667 0 -54.334 -6.83301 -65.001 -20.5s-16 -31.167 -16 -52.5v-73h221l14 102c0.666992 6 2 10 4 12s5.66699 4 11 6l27 10c9.33301 2 14 -1.66699 14 -11v-119h117c5.33301 0 8.66602 -1.16699 9.99902 -3.5
s2 -5.5 2 -9.5v-34c0 -4 -0.666992 -7 -2 -9s-4.66602 -3 -9.99902 -3h-117v-337c0 -24.667 5 -43.167 15 -55.5s29.333 -18.5 58 -18.5c8 0 19.667 0.666992 35 2s29.333 3.33301 42 6c5.33301 0.666992 8.66602 0.5 9.99902 -0.5s2.33301 -3.16699 3 -6.5l8 -38v0z" />
    <glyph glyph-name=".notdef" horiz-adv-x="439" 
d="M0 700h439v-700h-439v700zM362 47l-142 260l-144 -260h286zM362 653h-286l144 -260zM46 88l145 262l-145 263v-525zM392 87v527l-145 -264z" />
    <glyph glyph-name="space" unicode=" " horiz-adv-x="264" 
 />
    <glyph glyph-name="exclam" unicode="!" horiz-adv-x="263" 
d="M157 195c0 -5.33301 -1.16797 -9 -3.50098 -11s-7.16602 -3 -14.499 -3h-17c-10.667 0 -16 4 -16 12l-17 493c0 3.33301 1 6.5 3 9.5s5.66699 4.5 11 4.5h57c5.33301 0 9 -1.5 11 -4.5s2.66699 -6.16699 2 -9.5zM187.999 47c0 -16 -5.33203 -29.5 -15.999 -40.5
s-24 -16.5 -40 -16.5c-16.667 0 -30.334 5.5 -41.001 16.5s-16 24.5 -16 40.5c0 15.333 5.5 28.5 16.5 39.5s24.5 16.5 40.5 16.5s29.333 -5.33301 40 -16s16 -24 16 -40z" />
    <glyph glyph-name="quotedbl" unicode="&#x22;" horiz-adv-x="336" 
d="M127 463c-1.33301 -5.33301 -3 -9 -5 -11s-6.33301 -3 -13 -3h-18c-10 0 -15 4 -15 12l-21 228c0 3.33301 1 6.5 3 9.5s5.66699 4.5 11 4.5h64c5.33301 0 9 -1.5 11 -4.5s3 -6.16699 3 -9.5zM260 463c-0.666992 -5.33301 -2 -9 -4 -11s-6.66699 -3 -14 -3h-18
c-9.33301 0 -14.333 4 -15 12l-20 228c0 3.33301 1 6.5 3 9.5s5.66699 4.5 11 4.5h63c6 0 10 -1.5 12 -4.5s2.66699 -6.16699 2 -9.5z" />
    <glyph glyph-name="numbersign" unicode="#" horiz-adv-x="583" 
d="M362 201l39 193h-157l-39 -193h157zM58 153c-8 0 -11.001 3.67188 -9.00098 11.0049l5 24c1.33301 4 2.66602 7.16699 3.99902 9.5s4.33301 3.5 9 3.5h85l38 193h-89c-7.33301 0 -10.666 4 -9.99902 12l5 24c2 8 6.66699 12 14 12h90l26 131
c1.33301 6.66699 5.33301 10 12 10h30c8.66699 0 12.667 -3.33301 12 -10l-27 -131h157l27 131c0.666992 6.66699 4.33398 10 11.001 10h30c8.66699 0 12.667 -3.33301 12 -10l-27 -131h90c8 0 11.667 -4 11 -12l-6 -24
c-1.33301 -4.66699 -2.66602 -7.83398 -3.99902 -9.50098s-4.33301 -2.5 -9 -2.5h-91l-39 -193h94c8.66699 0 12 -4.33301 10 -13l-4 -24c-1.33301 -4 -2.66602 -6.83301 -3.99902 -8.5s-4.66602 -2.5 -9.99902 -2.5h-95c-1.33301 -4.66699 -3.33301 -13.834 -6 -27.501
l-8.5 -43.5l-8.5 -43.5c-2.66699 -13.667 -4.33398 -22.834 -5.00098 -27.501c-1.33301 -4.66699 -2.5 -7.66699 -3.5 -9s-3.83301 -2 -8.5 -2h-30c-8.66699 0 -12.334 3.66699 -11.001 11l27 142h-156c-1.33301 -4.66699 -3.33301 -13.834 -6 -27.501l-8.5 -43.5
l-8.5 -43.5c-2.66699 -13.667 -4.33398 -22.834 -5.00098 -27.501c-1.33301 -4.66699 -2.5 -7.66699 -3.5 -9s-3.83301 -2 -8.5 -2h-30c-8.66699 0 -12.667 3.66699 -12 11l28 142h-84z" />
    <glyph glyph-name="dollar" unicode="$" horiz-adv-x="583" 
d="M353 -97c0 -5.33301 -1.00195 -8.66504 -3.00195 -9.99805s-5.66699 -2 -11 -2h-16c-4.66699 0 -8 0.666992 -10 2s-3 4.66602 -3 9.99902v860c0 5.33301 1 8.83301 3 10.5s5.33301 2.5 10 2.5h16c5.33301 0 9 -0.833008 11 -2.5s3 -5.16699 3 -10.5v-82
c42.667 -4 86 -15 130 -33c6.66699 -2.66699 8.66699 -7.66699 6 -15l-17 -45c-2.66699 -6 -7 -7.66699 -13 -5c-20.667 7.33301 -39.5 13.166 -56.5 17.499s-33.5 7.5 -49.5 9.5v-243c24.667 -10 47.834 -20.667 69.501 -32s40.5 -24.5 56.5 -39.5s28.5 -32 37.5 -51
s13.5 -41.5 13.5 -67.5c0 -52 -16.167 -93.333 -48.5 -124s-75.166 -50 -128.499 -58v-92zM224.998 763.001c0 5.33301 1.16406 8.83105 3.49707 10.498s6.16602 2.5 11.499 2.5h15c5.33301 0 9 -0.833008 11 -2.5s3 -5.16699 3 -10.5v-860
c0 -5.33301 -1 -8.66602 -3 -9.99902s-5.66699 -2 -11 -2h-15c-5.33301 0 -9.16602 0.666992 -11.499 2s-3.5 4.66602 -3.5 9.99902v90c-31.333 3.33301 -62.166 9 -92.499 17s-57.166 17.667 -80.499 29c-7.33301 3.33301 -8.66602 9 -3.99902 17l19 42
c2.66699 6.66699 7.66699 8.33398 15 5.00098c22 -10 45.5 -18.167 70.5 -24.5s49.167 -11.166 72.5 -14.499v275c-50 20.667 -87.667 43.5 -113 68.5s-38 58.5 -38 100.5c0 42.667 12.833 79.167 38.5 109.5s63.167 50.5 112.5 60.5v85zM453.995 172.999
c0 26.667 -8.66699 48.833 -26 66.5s-42.333 34.167 -75 49.5v-224c28 6.66699 51.833 18.667 71.5 36s29.5 41.333 29.5 72zM149.995 512.998c0 -22.667 6.66895 -41.168 20.002 -55.501s31.666 -27.166 54.999 -38.499v185c-22.667 -7.33301 -40.834 -18.5 -54.501 -33.5
s-20.5 -34.167 -20.5 -57.5z" />
    <glyph glyph-name="percent" unicode="%" horiz-adv-x="880" 
d="M836 202c0 -64 -14.168 -114.668 -42.501 -152.001s-72.166 -56 -131.499 -56c-58 0 -101.167 18.333 -129.5 55s-42.5 87.334 -42.5 152.001c0 63.333 14.5 113.833 43.5 151.5s72.5 56.5 130.5 56.5c60.667 0 104.5 -18.5 131.5 -55.5s40.5 -87.5 40.5 -151.5z
M772.999 200.999c0 18.667 -1.66895 37.333 -5.00195 56s-9.16602 35.5 -17.499 50.5s-19.666 27.167 -33.999 36.5s-32.5 14 -54.5 14c-21.333 0 -39 -4.66699 -53 -14s-25.167 -21.5 -33.5 -36.5s-14.166 -31.667 -17.499 -50s-5 -36.833 -5 -55.5s1.5 -37.5 4.5 -56.5
s8.66699 -36 17 -51s19.666 -27.167 33.999 -36.5s32.833 -14 55.5 -14c22 0 40 4.83301 54 14.5s25 22 33 37s13.667 31.833 17 50.5s5 37 5 55zM388.997 469.998c0 -64 -14.168 -114.668 -42.501 -152.001s-72.166 -56 -131.499 -56c-58 0 -101.167 18.333 -129.5 55
s-42.5 87.334 -42.5 152.001c0 63.333 14.5 114 43.5 152s72.5 57 130.5 57c60.667 0 104.5 -18.667 131.5 -56s40.5 -88 40.5 -152zM325.996 468.997c0 18.667 -1.66895 37.333 -5.00195 56s-9.16602 35.5 -17.499 50.5s-19.666 27.167 -33.999 36.5s-32.5 14 -54.5 14
c-21.333 0 -39 -4.66699 -53 -14s-25.167 -21.5 -33.5 -36.5s-14.166 -31.667 -17.499 -50s-5 -36.833 -5 -55.5s1.5 -37.5 4.5 -56.5s8.66699 -36 17 -51s19.666 -27.167 33.999 -36.5s32.833 -14 55.5 -14c22 0 40 4.83301 54 14.5s25 22 33 37s13.667 31.833 17 50.5
s5 37 5 55zM262.994 -11.0039c-4.66699 -8 -10.668 -12.001 -18.001 -12.001h-26c-4 0 -7 0.833008 -9 2.5s-1.66699 4.83398 1 9.50098l409 698c3.33301 4.66699 5.83301 7.83398 7.5 9.50098s4.83398 2.5 9.50098 2.5h30c3.33301 0 6 -0.833008 8 -2.5
s1.66699 -4.83398 -1 -9.50098z" />
    <glyph glyph-name="ampersand" unicode="&#x26;" horiz-adv-x="715" 
d="M412 164l-70.501 87.999l-70.5 90c-17.333 -11.333 -34 -23.333 -50 -36s-30.167 -26.5 -42.5 -41.5s-22.166 -31.167 -29.499 -48.5s-11 -35.666 -11 -54.999c0 -20 3 -37 9 -51s14 -25.333 24 -34s21.833 -15 35.5 -19s28.5 -6 44.5 -6c28 0 56.333 9.66699 85 29
s54 47.333 76 84zM566.999 -0.000976562c-6.66699 0 -11.833 0.669922 -15.5 2.00293s-7.16699 4.33301 -10.5 9l-86 99c-28 -38 -58.833 -68 -92.5 -90s-73.167 -33 -118.5 -33c-56.667 0 -100.334 15 -131.001 45s-46 71 -46 123c0 24 4.16699 47.167 12.5 69.5
s19.666 43.666 33.999 63.999s31.5 39.166 51.5 56.499s41.667 33 65 47c-24 28 -43.333 56.333 -58 85s-22 55.667 -22 81c0 23.333 4.33301 44.5 13 63.5s20.334 35.167 35.001 48.5s31.834 23.666 51.501 30.999s40.5 11 62.5 11s42.667 -3.33301 62 -10
s36 -16.334 50 -29.001s25 -27.667 33 -45s12 -36.666 12 -57.999c0 -22.667 -3.66699 -43.334 -11 -62.001s-17.5 -35.834 -30.5 -51.501s-28 -30.167 -45 -43.5s-35.167 -26 -54.5 -38l33 -43l29 -36.5l28 -35l30 -37.5l31.5 51c11 17.333 23.167 33.5 36.5 48.5
s28 28.333 44 40s33.667 20.834 53 27.501c7.33301 2.66699 14.833 4.83398 22.5 6.50098s15.167 2.83398 22.5 3.50098c6.66699 0.666992 10.667 -2 12 -8l7 -39c1.33301 -4.66699 0.833008 -7.83398 -1.5 -9.50098s-5.16602 -2.83398 -8.49902 -3.50098
c-26 -4 -48 -11.667 -66 -23s-33.333 -24.666 -46 -39.999s-23.834 -32.333 -33.501 -51l-29.5 -56c2 -3.33301 5.5 -8 10.5 -14l17.5 -20.5l21.5 -25.5c7.66699 -9.33301 15.5 -18.333 23.5 -27l60 -69c2 -2.66699 2.66699 -5.66699 2 -9s-3 -5 -7 -5h-53zM399 563.002
c0 10 -1.66797 20.333 -5.00098 31s-8.5 20.167 -15.5 28.5s-16 15.166 -27 20.499s-23.833 8 -38.5 8c-28 0 -50.167 -8.16699 -66.5 -24.5s-24.5 -37.5 -24.5 -63.5c0 -24.667 7.33301 -49.167 22 -73.5s30.334 -46.5 47.001 -66.5c12 7.33301 24.333 15.666 37 24.999
s24.167 19.833 34.5 31.5s19 24.334 26 38.001s10.5 28.834 10.5 45.501z" />
    <glyph glyph-name="quotesingle" unicode="'" horiz-adv-x="209" 
d="M130 463c-0.666992 -5.33301 -2 -9 -4 -11s-6.66699 -3 -14 -3h-18c-10 0 -15.333 4 -16 12l-19 228c-0.666992 3.33301 0 6.5 2 9.5s5.66699 4.5 11 4.5h64c6 0 10 -1.5 12 -4.5s2.66699 -6.16699 2 -9.5z" />
    <glyph glyph-name="parenleft" unicode="(" horiz-adv-x="283" 
d="M230 -76c-4.66699 -3.33301 -8.99902 -3.00195 -12.999 0.998047c-26.667 24.667 -51.334 51.667 -74.001 81s-42.334 60.833 -59.001 94.5s-29.834 69 -39.501 106s-14.5 76.167 -14.5 117.5c0 42 4.83301 81.833 14.5 119.5s22.834 73.334 39.501 107.001
s36.334 65 59.001 94s47 56.167 73 81.5c4.66699 4.66699 9.33398 5.33398 14.001 2.00098l25 -18c3.33301 -2 4.66602 -3.83301 3.99902 -5.5s-1.66699 -3.5 -3 -5.5c-50 -55.333 -86.167 -113.5 -108.5 -174.5s-33.5 -126.5 -33.5 -196.5
c0 -73.333 11.5 -140.5 34.5 -201.5s58.833 -118.167 107.5 -171.5c1.33301 -2 2.33301 -3.83301 3 -5.5s-0.333008 -3.5 -3 -5.5z" />
    <glyph glyph-name="parenright" unicode=")" horiz-adv-x="286" 
d="M59 728c4.66699 3.33301 8.99902 3.00098 12.999 -0.999023c26 -25.333 50.333 -52.5 73 -81.5s42.334 -60.167 59.001 -93.5s29.834 -68.666 39.501 -105.999s14.5 -76.666 14.5 -117.999c0 -42 -4.66699 -81.833 -14 -119.5s-22.333 -73.334 -39 -107.001
s-36.334 -65.167 -59.001 -94.5s-47 -56.333 -73 -81c-4.66699 -4.66699 -9.33398 -5.33398 -14.001 -2.00098l-26 19c-3.33301 2 -4.66602 3.83301 -3.99902 5.5s1.66699 3.5 3 5.5c49.333 54.667 85.333 112.667 108 174s34 126.666 34 195.999
c0 74 -11.667 141.333 -35 202s-59 118 -107 172c-1.33301 2 -2.33301 3.83301 -3 5.5s0.333008 3.16699 3 4.5z" />
    <glyph glyph-name="asterisk" unicode="*" horiz-adv-x="468" 
d="M272 499l88 -102.001c6 -7.33301 5.33301 -13.333 -2 -18l-29 -22c-5.33301 -4.66699 -9.5 -6.66699 -12.5 -6s-5.83301 3.66699 -8.5 9l-70 114l-71 -118c-4 -8 -9.66699 -9.33301 -17 -4l-32 25c-6.66699 5.33301 -7.66699 11.666 -3 18.999l86 103l-127 33
c-8.66699 2 -11.667 7.33301 -9 16l11 36c2.66699 10 8.66699 12.667 18 8l122 -50l-10 135c-0.666992 2.66699 -0.166992 5.16699 1.5 7.5s5.16699 3.5 10.5 3.5h39c5.33301 0 8.83301 -1.16699 10.5 -3.5s2.16699 -5.16602 1.5 -8.49902l-11 -134l123 52
c8.66699 4 14.334 2 17.001 -6l12 -38c1.33301 -5.33301 1.16602 -9.16602 -0.500977 -11.499s-4.16699 -3.83301 -7.5 -4.5z" />
    <glyph glyph-name="plus" unicode="+" horiz-adv-x="583" 
d="M65 308c-5.33301 0 -8.83301 1 -10.5 3s-2.5 5.66699 -2.5 11v44c0 4.66699 0.833008 8.16699 2.5 10.5s5.16699 3.5 10.5 3.5h190v197c0 5.33301 1 8.83301 3 10.5s5.66699 2.5 11 2.5h46c5.33301 0 8.83301 -0.833008 10.5 -2.5s2.5 -5.16699 2.5 -10.5v-197h189
c5.33301 0 8.83301 -1.16699 10.5 -3.5s2.5 -5.83301 2.5 -10.5v-44c0 -5.33301 -0.833008 -9 -2.5 -11s-5.16699 -3 -10.5 -3h-189v-198c0 -5.33301 -0.833008 -8.83301 -2.5 -10.5s-5.16699 -2.5 -10.5 -2.5h-46c-5.33301 0 -9 0.833008 -11 2.5s-3 5.16699 -3 10.5v198
h-190v0z" />
    <glyph glyph-name="comma" unicode="," horiz-adv-x="223" 
d="M117 -108c-1.33301 -5.33301 -3.16895 -9.16699 -5.50195 -11.5s-6.5 -3.5 -12.5 -3.5h-24c-12 0 -17.333 4.66699 -16 14l15 204c0.666992 4.66699 2.33398 8.66699 5.00098 12s7 5 13 5h69c6 0 10.333 -1.66699 13 -5s3.33398 -7 2.00098 -11z" />
    <glyph glyph-name="hyphen" unicode="-" horiz-adv-x="355" 
d="M63 242c-5.33301 0 -8.83301 0.833008 -10.5 2.5s-2.5 5.16699 -2.5 10.5v58c0 4.66699 0.833008 8 2.5 10s5.16699 3 10.5 3h230c5.33301 0 8.66602 -1 9.99902 -3s2 -5.33301 2 -10v-58c0 -5.33301 -0.666992 -8.83301 -2 -10.5s-4.66602 -2.5 -9.99902 -2.5h-230v0z
" />
    <glyph glyph-name="period" unicode="." horiz-adv-x="238" 
d="M180 49c0 -17.333 -5.83301 -31.833 -17.5 -43.5s-26.167 -17.5 -43.5 -17.5s-31.833 5.83301 -43.5 17.5s-17.5 26.167 -17.5 43.5s5.83301 31.666 17.5 42.999s26.167 17 43.5 17s31.833 -5.66699 43.5 -17s17.5 -25.666 17.5 -42.999z" />
    <glyph glyph-name="slash" unicode="/" horiz-adv-x="421" 
d="M86 -84c-2 -8 -7.66602 -12.001 -16.999 -12.001h-45c-4 0 -7.16699 0.833008 -9.5 2.5s-2.83301 4.83398 -1.5 9.50098l325 850c2 8.66699 7.33301 13 16 13h48c3.33301 0 6.16602 -1 8.49902 -3s2.83301 -5.33301 1.5 -10l-326 -850v0z" />
    <glyph glyph-name="zero" unicode="0" horiz-adv-x="583" 
d="M550 337c0 -53.333 -5.16797 -101.334 -15.501 -144.001s-26.166 -79.167 -47.499 -109.5s-48.333 -53.666 -81 -69.999s-71.334 -24.5 -116.001 -24.5c-43.333 0 -81.166 8 -113.499 24s-59.333 39 -81 69s-37.834 66.333 -48.501 109s-16 90.667 -16 144
s5.5 101.5 16.5 144.5s27.333 79.5 49 109.5s48.834 53.167 81.501 69.5s70.667 24.5 114 24.5c46 0 85.167 -8 117.5 -24s59 -39 80 -69s36.333 -66.333 46 -109s14.5 -90.667 14.5 -144zM475.999 334.999c0 34 -2.66699 68 -8 102s-15 64.5 -29 91.5s-33 49 -57 66
s-54.667 25.5 -92 25.5c-36 0 -65.833 -8.33301 -89.5 -25s-42.5 -38.5 -56.5 -65.5s-23.833 -57.333 -29.5 -91s-8.5 -67.5 -8.5 -101.5s2.66699 -68 8 -102s15 -64.667 29 -92s33 -49.5 57 -66.5s54.667 -25.5 92 -25.5c36 0 65.833 8.66699 89.5 26s42.5 39.5 56.5 66.5
s23.833 57.333 29.5 91s8.5 67.167 8.5 100.5z" />
    <glyph glyph-name="one" unicode="1" horiz-adv-x="583" 
d="M468 14c0 -5.33301 -0.833008 -8.99902 -2.5 -10.999s-5.16699 -3 -10.5 -3h-316c-5.33301 0 -8.83301 1 -10.5 3s-2.5 5.66699 -2.5 11v39c0 5.33301 0.833008 9 2.5 11s5.16699 3 10.5 3h120v530l-117 -19c-6 -1.33301 -10 -1 -12 1s-3 5.66699 -3 11v29
c0 5.33301 1 9.5 3 12.5s6 5.5 12 7.5l137 40c14 4 26.333 4.16699 37 0.5s16 -12.834 16 -27.501v-585h123c5.33301 0 8.83301 -1 10.5 -3s2.5 -5.66699 2.5 -11v-39v0z" />
    <glyph glyph-name="two" unicode="2" horiz-adv-x="583" 
d="M121 0c-24 0 -40.3311 4.83203 -48.998 14.499s-13 25.167 -13 46.5c0 23.333 7.16699 49.833 21.5 79.5s36.833 60.5 67.5 92.5c24 25.333 49.667 48 77 68s52.666 37.667 75.999 53c22 14 41.167 27 57.5 39s29.666 23.833 39.999 35.5s18 23.667 23 36
s7.5 26.166 7.5 41.499c0 18 -3.83301 33.667 -11.5 47s-18.167 24.5 -31.5 33.5s-29.166 15.833 -47.499 20.5s-38.166 7 -59.499 7c-26 0 -52.833 -4.33301 -80.5 -13s-53.167 -21.667 -76.5 -39c-8 -6 -14.333 -5.66699 -19 1l-26 34c-4 7.33301 -2.66699 13.333 4 18
c28.667 21.333 60.5 38 95.5 50s70.5 18 106.5 18c30.667 0 59.5 -3.66699 86.5 -11s50.5 -18.166 70.5 -32.499s35.833 -32.166 47.5 -53.499s17.5 -46.333 17.5 -75c0 -47.333 -14.333 -87.166 -43 -119.499s-69.334 -64.166 -122.001 -95.499
c-19.333 -11.333 -39.833 -25 -61.5 -41s-42.167 -33.833 -61.5 -53.5s-36.333 -40.834 -51 -63.501s-24.334 -46.334 -29.001 -71.001h355c5.33301 0 8.83301 -1 10.5 -3s2.5 -5.66699 2.5 -11v-39c0 -5.33301 -0.833008 -9 -2.5 -11s-5.16699 -3 -10.5 -3h-371v0z" />
    <glyph glyph-name="three" unicode="3" horiz-adv-x="583" 
d="M264 -11c-37.333 0 -75.165 4.33203 -113.498 12.999s-71.833 24.667 -100.5 48c-6 4.66699 -7 10 -3 16l25 36c5.33301 7.33301 12.333 8 21 2c25.333 -16.667 52.166 -28.834 80.499 -36.501s56.166 -11.5 83.499 -11.5c56.667 0 99.5 13 128.5 39s43.5 61 43.5 105
c0 18 -4.16699 34.5 -12.5 49.5s-19.5 28 -33.5 39s-30.5 19.5 -49.5 25.5s-39.167 9 -60.5 9h-25c-7.33301 0 -13.666 1.5 -18.999 4.5s-8 8.83301 -8 17.5v24c0 8 2.33301 14 7 18s10.334 6 17.001 6h18c43.333 0 78.666 10 105.999 30s41 48.667 41 86
c0 20.667 -4.33301 37.834 -13 51.501s-20 24.667 -34 33s-29.5 14.166 -46.5 17.499s-33.833 5 -50.5 5c-28 0 -56 -4 -84 -12s-53.333 -19.667 -76 -35c-8.66699 -6 -15.667 -5.33301 -21 2l-23 33c-4 4.66699 -3 9.66699 3 15c26 21.333 57.833 37.5 95.5 48.5
s74.834 16.5 111.501 16.5c29.333 0 57 -3.5 83 -10.5s48.667 -17.5 68 -31.5s34.5 -31.5 45.5 -52.5s16.5 -45.167 16.5 -72.5c0 -34.667 -10.333 -66.5 -31 -95.5s-49.334 -49.167 -86.001 -60.5v-4c43.333 -8 77.166 -26.833 101.499 -56.5s36.5 -64.834 36.5 -105.501
c0 -29.333 -5.5 -56.666 -16.5 -81.999s-26.833 -47.166 -47.5 -65.499s-46 -32.666 -76 -42.999s-64 -15.5 -102 -15.5z" />
    <glyph glyph-name="four" unicode="4" horiz-adv-x="583" 
d="M64 154c-10 0 -19.3311 2.5 -27.998 7.5s-13 15.167 -13 30.5v11c0 9.33301 1.16699 17.5 3.5 24.5s7.16602 15.167 14.499 24.5l303 396c7.33301 10 15 18.833 23 26.5s17.667 11.5 29 11.5h24c15.333 0 26.166 -3.33301 32.499 -10s9.5 -17.667 9.5 -33v-425h76
c9.33301 0 14 -4.33301 14 -13v-37c0 -8.66699 -4.66699 -13 -14 -13h-76v-142c0 -5.33301 -1.16699 -8.83301 -3.5 -10.5s-5.83301 -2.5 -10.5 -2.5h-47c-5.33301 -0 -9 0.833008 -11 2.5s-3 5.16699 -3 10.5v141h-323zM387.002 587l-3 1l-278 -366l1 -4h280v369z" />
    <glyph glyph-name="five" unicode="5" horiz-adv-x="583" 
d="M530 215c0 -35.333 -5.99902 -67.1641 -17.999 -95.4971s-29 -52.333 -51 -72s-48.667 -34.667 -80 -45s-66.333 -15.5 -105 -15.5c-42 0 -82.333 4.5 -121 13.5s-72.667 25.167 -102 48.5c-6 4 -7 9.33301 -3 16l25 36c5.33301 7.33301 12.333 8 21 2
c25.333 -16.667 53.166 -28.834 83.499 -36.501s61.833 -11.5 94.5 -11.5c54 0 97.667 13.667 131 41s50 66 50 116c0 24.667 -4.5 45.667 -13.5 63s-20.833 31.5 -35.5 42.5s-31.5 19 -50.5 24s-38.167 7.5 -57.5 7.5c-37.333 0 -68.666 -3.83301 -93.999 -11.5
s-51.333 -17.5 -78 -29.5c-6.66699 -3.33301 -12.667 -4.83301 -18 -4.5s-11.333 1.83301 -18 4.5l-13 6c-6.66699 2.66699 -12 6.66699 -16 12s-5.33301 13.333 -4 24l27 271c1.33301 19.333 7.5 32.833 18.5 40.5s22.5 11.5 34.5 11.5h331c6 0 9.83301 -1 11.5 -3
s2.5 -5.66699 2.5 -11v-39c0 -9.33301 -4.66699 -14 -14 -14h-313l-24 -224c32 14 63.167 23.167 93.5 27.5s57.5 6.5 81.5 6.5c31.333 0 60.666 -4.66699 87.999 -14s51 -22.833 71 -40.5s35.833 -38.834 47.5 -63.501s17.5 -52.334 17.5 -83.001z" />
    <glyph glyph-name="six" unicode="6" horiz-adv-x="583" 
d="M549 207c0 -37.333 -6.83203 -69.667 -20.499 -97s-31.667 -50 -54 -68s-48.333 -31.333 -78 -40s-60.5 -13 -92.5 -13c-85.333 0 -151 27 -197 81s-69 131.333 -69 232c0 56 6 107.5 18 154.5s30.833 87.5 56.5 121.5s58.834 60.5 99.501 79.5s89.667 28.5 147 28.5
c15.333 0 32.833 -1.33301 52.5 -4s37.167 -6.66699 52.5 -12c8.66699 -2.66699 11.334 -8.33398 8.00098 -17.001l-12 -38c-2.66699 -8 -8.66699 -10.667 -18 -8c-10 3.33301 -23 6.33301 -39 9s-31 4 -45 4c-70.667 0 -126.334 -21.167 -167.001 -63.5
s-64.667 -102.166 -72 -179.499c33.333 12 67.166 20.667 101.499 26s65.5 8 93.5 8c32 0 62.333 -4.16699 91 -12.5s53.667 -21 75 -38s38.166 -38.167 50.499 -63.5s18.5 -55.333 18.5 -90zM474.001 201.999c0 40.667 -13.335 74.4971 -40.002 101.497s-67 40.5 -121 40.5
c-32.667 0 -64.5 -2.66699 -95.5 -8s-65.5 -13.666 -103.5 -24.999c-0.666992 -8 -1 -14.333 -1 -19v-15c0 -33.333 4.5 -63.666 13.5 -90.999s21.833 -50.833 38.5 -70.5s36.834 -35 60.501 -46s50.167 -16.5 79.5 -16.5c24.667 0 47.334 3.16699 68.001 9.5
s38.5 15.833 53.5 28.5s26.667 28.334 35 47.001s12.5 40 12.5 64z" />
    <glyph glyph-name="seven" unicode="7" horiz-adv-x="583" 
d="M474 673c10 0 18.832 -2.16699 26.499 -6.5s11.5 -12.5 11.5 -24.5v-17c0 -9.33301 -1.16699 -17.5 -3.5 -24.5s-6.16602 -15.833 -11.499 -26.5l-289 -553c-3.33301 -7.33301 -7 -12.666 -11 -15.999s-10 -5 -18 -5h-49c-5.33301 0 -8.83301 1.66699 -10.5 5
s-1.16699 7.66602 1.5 12.999l308 589h-372c-5.33301 0 -8.83301 1 -10.5 3s-2.5 5.66699 -2.5 11v38c0 5.33301 0.833008 9 2.5 11s5.16699 3 10.5 3h417z" />
    <glyph glyph-name="eight" unicode="8" horiz-adv-x="583" 
d="M289 -11c-42.667 0 -79.332 5.16895 -109.999 15.502s-55.834 24.333 -75.501 42s-34.167 38.167 -43.5 61.5s-14 48 -14 74c0 19.333 3 38.166 9 56.499s14.833 35.333 26.5 51s25.834 29.5 42.501 41.5s35.667 21.333 57 28v2c-21.333 7.33301 -39 16.833 -53 28.5
s-25.167 24.334 -33.5 38.001s-14.166 27.167 -17.499 40.5s-5 25 -5 35c0 28 5.5 53.167 16.5 75.5s26.167 41.333 45.5 57s42.166 27.667 68.499 36s55.166 12.5 86.499 12.5c32.667 0 62.167 -4.33301 88.5 -13s48.833 -20.834 67.5 -36.501s33.167 -34.334 43.5 -56.001
s15.5 -45.167 15.5 -70.5c0 -10.667 -1.83301 -22.834 -5.5 -36.501s-9.83398 -27.5 -18.501 -41.5s-19.834 -27.167 -33.501 -39.5s-30.5 -22.166 -50.5 -29.499v-1c24 -7.33301 44.5 -17 61.5 -29s30.833 -25.833 41.5 -41.5s18.5 -32.5 23.5 -50.5s7.5 -36.333 7.5 -55
c0 -21.333 -4.5 -43.5 -13.5 -66.5s-23.167 -44 -42.5 -63s-44.166 -34.667 -74.499 -47s-67.166 -18.5 -110.499 -18.5zM287.002 619.002c-46 0 -81.168 -11.667 -105.501 -35s-36.5 -52 -36.5 -86c0 -17.333 4 -33 12 -47s18.667 -25.833 32 -35.5s28.5 -17 45.5 -22
s34.5 -7.5 52.5 -7.5c16.667 0 33.667 2.66699 51 8s32.833 13 46.5 23s24.834 22 33.501 36s13 29.667 13 47c0 35.333 -13 64 -39 86s-61 33 -105 33zM288.001 325.002c-19.333 0 -38.999 -2.99805 -58.999 -8.99805s-38 -14.667 -54 -26s-29 -25.833 -39 -43.5
s-15 -37.834 -15 -60.501c0 -17.333 3.16699 -34.166 9.5 -50.499s16.166 -30.833 29.499 -43.5s30.5 -22.667 51.5 -30s46.5 -11 76.5 -11c30.667 0 56.667 4.16699 78 12.5s38.666 19.166 51.999 32.499s22.833 28.333 28.5 45s8.5 33 8.5 49
c0 22.667 -4.83301 42.5 -14.5 59.5s-22.167 31.167 -37.5 42.5s-33.166 19.666 -53.499 24.999s-40.833 8 -61.5 8z" />
    <glyph glyph-name="nine" unicode="9" horiz-adv-x="583" 
d="M31 468c0 37.333 6.83008 69.665 20.4971 96.998s31.834 50 54.501 68s48.834 31.333 78.501 40s60.5 13 92.5 13c85.333 0 150.833 -27 196.5 -81s68.5 -131.333 68.5 -232c0 -56 -6 -107.5 -18 -154.5s-30.833 -87.5 -56.5 -121.5s-58.834 -60.5 -99.501 -79.5
s-89.667 -28.5 -147 -28.5c-15.333 0 -32.833 1.33301 -52.5 4s-37.167 6.66699 -52.5 12c-8.66699 2.66699 -11.667 8.33398 -9 17.001l14 39c1.33301 8 6.66602 10.667 15.999 8c4.66699 -1.33301 10.334 -2.83301 17.001 -4.5s14 -3.16699 22 -4.5s16 -2.5 24 -3.5
s15.333 -1.5 22 -1.5c70.667 0 126.334 21.333 167.001 64s64.667 102.334 72 179.001c-32.667 -12 -65.167 -20.5 -97.5 -25.5s-62.5 -7.5 -90.5 -7.5c-32 0 -62.667 4.16699 -92 12.5s-55.166 20.833 -77.499 37.5s-40 37.667 -53 63s-19.5 55.333 -19.5 90z
M105.997 472.999c0 -40.667 14 -74.499 42 -101.499s67.667 -40.5 119 -40.5c32.667 0 64.5 2.66699 95.5 8s65.5 13.666 103.5 24.999c0.666992 8.66699 1 15.334 1 20.001v14c0 33.333 -4.83301 63.666 -14.5 90.999s-23.167 50.833 -40.5 70.5s-37.666 35 -60.999 46
s-48.333 16.5 -75 16.5c-22 0 -43.333 -3.16699 -64 -9.5s-38.834 -15.833 -54.501 -28.5s-28.167 -28.167 -37.5 -46.5s-14 -39.833 -14 -64.5z" />
    <glyph glyph-name="colon" unicode=":" horiz-adv-x="261" 
d="M192 443c0 -17.333 -5.66699 -31.833 -17 -43.5s-25.666 -17.5 -42.999 -17.5s-31.833 5.83301 -43.5 17.5s-17.5 26.167 -17.5 43.5c0 16.667 5.83301 30.667 17.5 42s26.167 17 43.5 17s31.666 -5.5 42.999 -16.5s17 -25.167 17 -42.5zM192 51
c0 -17.333 -5.66699 -31.833 -17 -43.5s-25.666 -17.5 -42.999 -17.5s-31.833 5.66699 -43.5 17s-17.5 25.666 -17.5 42.999c0 16.667 5.83301 30.834 17.5 42.501s26.167 17.5 43.5 17.5s31.666 -5.5 42.999 -16.5s17 -25.167 17 -42.5z" />
    <glyph glyph-name="semicolon" unicode=";" horiz-adv-x="255" 
d="M79 442c0 16.667 5.66699 30.832 17 42.499s25.666 17.5 42.999 17.5s31.666 -5.66699 42.999 -17s17 -25.666 17 -42.999s-5.66699 -31.666 -17 -42.999s-25.666 -17 -42.999 -17s-31.666 5.66699 -42.999 17s-17 25.666 -17 42.999zM126 -108.002
c-1.33301 -5.33301 -3.16895 -9.16699 -5.50195 -11.5s-6.5 -3.5 -12.5 -3.5h-24c-12 0 -17.333 4.66699 -16 14l15 204c0.666992 4.66699 2.33398 8.66699 5.00098 12s7 5 13 5h69c6 0 10.333 -1.66699 13 -5s3.33398 -7 2.00098 -11z" />
    <glyph glyph-name="less" unicode="&#x3c;" horiz-adv-x="583" 
d="M517 593c8.66699 4 13 0.668945 13 -9.99805v-41c0 -5.33301 -0.666992 -9.5 -2 -12.5s-4.66602 -5.5 -9.99902 -7.5l-373 -176l368 -170c6 -3.33301 10 -6.33301 12 -9s3 -7 3 -13v-47c0 -8.66699 -4 -11.334 -12 -8.00098l-443 208c-6 3.33301 -10.833 6.33301 -14.5 9
s-5.83398 6.66699 -6.50098 12v27c0 7.33301 1.5 12.666 4.5 15.999s8.5 7 16.5 11z" />
    <glyph glyph-name="equal" unicode="=" horiz-adv-x="583" 
d="M513 407c0 -5.33301 -0.666992 -9 -2 -11s-4.66602 -3 -9.99902 -3h-419c-5.33301 0 -8.66602 1 -9.99902 3s-2 5.66699 -2 11v41c0 4.66699 0.666992 8 2 10s4.66602 3 9.99902 3h419c5.33301 0 8.66602 -1 9.99902 -3s2 -5.33301 2 -10v-41zM513 230
c0 -5.33301 -0.666992 -9 -2 -11s-4.66602 -3 -9.99902 -3h-419c-5.33301 0 -8.66602 1 -9.99902 3s-2 5.66699 -2 11v41c0 4.66699 0.666992 8 2 10s4.66602 3 9.99902 3h419c5.33301 0 8.66602 -1 9.99902 -3s2 -5.33301 2 -10v-41z" />
    <glyph glyph-name="greater" unicode="&#x3e;" horiz-adv-x="583" 
d="M509 382c8 -4 13.5 -7.66895 16.5 -11.002s4.5 -8.66602 4.5 -15.999v-27c-0.666992 -5.33301 -2.83398 -9.33301 -6.50098 -12s-8.5 -5.66699 -14.5 -9l-443 -208c-8.66699 -3.33301 -13 -0.666016 -13 8.00098v47c0 6 1 10.333 3 13s6.33301 5.66699 13 9l367 170
l-372 176c-5.33301 2 -8.66602 4.5 -9.99902 7.5s-2 7.16699 -2 12.5v41c0 10.667 4.33301 14 13 10z" />
    <glyph glyph-name="question" unicode="?" horiz-adv-x="518" 
d="M261 709c32 0 61.167 -3.83398 87.5 -11.501s49 -18.834 68 -33.501s33.667 -32.834 44 -54.501s15.5 -46.834 15.5 -75.501c0 -18.667 -3 -36.167 -9 -52.5s-13.833 -31.5 -23.5 -45.5s-20.834 -27.167 -33.501 -39.5s-25.667 -23.833 -39 -34.5l-39.5 -33.5
c-13 -11 -24.833 -22.333 -35.5 -34s-19.167 -24.167 -25.5 -37.5s-9.83301 -27.666 -10.5 -42.999v-37c0 -8 -4 -12 -12 -12h-51c-7.33301 0 -11 3.66699 -11 11v39c0 22.667 3.83301 42.834 11.5 60.501s17.667 33.834 30 48.501s26.166 28.167 41.499 40.5l45 36.5
c22.667 18.667 42.667 38.334 60 59.001s26 45 26 73c0 30 -11.333 55.667 -34 77s-57.667 32 -105 32c-25.333 0 -52.666 -4.5 -81.999 -13.5s-55.666 -22.5 -78.999 -40.5c-8 -6 -14.333 -6 -19 0l-23 35c-4.66699 6.66699 -3.66699 13 3 19
c30 23.333 63.5 40.333 100.5 51s70.167 16 99.5 16zM280 48.999c0 -16.667 -5.33496 -30.667 -16.002 -42s-24.667 -17 -42 -17s-31.5 5.5 -42.5 16.5s-16.5 25.167 -16.5 42.5c0 16.667 5.83301 30.5 17.5 41.5s26.167 16.5 43.5 16.5
c4.66699 0 10.334 -0.833008 17.001 -2.5s12.834 -4.83398 18.501 -9.50098s10.5 -10.667 14.5 -18s6 -16.666 6 -27.999z" />
    <glyph glyph-name="at" unicode="@" horiz-adv-x="952" 
d="M624 246c0 -7.33301 0.666992 -15.501 2 -24.501s4.5 -17.333 9.5 -25s12.333 -14.167 22 -19.5s22.834 -8 39.501 -8c40 0 71.333 16.5 94 49.5s34 76.5 34 130.5c0 50.667 -7.83301 95.834 -23.5 135.501s-38 73.167 -67 100.5s-63.833 48 -104.5 62s-86 21 -136 21
c-54.667 0 -104.334 -9 -149.001 -27s-83 -42.5 -115 -73.5s-56.667 -67.5 -74 -109.5s-26 -87 -26 -135c0 -51.333 8.83301 -98 26.5 -140s42.334 -77.833 74.001 -107.5s69.334 -52.667 113.001 -69s91.5 -24.5 143.5 -24.5c12.667 0 29.667 1.16699 51 3.5
s43.666 7.16602 66.999 14.499c5.33301 1.33301 9.33301 1.83301 12 1.5s4.66699 -3.16602 6 -8.49902l9 -25c1.33301 -5.33301 1 -9.16602 -1 -11.499s-5.33301 -4.5 -10 -6.5c-22 -8 -44.5 -13.833 -67.5 -17.5s-45.833 -5.5 -68.5 -5.5c-62 0 -118.5 9.5 -169.5 28.5
s-94.667 46 -131 81s-64.5 76.667 -84.5 125s-30 102.166 -30 161.499c0 56.667 10.667 109.334 32 158.001s50.833 91 88.5 127s82.5 64.167 134.5 84.5s108.667 30.5 170 30.5c56.667 0 108.834 -8 156.501 -24s88.667 -39.833 123 -71.5s61.166 -70.5 80.499 -116.5
s29 -99 29 -159c0 -36 -4.83301 -68.667 -14.5 -98s-23.167 -54.5 -40.5 -75.5s-38.166 -37.167 -62.499 -48.5s-51.166 -17 -80.499 -17c-33.333 0 -59.5 6.16699 -78.5 18.5s-31.5 27.166 -37.5 44.499c-17.333 -13.333 -39.333 -24.666 -66 -33.999
s-52.334 -14 -77.001 -14c-46 0 -80.5 11.167 -103.5 33.5s-34.5 52.5 -34.5 90.5c0 20 3.5 38.5 10.5 55.5s17.667 31.833 32 44.5s32.166 22.667 53.499 30s46.333 11 75 11h100v18c0 12.667 -1.33301 24.167 -4 34.5s-7.5 19.333 -14.5 27s-16.667 13.5 -29 17.5
s-28.5 6 -48.5 6c-17.333 0 -36 -1.66699 -56 -5s-37.667 -7.33301 -53 -12c-4.66699 -1.33301 -8.33398 -1.83301 -11.001 -1.5s-4.66699 3.16602 -6 8.49902l-7 29c-1.33301 3.33301 -1.5 6.33301 -0.5 9s4.5 5.33398 10.5 8.00098
c18.667 7.33301 39.167 12.666 61.5 15.999s45.5 5 69.5 5c52 0 90.333 -11.333 115 -34s37 -56 37 -100v-173zM462 335.999c-9.33301 0 -20.1689 -0.832031 -32.502 -2.49902s-24.166 -5.33398 -35.499 -11.001s-21 -14 -29 -25s-12 -26.167 -12 -45.5
c0 -26 8.83301 -44.333 26.5 -55s37.834 -16 60.501 -16c14.667 0 33 3 55 9s43.667 16.667 65 32v114h-98z" />
    <glyph glyph-name="A" unicode="A" horiz-adv-x="605" 
d="M524 0c-5.33301 0 -9.49707 0.500977 -12.4971 1.50098s-5.5 4.83301 -7.5 11.5l-53 154h-297c-2 -4.66699 -5.5 -14.5 -10.5 -29.5l-16 -48l-16 -47.5c-5 -14.667 -8.5 -24.334 -10.5 -29.001c-2.66699 -8.66699 -8.66699 -13 -18 -13h-57
c-5.33301 0 -8.83301 1.66699 -10.5 5s-1.83398 7 -0.500977 11l231 651c5.33301 14 10.666 23.167 15.999 27.5s14.666 6.83301 27.999 7.5h26c15.333 0 25.666 -2.5 30.999 -7.5s10.333 -14.167 15 -27.5l228 -651c1.33301 -3.33301 1.33301 -6.83301 0 -10.5
s-4.66602 -5.5 -9.99902 -5.5h-56zM354.003 465.001l-49 152h-5l-48 -148l-77 -233h254z" />
    <glyph glyph-name="B" unicode="B" horiz-adv-x="633" 
d="M500 213c0 40 -13.167 72.501 -39.5 97.501s-64.5 37.5 -114.5 37.5h-193v-277h194c31.333 0 57 4.66699 77 14s35.667 21.166 47 35.499s19 29.833 23 46.5s6 32 6 46zM153 412.001h191c12 0 25.333 1.66699 40 5s28.167 9.16602 40.5 17.499s22.833 19.833 31.5 34.5
s13 33.667 13 57c0 30.667 -10.167 55.834 -30.5 75.501s-48.5 29.5 -84.5 29.5h-201v-219zM458 383.001c22.667 -6.66699 41.833 -16.3311 57.5 -28.998s28.334 -27 38.001 -43s16.5 -33 20.5 -51s6 -36 6 -54c0 -30.667 -5.66699 -58.667 -17 -84s-26.833 -47 -46.5 -65
s-43.167 -32 -70.5 -42s-57 -15 -89 -15h-235c-16.667 0 -28.667 3.5 -36 10.5s-11 18.833 -11 35.5v608c0 15.333 3.33301 27 10 35s19 12 37 12l224 1c28.667 0 55.5 -3.33301 80.5 -10s46.667 -16.834 65 -30.501s32.666 -31.334 42.999 -53.001s15.5 -47.5 15.5 -77.5
s-7.66699 -57.833 -23 -83.5s-38.333 -45.167 -69 -58.5v-6z" />
    <glyph glyph-name="C" unicode="C" horiz-adv-x="588" 
d="M361 61c30 0 58.6641 3.49902 85.9971 10.499s53.666 16.5 78.999 28.5c6.66699 2.66699 11.334 3 14.001 1s4.66699 -4.66699 6 -8l16 -35c3.33301 -6.66699 4.5 -11.334 3.5 -14.001s-3.5 -5.33398 -7.5 -8.00098c-16.667 -10 -34.167 -18 -52.5 -24
s-36.666 -10.833 -54.999 -14.5s-36.333 -6 -54 -7s-33.834 -1.5 -48.501 -1.5c-46 0 -87 7 -123 21s-66.667 35.333 -92 64s-44.666 65 -57.999 109s-20 96.333 -20 157c0 56.667 7.16699 107.834 21.5 153.501s34.666 84.5 60.999 116.5s57.833 56.667 94.5 74
s77.334 26 122.001 26c28.667 0 58.334 -2.66699 89.001 -8s63 -16.666 97 -33.999c3.33301 -1.33301 5.66602 -3.5 6.99902 -6.5s0.333008 -7.5 -3 -13.5l-19 -38c-2 -3.33301 -4 -5.66602 -6 -6.99902s-5.33301 -1 -10 1c-25.333 12 -50.666 20.667 -75.999 26
s-50.666 8 -75.999 8c-39.333 0 -73 -8.33301 -101 -25s-51 -38.667 -69 -66s-31.333 -59 -40 -95s-13 -73.333 -13 -112c0 -40 3.83301 -77 11.5 -111s20.5 -63.5 38.5 -88.5s41.5 -44.5 70.5 -58.5s64.5 -21 106.5 -21z" />
    <glyph glyph-name="D" unicode="D" horiz-adv-x="667" 
d="M532 353c0 38 -3.99902 73.833 -11.999 107.5s-21.167 63.167 -39.5 88.5s-42.833 45.333 -73.5 60s-68.334 22 -113.001 22h-141v-560h146c43.333 0 79.833 7.16699 109.5 21.5s53.667 34 72 59s31.5 54.667 39.5 89s12 71.833 12 112.5zM122.001 0
c-16.667 0 -28.667 3.50098 -36 10.501s-11 18.833 -11 35.5v608c0 15.333 3.33301 27 10 35s19 12 37 12l176 1c52 0 97.5 -8 136.5 -24s71.667 -39.167 98 -69.5s46.166 -67 59.499 -110s20 -90.833 20 -143.5s-6.16699 -100.834 -18.5 -144.501s-31 -81 -56 -112
s-56.667 -55.167 -95 -72.5s-83.166 -26 -134.499 -26h-186z" />
    <glyph glyph-name="E" unicode="E" horiz-adv-x="567" 
d="M532 18c0 -6 -1 -10.5 -3 -13.5s-6.33301 -4.5 -13 -4.5h-278c-31.333 -0 -57.5 4.33301 -78.5 13s-37.667 20.5 -50 35.5s-21.166 32.5 -26.499 52.5s-8 41.333 -8 64v370c0 22.667 3 44.167 9 64.5s15.5 38 28.5 53s29.833 26.833 50.5 35.5s45.667 13 75 13h271
c6.66699 0 11 -1.5 13 -4.5s3 -7.5 3 -13.5v-35c0 -6.66699 -1 -11.167 -3 -13.5s-6.33301 -3.5 -13 -3.5h-270c-30.667 0 -52.834 -7 -66.501 -21s-20.5 -35.333 -20.5 -64v-140h325c6 0 10 -1.16699 12 -3.5s3 -6.83301 3 -13.5v-33c0 -5.33301 -1 -9.5 -3 -12.5
s-6 -4.5 -12 -4.5h-325v-184c0 -25.333 6.5 -45.666 19.5 -60.999s35.5 -23 67.5 -23h277c6.66699 0 11 -1.33301 13 -4s3 -7.33398 3 -14.001v-35v0z" />
    <glyph glyph-name="F" unicode="F" horiz-adv-x="555" 
d="M152 16c0 -6.66699 -1.16699 -11 -3.5 -13s-6.83301 -3 -13.5 -3h-42c-6 0 -10.5 1 -13.5 3s-4.5 6.33301 -4.5 13v519c0 22.667 2.66699 44.167 8 64.5s14.333 38 27 53s29.334 26.833 50.001 35.5s46.667 13 78 13h275c6.66699 0 11 -1.5 13 -4.5s3 -7.5 3 -13.5v-35
c0 -6.66699 -1 -11.167 -3 -13.5s-6.33301 -3.5 -13 -3.5h-274c-30.667 0 -52.834 -7 -66.501 -21s-20.5 -35.333 -20.5 -64v-149h321c6.66699 0 10.834 -1.16699 12.501 -3.5s2.5 -6.83301 2.5 -13.5v-33c0 -6 -0.833008 -10.5 -2.5 -13.5s-5.83398 -4.5 -12.501 -4.5h-321
v-313v0z" />
    <glyph glyph-name="G" unicode="G" horiz-adv-x="644" 
d="M357 59c7.33301 0 16.833 0.333008 28.5 1s24.334 2 38.001 4s27.834 5 42.501 9s28.667 9 42 15v239c-9.33301 2 -19.333 3.33301 -30 4s-20.667 1 -30 1c-23.333 0 -46.333 -2.66699 -69 -8s-45.667 -13.666 -69 -24.999c-5.33301 -2 -9.33301 -3.33301 -12 -4
s-5.66699 1.66602 -9 6.99902l-16 35c-4 6.66699 -2.33301 13 5 19c21.333 14.667 47.166 26 77.499 34s60.166 12 89.499 12c17.333 0 32 -0.5 44 -1.5s24.667 -2.5 38 -4.5c21.333 -4 36.166 -11 44.499 -21s12.5 -26 12.5 -48v-258c0 -7.33301 -1 -13.5 -3 -18.5
s-6.33301 -9.16699 -13 -12.5c-18 -10.667 -37.5 -19.167 -58.5 -25.5s-41.5 -11.333 -61.5 -15s-38.667 -6 -56 -7s-31.666 -1.5 -42.999 -1.5c-45.333 0 -86.166 7 -122.499 21s-67.166 35.5 -92.499 64.5s-44.833 65.667 -58.5 110s-20.5 96.833 -20.5 157.5
c0 56.667 7.16699 107.667 21.5 153s34.666 84 60.999 116s58.333 56.5 96 73.5s79.5 25.5 125.5 25.5c28.667 0 59.334 -2.66699 92.001 -8s66 -16.666 100 -33.999c3.33301 -2 5.5 -4.5 6.5 -7.5s0.166992 -7.16699 -2.5 -12.5l-19 -42c-2.66699 -4 -5 -6.5 -7 -7.5
s-5.33301 -0.5 -10 1.5c-24.667 12 -50.834 20.667 -78.501 26s-54.167 8 -79.5 8c-40.667 0 -75.334 -8 -104.001 -24s-52.167 -37.5 -70.5 -64.5s-31.666 -58.333 -39.999 -94s-12.5 -72.834 -12.5 -111.501c0 -40.667 3.66699 -78.167 11 -112.5s19.666 -64 36.999 -89
s40.333 -44.5 69 -58.5s64 -21 106 -21z" />
    <glyph glyph-name="H" unicode="H" horiz-adv-x="680" 
d="M154 13c0 -5.33301 -1 -8.83301 -3 -10.5s-5.66699 -2.5 -11 -2.5h-51c-4.66699 -0 -8.16699 0.833008 -10.5 2.5s-3.5 5.16699 -3.5 10.5v674c0 5.33301 1.16699 8.83301 3.5 10.5s5.83301 2.5 10.5 2.5h51c5.33301 0 9 -0.833008 11 -2.5s3 -5.16699 3 -10.5v-283h374
v283c0 5.33301 1 8.83301 3 10.5s5.66699 2.5 11 2.5h49c5.33301 0 9 -0.833008 11 -2.5s3 -5.16699 3 -10.5v-674c0 -5.33301 -1 -8.83301 -3 -10.5s-5.66699 -2.5 -11 -2.5h-49c-5.33301 -0 -9 0.833008 -11 2.5s-3 5.16699 -3 10.5v323h-374v-323v0z" />
    <glyph glyph-name="I" unicode="I" horiz-adv-x="259" 
d="M168 13c0 -5.33301 -1 -8.83301 -3 -10.5s-5.66699 -2.5 -11 -2.5h-50c-5.33301 -0 -9 0.833008 -11 2.5s-3 5.16699 -3 10.5v674c0 5.33301 1 8.83301 3 10.5s5.66699 2.5 11 2.5h50c5.33301 0 9 -0.833008 11 -2.5s3 -5.16699 3 -10.5v-674v0z" />
    <glyph glyph-name="J" unicode="J" horiz-adv-x="564" 
d="M224 -11c-29.333 0 -63.167 3.66797 -101.5 11.001s-74.166 22 -107.499 44c-4 2.66699 -6.66699 5.16699 -8 7.5s-0.333008 6.5 3 12.5l21 39c4 6.66699 10.333 7.66699 19 3c24.667 -15.333 52.667 -27 84 -35s62.333 -12 93 -12c64.667 0 110.5 17.833 137.5 53.5
s40.5 88.5 40.5 158.5v416c0 5.33301 1.16699 8.83301 3.5 10.5s5.83301 2.5 10.5 2.5h49c5.33301 0 9 -0.833008 11 -2.5s3 -5.16699 3 -10.5v-422c0 -88.667 -20.833 -156.834 -62.5 -204.501s-106.834 -71.5 -195.501 -71.5z" />
    <glyph glyph-name="K" unicode="K" horiz-adv-x="621" 
d="M155 310l97.001 122.999l207 256c6 7.33301 15.333 11 28 11h62c4.66699 0 7.66699 -1.16699 9 -3.5s0.333008 -5.16602 -3 -8.49902l-189 -234l244 -437c5.33301 -11.333 2.66602 -17 -8.00098 -17h-54c-8.66699 -0 -15 0.833008 -19 2.5s-8 6.16699 -12 13.5l-205 373
l-161 -200v-176c0 -5.33301 -1 -8.83301 -3 -10.5s-5.66699 -2.5 -11 -2.5h-48c-4.66699 -0 -8.16699 0.833008 -10.5 2.5s-3.5 5.16699 -3.5 10.5v674c0 5.33301 1.16699 8.83301 3.5 10.5s5.83301 2.5 10.5 2.5h48c5.33301 0 9 -0.833008 11 -2.5s3 -5.16699 3 -10.5v-376
z" />
    <glyph glyph-name="L" unicode="L" horiz-adv-x="544" 
d="M534 15c0 -5.33301 -0.833008 -9.16699 -2.5 -11.5s-5.16699 -3.5 -10.5 -3.5h-285c-30.667 -0 -56.334 4.33301 -77.001 13s-37.167 20.5 -49.5 35.5s-21.166 32.667 -26.499 53s-8 41.833 -8 64.5v522c0 9.33301 4.66699 14 14 14h49c9.33301 0 14 -4.66699 14 -14
v-527c0 -30 7.16699 -52.5 21.5 -67.5s37.5 -22.5 69.5 -22.5h278c5.33301 0 8.83301 -1.16699 10.5 -3.5s2.5 -5.83301 2.5 -10.5v-42v0z" />
    <glyph glyph-name="M" unicode="M" horiz-adv-x="801" 
d="M402 154c2.66699 6 6.66797 15.667 12.001 29l17.5 43l17.5 43c5.33301 13.333 9.33301 23 12 29l21.5 52.5l27.5 67l30.5 73.5l29 71.5l25 60.5l17.5 42c6 15.333 12.333 25.166 19 29.499s16.334 6.5 29.001 6.5h23c17.333 0 28.833 -4 34.5 -12s8.5 -18.667 8.5 -32
v-644c0 -5.33301 -1.16699 -8.83301 -3.5 -10.5s-5.83301 -2.5 -10.5 -2.5h-47c-5.33301 0 -9 0.833008 -11 2.5s-3 5.16699 -3 10.5v553h-5l-50 -123l-29.5 -70.5l-38.5 -93l-39 -93.5l-30 -70c-5.33301 -13.333 -10.833 -22.5 -16.5 -27.5s-15.167 -7.5 -28.5 -7.5h-27
c-13.333 0 -23 2.5 -29 7.5s-11.667 14.167 -17 27.5l-30 71l-39.5 94l-39.5 94c-12.667 30 -23 53.667 -31 71l-46 112h-6v-545c0 -5.33301 -1 -8.83301 -3 -10.5s-5.66699 -2.5 -11 -2.5h-46c-5.33301 0 -9 0.833008 -11 2.5s-3 5.16699 -3 10.5v644
c0 13.333 2.66699 24 8 32s16.666 12 33.999 12h23c13.333 0 23.166 -2.16699 29.499 -6.5s12.5 -14.166 18.5 -29.499c1.33301 -3.33301 5.66602 -13.5 12.999 -30.5l26 -62l32.5 -79l33.5 -81.5l28 -69c8 -20 13.667 -33.667 17 -41c2.66699 -6 6.83398 -16 12.501 -30
l18 -44l17.5 -44c5.33301 -14 9.33301 -24 12 -30h4z" />
    <glyph glyph-name="N" unicode="N" horiz-adv-x="680" 
d="M151 591v-578.001c0 -5.33301 -1 -8.83301 -3 -10.5s-5.66699 -2.5 -11 -2.5h-48c-4.66699 0 -8.16699 0.833008 -10.5 2.5s-3.5 5.16699 -3.5 10.5v644c0 14.667 3 25.667 9 33s17.333 11 34 11h22c12.667 0 21.834 -2.66699 27.501 -8s12.5 -14.666 20.5 -27.999
l252 -412l85 -144h4v579c0 5.33301 1 8.83301 3 10.5s5.66699 2.5 11 2.5h48c4.66699 0 8.16699 -0.833008 10.5 -2.5s3.5 -5.16699 3.5 -10.5v-644c0 -14 -2.83301 -24.833 -8.5 -32.5s-16.834 -11.5 -33.501 -11.5h-23c-13.333 -0 -22.833 2.83301 -28.5 8.5
s-12.5 15.167 -20.5 28.5l-261 426l-76 128h-3z" />
    <glyph glyph-name="O" unicode="O" horiz-adv-x="696" 
d="M641 352c0 -116.667 -24.834 -206.333 -74.501 -269s-123.167 -94 -220.5 -94c-49.333 0 -92.166 8.16699 -128.499 24.5s-66.5 40 -90.5 71s-42 68.833 -54 113.5s-18 95 -18 151c0 58 7.16699 109.5 21.5 154.5s34.333 82.833 60 113.5s56.5 54 92.5 70
s75.667 24 119 24c96.667 0 169.667 -31.667 219 -95s74 -151.333 74 -264zM561.999 349.001c0 38 -3.16699 74.666 -9.5 109.999s-17.5 66.5 -33.5 93.5s-37.667 48.667 -65 65s-62 24.5 -104 24.5c-38 0 -70.833 -7.83301 -98.5 -23.5s-50.334 -36.667 -68.001 -63
s-30.667 -57.166 -39 -92.499s-12.5 -72.333 -12.5 -111c0 -42 3.5 -80.833 10.5 -116.5s18.833 -66.667 35.5 -93s38.667 -47 66 -62s61.666 -22.5 102.999 -22.5c40.667 0 74.834 8 102.501 24s49.834 37.5 66.501 64.5s28.5 58 35.5 93s10.5 71.5 10.5 109.5z" />
    <glyph glyph-name="P" unicode="P" horiz-adv-x="595" 
d="M75 655c0 15.333 3.16406 26.834 9.49707 34.501s18.5 11.5 36.5 11.5h231c30.667 0 58.834 -5 84.501 -15s47.834 -24 66.501 -42s33 -39.5 43 -64.5s15 -52.5 15 -82.5c0 -18.667 -3 -40 -9 -64s-17.167 -46.833 -33.5 -68.5s-38.666 -39.834 -66.999 -54.501
s-64.5 -22 -108.5 -22h-192v-276c0 -5.33301 -1 -8.66602 -3 -9.99902s-5.66699 -2 -11 -2h-49c-4.66699 0 -8 0.666992 -10 2s-3 4.66602 -3 9.99902v643zM150.997 356.001l183 0.000976562c46 0 82 11.833 108 35.5s39 57.5 39 101.5c0 14.667 -2.33301 30.167 -7 46.5
s-12.667 31.166 -24 44.499s-26.5 24.333 -45.5 33s-42.833 13 -71.5 13h-182v-274z" />
    <glyph glyph-name="Q" unicode="Q" horiz-adv-x="696" 
d="M641 352c0 -116.667 -24.834 -206.332 -74.501 -268.999s-123.167 -94 -220.5 -94c-49.333 0 -92.166 8.16699 -128.499 24.5s-66.5 40 -90.5 71s-42 68.833 -54 113.5s-18 95 -18 151c0 58 7.16699 109.333 21.5 154s34.333 82.5 60 113.5s56.5 54.5 92.5 70.5
s75.667 24 119 24c48 0 90.333 -8.16699 127 -24.5s67.167 -39.833 91.5 -70.5s42.833 -68.334 55.5 -113.001s19 -95 19 -151zM561.999 349.002c0 38 -3.16699 74.667 -9.5 110s-17.5 66.5 -33.5 93.5s-37.667 48.5 -65 64.5s-62 24 -104 24
c-38 0 -70.833 -7.66699 -98.5 -23s-50.334 -36.333 -68.001 -63s-30.667 -57.5 -39 -92.5s-12.5 -71.833 -12.5 -110.5c0 -42 3.5 -81 10.5 -117s18.833 -67 35.5 -93s38.667 -46.5 66 -61.5s61.333 -22.5 102 -22.5s74.834 8 102.501 24s50 37.5 67 64.5s29 58 36 93
s10.5 71.5 10.5 109.5zM331.999 -128.998c-5.33301 0 -8.66504 1.16602 -9.99805 3.49902s-2 5.83301 -2 10.5v39c0 5.33301 0.666992 8.83301 2 10.5s4.66602 2.5 9.99902 2.5h106c51.333 0 97.333 -5.83301 138 -17.5s71.667 -25.167 93 -40.5
c3.33301 -2.66699 5.66602 -5.16699 6.99902 -7.5s0.666016 -5.83301 -2.00098 -10.5l-20 -32c-5.33301 -9.33301 -12.333 -11.333 -21 -6c-25.333 14.667 -56.166 26.334 -92.499 35.001s-75.833 13 -118.5 13h-90z" />
    <glyph glyph-name="R" unicode="R" horiz-adv-x="617" 
d="M439 331c28 -9.33301 48.168 -22.6699 60.501 -40.0029s22.166 -38.666 29.499 -63.999l59 -212c1.33301 -3.33301 1.33301 -6.66602 0 -9.99902s-5 -5 -11 -5h-55c-2.66699 0 -5.66699 0.5 -9 1.5s-5.66602 4.16699 -6.99902 9.5l-54 194
c-6 20.667 -13.5 37.5 -22.5 50.5s-19.5 23.333 -31.5 31s-25.333 13 -40 16s-30.334 4.5 -47.001 4.5h-157v-294c0 -5.33301 -1 -8.83301 -3 -10.5s-5.66699 -2.5 -11 -2.5h-51c-5.33301 0 -9 0.833008 -11 2.5s-3 5.16699 -3 10.5v642c0 15.333 3.33301 27 10 35
s19 12 37 12h227c32 0 60.667 -4.83301 86 -14.5s47 -23.167 65 -40.5s31.833 -37.833 41.5 -61.5s14.5 -49.5 14.5 -77.5c0 -40 -10 -75.667 -30 -107s-49 -53.666 -87 -66.999v-3zM477.001 503.996c0 16 -2.5 31.667 -7.5 47s-13 28.833 -24 40.5s-25.167 21 -42.5 28
s-38.333 10.5 -63 10.5h-185v-255h179c49.333 0 85.5 12 108.5 36s34.5 55 34.5 93z" />
    <glyph glyph-name="S" unicode="S" horiz-adv-x="562" 
d="M534 184c0 -32 -5.99316 -60.001 -17.9932 -84.001s-28.833 -44.333 -50.5 -61s-47.5 -29.167 -77.5 -37.5s-63.333 -12.5 -100 -12.5c-17.333 0 -36.5 0.833008 -57.5 2.5s-42.333 4.66699 -64 9s-43.5 10 -65.5 17s-42.667 15.5 -62 25.5c-6.66699 3.33301 -8 9 -4 17
l20 44c2.66699 6.66699 7.66699 8.33398 15 5.00098c16.667 -8 34.667 -15.167 54 -21.5s38.666 -11.5 57.999 -15.5s38.166 -7.16699 56.499 -9.5s35.166 -3.5 50.499 -3.5c22 0 43.167 2.33301 63.5 7s38 12 53 22s27 22.667 36 38s13.5 33.333 13.5 54
c0 36.667 -14.833 66.167 -44.5 88.5s-74.167 43.5 -133.5 63.5c-36.667 12 -68.5 24.167 -95.5 36.5s-49.333 26 -67 41s-30.834 32 -39.501 51s-13 41.5 -13 67.5c0 26.667 5 51.334 15 74.001s24.667 42.167 44 58.5s42.833 29 70.5 38s59.5 13.5 95.5 13.5
c32.667 0 66 -3 100 -9s67.333 -16.667 100 -32c6.66699 -2.66699 8.66699 -7.66699 6 -15l-19 -47c-3.33301 -5.33301 -7.33301 -7 -12 -5c-34 14 -65.5 23.833 -94.5 29.5s-56.5 8.5 -82.5 8.5c-42.667 0 -77.334 -10 -104.001 -30s-40 -46.333 -40 -79
c0 -18.667 3.66699 -34.334 11 -47.001s18.333 -24.167 33 -34.5s33 -19.833 55 -28.5l77 -29c30.667 -10.667 59.167 -22 85.5 -34s49.166 -26 68.499 -42s34.666 -34.833 45.999 -56.5s17 -47.5 17 -77.5z" />
    <glyph glyph-name="T" unicode="T" horiz-adv-x="538" 
d="M305 13c0 -5.33301 -0.832031 -8.83301 -2.49902 -10.5s-4.83398 -2.5 -9.50098 -2.5h-53c-5.33301 -0 -9 0.833008 -11 2.5s-3 5.16699 -3 10.5v619h-200c-5.33301 0 -8.66602 0.833008 -9.99902 2.5s-2 5.16699 -2 10.5v41c0 5.33301 0.666992 9 2 11
s4.66602 3 9.99902 3h486c5.33301 0 8.83301 -1 10.5 -3s2.5 -5.66699 2.5 -11v-41c0 -5.33301 -0.833008 -8.83301 -2.5 -10.5s-5.16699 -2.5 -10.5 -2.5h-207v-619v0z" />
    <glyph glyph-name="U" unicode="U" horiz-adv-x="676" 
d="M75 687c0 5.33301 0.667969 8.83203 2.00098 10.499s3.66602 2.5 6.99902 2.5h59c3.33301 0 5.83301 -0.833008 7.5 -2.5s2.5 -5.16699 2.5 -10.5v-382c0 -43.333 2.66699 -80.666 8 -111.999s16 -57 32 -77s38.833 -34.833 68.5 -44.5s68.834 -14.5 117.501 -14.5
c11.333 0 30.666 0.833008 57.999 2.5s56.666 5.5 87.999 11.5v616c0 5.33301 0.666992 8.83301 2 10.5s3.66602 2.5 6.99902 2.5h59c3.33301 0 5.5 -0.833008 6.5 -2.5s1.5 -5.16699 1.5 -10.5v-609c0 -20.667 -4.5 -37.5 -13.5 -50.5s-25.833 -21.833 -50.5 -26.5
c-25.333 -4.66699 -53.166 -8 -83.499 -10s-56.166 -3 -77.499 -3c-55.333 0 -102.166 5 -140.499 15s-69.333 27 -93 51s-40.834 55.833 -51.501 95.5s-16 89.5 -16 149.5v388v0z" />
    <glyph glyph-name="V" unicode="V" horiz-adv-x="616" 
d="M369 33c-4 -12 -8.66699 -20.3301 -14 -24.9971s-13.666 -7.33398 -24.999 -8.00098h-36c-12.667 0 -22 2.16699 -28 6.5s-11.667 13.166 -17 26.499l-232 657c-4 7.33301 -1.66699 11 7 11h60c7.33301 0 12.333 -3.33301 15 -10c0.666992 -2.66699 4 -12.834 10 -30.501
l22 -66.5l29.5 -88.5l33 -97l32 -92l26.5 -73.5c1.33301 -4.66699 4.5 -14.667 9.5 -30l16.5 -49.5l17.5 -50.5l11.5 -33h5l52 161l153 450c2 5.33301 4.16699 8.33301 6.5 9s6.16602 1 11.499 1h58c6.66699 0 8.66699 -3.66699 6 -11z" />
    <glyph glyph-name="W" unicode="W" horiz-adv-x="827" 
d="M412 614l-33.002 -148l-106 -428c-2.66699 -12 -6.83398 -21.333 -12.501 -28s-14.167 -10 -25.5 -10h-36c-12 0 -21.5 2.16699 -28.5 6.5s-12.167 13.166 -15.5 26.499l-139 657c-2.66699 7.33301 -0.333984 11 6.99902 11h59c9.33301 0 14.333 -3.33301 15 -10l85 -434
l31 -165h5l39 166l98 406c2 10 6 18.667 12 26s16.667 11 32 11h34c12.667 0 21.834 -3.33301 27.501 -10s9.83398 -15.667 12.501 -27l97 -403l38 -169h5l33 170l86 429c0.666992 6.66699 5.33398 10 14.001 10h58c7.33301 0 9.66602 -3.66699 6.99902 -11l-141 -657
c-3.33301 -13.333 -8.5 -22.166 -15.5 -26.499s-16.5 -6.5 -28.5 -6.5h-36c-11.333 0 -19.666 3.16699 -24.999 9.5s-9.66602 15.833 -12.999 28.5l-105 430l-32 146h-3z" />
    <glyph glyph-name="X" unicode="X" horiz-adv-x="548" 
d="M536 12c1.33301 -2.66699 1.5 -5.33301 0.5 -8s-3.5 -4 -7.5 -4h-60c-6.66699 0 -11.5 1 -14.5 3s-5.83301 5 -8.5 9l-173 290l-173 -290c-4.66699 -8 -12.334 -12 -23.001 -12h-58c-4.66699 0 -7.5 1.16699 -8.5 3.5s-0.5 5.16602 1.5 8.49902l217 351l-200 327
c-1.33301 2 -1.5 4.33301 -0.5 7s3.5 4 7.5 4h58c7.33301 0 12.333 -0.666992 15 -2s5.33398 -4.66602 8.00098 -9.99902l158 -262l157 262c4.66699 8 12.667 12 24 12h54c8.66699 0 10.667 -4.33301 6 -13l-198 -323l218 -353v0z" />
    <glyph glyph-name="Y" unicode="Y" horiz-adv-x="546" 
d="M313 284v-271c0 -5.33301 -0.833008 -8.83301 -2.5 -10.5s-5.16699 -2.5 -10.5 -2.5h-48c-5.33301 -0 -9 0.833008 -11 2.5s-3 5.16699 -3 10.5v270l-226 408c-1.33301 2 -1.5 4.16699 -0.5 6.5s3.5 3.5 7.5 3.5h62c8 0 13.667 -3.66699 17 -11l99 -185l77 -150h4l80 155
l96 180c3.33301 7.33301 9 11 17 11h58c3.33301 0 5.33301 -1.33301 6 -4s0.666992 -4.66699 0 -6z" />
    <glyph glyph-name="Z" unicode="Z" horiz-adv-x="596" 
d="M513 701c15.333 0 26.668 -2.83301 34.001 -8.5s11 -16.167 11 -31.5v-17c0 -10.667 -2.33301 -20.167 -7 -28.5s-10.334 -16.5 -17.001 -24.5l-51 -63l-73.5 -91.5l-85 -105l-85.5 -105l-74 -91.5l-50 -63c1.33301 -1.33301 2 -3 2 -5h433
c5.33301 0 8.66602 -1 9.99902 -3s2 -5.66699 2 -11v-39c0 -5.33301 -0.666992 -9 -2 -11s-4.66602 -3 -9.99902 -3h-481c-28 -0 -42 12.333 -42 37v13c0 10 1.33301 18.333 4 25s7 13.667 13 21l53 66.5l76 93.5l87 107l87 107l76 93.5l53 66.5l-1 3h-382
c-5.33301 0 -8.83301 1 -10.5 3s-2.5 5.66699 -2.5 11v40c0 5.33301 0.833008 9 2.5 11s5.16699 3 10.5 3h420z" />
    <glyph glyph-name="bracketleft" unicode="[" horiz-adv-x="301" 
d="M274 -66c0 -5.33301 -0.833008 -9 -2.5 -11s-5.16699 -3 -10.5 -3h-181c-5.33301 0 -8.66602 1 -9.99902 3s-2 5.66699 -2 11v772c0 5.33301 0.666992 9 2 11s4.66602 3 9.99902 3h181c5.33301 0 8.83301 -1 10.5 -3s2.5 -5.66699 2.5 -11v-31
c0 -4.66699 -0.833008 -8 -2.5 -10s-5.16699 -3 -10.5 -3h-120v-684h120c5.33301 0 8.83301 -0.833008 10.5 -2.5s2.5 -5.16699 2.5 -10.5v-31v0z" />
    <glyph glyph-name="backslash" unicode="\" horiz-adv-x="421" 
d="M412 -84c1.33301 -4.66699 0.832031 -7.83301 -1.50098 -9.5s-5.5 -2.5 -9.5 -2.5h-46c-8.66699 0 -14.334 4 -17.001 12l-325 850c-1.33301 4.66699 -0.666016 8 2.00098 10s5.33398 3 8.00098 3h47c5.33301 0 9 -1 11 -3s4 -5.33301 6 -10l325 -850v0z" />
    <glyph glyph-name="bracketright" unicode="]" horiz-adv-x="301" 
d="M256 -65c0 -5.33301 -0.666992 -9 -2 -11s-4.66602 -3 -9.99902 -3h-181c-5.33301 0 -8.83301 1 -10.5 3s-2.5 5.66699 -2.5 11v31c0 4.66699 0.833008 8 2.5 10s5.16699 3 10.5 3h120v684h-120c-5.33301 0 -8.83301 0.833008 -10.5 2.5s-2.5 5.16699 -2.5 10.5v31
c0 4.66699 0.833008 8.16699 2.5 10.5s5.16699 3.5 10.5 3.5h181c5.33301 0 8.66602 -1.16699 9.99902 -3.5s2 -5.83301 2 -10.5v-772v0z" />
    <glyph glyph-name="asciicircum" unicode="^" horiz-adv-x="518" 
d="M218 703c4 6.66699 7.83301 12.167 11.5 16.5s8.83398 6.5 15.501 6.5h16c8 0 13.667 -1.5 17 -4.5s7.33301 -8.5 12 -16.5l184 -313c2.66699 -4 3 -7.16699 1 -9.5s-5 -3.5 -9 -3.5h-49c-10 0 -16.667 4 -20 12l-141 246h-2l-29 -51l-40 -70.5l-40 -70.5l-28 -51
c-3.33301 -6 -6.33301 -10.167 -9 -12.5s-7.33398 -3.5 -14.001 -3.5h-52c-5.33301 0 -8.5 1.5 -9.5 4.5s-0.166992 6.5 2.5 10.5z" />
    <glyph glyph-name="underscore" unicode="_" horiz-adv-x="500" 
d="M1 -122c-5.33301 0 -8.66602 0.833008 -9.99902 2.5s-2 5.16699 -2 10.5v21c0 4.66699 0.666992 8 2 10s4.66602 3 9.99902 3h498c5.33301 0 8.66602 -1 9.99902 -3s2 -5.33301 2 -10v-21c0 -5.33301 -0.666992 -8.83301 -2 -10.5s-4.66602 -2.5 -9.99902 -2.5h-498v0z
" />
    <glyph glyph-name="grave" unicode="`" horiz-adv-x="476" 
d="M286 590c-6.66699 -2.66699 -12.665 -0.668945 -17.998 5.99805l-101 147c-6 7.33301 -4 12 6 14l60 15c5.33301 0.666992 9.16602 0 11.499 -2s4.16602 -4.66699 5.49902 -8l65 -149c2.66699 -5.33301 3.5 -8.66602 2.5 -9.99902s-3.16699 -2.66602 -6.5 -3.99902z" />
    <glyph glyph-name="a" unicode="a" horiz-adv-x="530" 
d="M465 46c0 -12 -4.66797 -20.002 -14.001 -24.002c-30 -12.667 -62 -21.334 -96 -26.001s-66.667 -7 -98 -7c-42.667 0 -77.667 4.66699 -105 14s-49 21.5 -65 36.5s-27.167 32.333 -33.5 52s-9.5 40.167 -9.5 61.5c0 24.667 4.33301 47.834 13 69.501
s21.834 40.5 39.501 56.5s39.834 28.5 66.501 37.5s58.334 13.5 95.001 13.5h133v27c0 16.667 -1.66699 32.167 -5 46.5s-9.66602 26.5 -18.999 36.5s-22.333 17.833 -39 23.5s-38.334 8.5 -65.001 8.5c-22 0 -46.167 -2.16699 -72.5 -6.5s-48.833 -9.5 -67.5 -15.5
c-4.66699 -1.33301 -8.33398 -1.83301 -11.001 -1.5s-4.66699 2.83301 -6 7.5l-10 36c-2 7.33301 0.666992 12.333 8 15c12 4.66699 25 8.83398 39 12.501s28.5 6.83398 43.5 9.50098s30.167 4.5 45.5 5.5s29.666 1.5 42.999 1.5c64.667 0 112.5 -14.333 143.5 -43
s46.5 -70.667 46.5 -126v-321zM389.999 265.998h-129c-12 0 -26.333 -1 -43 -3s-32.5 -6.83301 -47.5 -14.5s-27.667 -19 -38 -34s-15.5 -35.5 -15.5 -61.5c0 -20 3.83301 -36.667 11.5 -50s18 -24 31 -32s27.833 -13.5 44.5 -16.5s34 -4.5 52 -4.5
c6 0 14.167 0.333008 24.5 1s21.833 1.66699 34.5 3s25.5 3.5 38.5 6.5s25.167 6.5 36.5 10.5v195z" />
    <glyph glyph-name="b" unicode="b" horiz-adv-x="552" 
d="M507 269c0 -40 -4.66406 -77.166 -13.9971 -111.499s-23.833 -64 -43.5 -89s-44.5 -44.5 -74.5 -58.5s-65.667 -21 -107 -21c-30 0 -61.833 2.33301 -95.5 7s-65.834 13.334 -96.501 26.001c-7.33301 2.66699 -11 8.33398 -11 17.001v679
c0 5.33301 1.16699 8.83301 3.5 10.5s5.83301 2.5 10.5 2.5h46c5.33301 0 8.83301 -0.833008 10.5 -2.5s2.5 -5.16699 2.5 -10.5v-206c21.333 7.33301 45.666 13.166 72.999 17.499s51.333 6.5 72 6.5c38.667 0 72.167 -6.66699 100.5 -20s51.666 -31.833 69.999 -55.5
s31.833 -51.834 40.5 -84.501s13 -68.334 13 -107.001zM138.003 71.001c21.333 -7.33301 43.833 -12.334 67.5 -15.001s44.167 -4 61.5 -4c24 0 46 4 66 12s37.333 20.5 52 37.5s26.167 39 34.5 66s12.5 59.167 12.5 96.5c0 68.667 -14 120.5 -42 155.5
s-66.333 52.5 -115 52.5c-13.333 0 -33 -1.66699 -59 -5s-52 -9.66602 -78 -18.999v-377z" />
    <glyph glyph-name="c" unicode="c" horiz-adv-x="473" 
d="M282 52c23.333 0 46.165 2.99805 68.498 8.99805s41.166 13.333 56.499 22c5.33301 2.66699 9.16602 3.33398 11.499 2.00098s4.5 -3.66602 6.5 -6.99902l16 -35c3.33301 -4 4.33301 -7.33301 3 -10s-3.66602 -5.33398 -6.99902 -8.00098
c-25.333 -13.333 -52.333 -22.666 -81 -27.999s-56.667 -8 -84 -8c-74.667 0 -131.167 22.333 -169.5 67s-57.5 111.667 -57.5 201c0 43.333 5.5 82.166 16.5 116.499s26.667 63.5 47 87.5s45.166 42.5 74.499 55.5s62 19.5 98 19.5c26 0 51 -2.66699 75 -8
s47.667 -14.333 71 -27c8 -4.66699 9.66699 -10.667 5 -18l-18 -34c-1.33301 -3.33301 -3.16602 -5.66602 -5.49902 -6.99902s-6.16602 -0.666016 -11.499 2.00098c-16.667 7.33301 -34.5 13.666 -53.5 18.999s-39.833 8 -62.5 8c-29.333 0 -54.166 -5.83301 -74.499 -17.5
s-37.166 -27.5 -50.499 -47.5s-23 -42.833 -29 -68.5s-9 -52.5 -9 -80.5c0 -28.667 2.66699 -55.5 8 -80.5s14.333 -46.667 27 -65s29.5 -32.833 50.5 -43.5s47.167 -16 78.5 -16z" />
    <glyph glyph-name="d" unicode="d" horiz-adv-x="551" 
d="M45 255c0 37.333 4.66797 72.999 14.001 106.999s23.833 63.833 43.5 89.5s44.5 46.167 74.5 61.5s65.667 23 107 23c17.333 0 37.166 -1.16699 59.499 -3.5s45.166 -7.16602 68.499 -14.499v200c0 5.33301 1 8.83301 3 10.5s5.66699 2.5 11 2.5h47
c4.66699 0 8 -0.833008 10 -2.5s3 -5.16699 3 -10.5v-678c0 -8 -3.33301 -13.333 -10 -16c-34 -14.667 -68.833 -24.167 -104.5 -28.5s-68.5 -6.5 -98.5 -6.5c-40.667 0 -75.5 6.16699 -104.5 18.5s-52.667 30 -71 53s-31.666 50.833 -39.999 83.5s-12.5 69.667 -12.5 111z
M121.001 254.999c0 -38 4.00098 -70.001 12.001 -96.001s19.167 -47 33.5 -63s31.666 -27.333 51.999 -34s42.833 -10 67.5 -10c8.66699 0 18.5 0.5 29.5 1.5s22.167 2.33301 33.5 4s22.5 3.83398 33.5 6.50098s20.833 5.66699 29.5 9v379
c-27.333 9.33301 -50.833 15.166 -70.5 17.499s-37.167 3.5 -52.5 3.5c-24.667 0 -47.167 -4.33301 -67.5 -13s-38 -22 -53 -40s-26.667 -40.667 -35 -68s-12.5 -59.666 -12.5 -96.999z" />
    <glyph glyph-name="e" unicode="e" horiz-adv-x="533" 
d="M273 536c38 0 70.668 -5.49902 98.001 -16.499s49.833 -26.5 67.5 -46.5s30.834 -43.667 39.501 -71s13 -57.333 13 -90c0 -28 -6.5 -46.5 -19.5 -55.5s-28.833 -13.5 -47.5 -13.5h-305c0 -34.667 4.33301 -64.167 13 -88.5s20.5 -44 35.5 -59s32.667 -25.833 53 -32.5
s42.166 -10 65.499 -10c22 0 43.5 2.66699 64.5 8s38.833 12 53.5 20c8 4 13.667 2.66699 17 -4l18 -35c4 -8 2.33301 -13.667 -5 -17c-23.333 -14 -48.333 -23.5 -75 -28.5s-52.667 -7.5 -78 -7.5c-73.333 0 -131 21.5 -173 64.5s-63 111.833 -63 206.5
c0 44.667 5.66699 84.167 17 118.5s27.166 63.166 47.499 86.499s44.333 41 72 53s58.167 18 91.5 18zM421.001 303.001c0 22.667 -2.33398 44.332 -7.00098 64.999s-12.5 38.834 -23.5 54.501s-26.167 28.167 -45.5 37.5s-43.333 14 -72 14
c-23.333 0 -44.166 -4.5 -62.499 -13.5s-33.833 -21.167 -46.5 -36.5s-22.5 -33.333 -29.5 -54s-11.167 -43 -12.5 -67h299z" />
    <glyph glyph-name="f" unicode="f" horiz-adv-x="332" 
d="M337 673c-2 -5.33301 -6.32812 -7.66797 -12.9951 -7.00098c-12 2.66699 -24.167 4.5 -36.5 5.5s-23.166 1.5 -32.499 1.5c-32.667 0 -54.5 -6.83301 -65.5 -20.5s-16.5 -31.167 -16.5 -52.5v-75h135c5.33301 0 8.66602 -1 9.99902 -3s2 -5.33301 2 -10v-34
c0 -3.33301 -0.666992 -6.16602 -2 -8.49902s-4.66602 -3.5 -9.99902 -3.5h-135v-454c0 -5.33301 -0.833008 -8.66602 -2.5 -9.99902s-5.16699 -2 -10.5 -2h-46c-5.33301 0 -9 0.666992 -11 2s-3 4.66602 -3 9.99902v454h-79c-5.33301 0 -8.83301 1.16699 -10.5 3.5
s-2.5 5.16602 -2.5 8.49902v19c0 8 4.33301 13 13 15c3.33301 0.666992 8.66602 1.66699 15.999 3s15.166 2.66602 23.499 3.99902s16.166 2.66602 23.499 3.99902s12.666 2 15.999 2v73c0 43.333 11 77.5 33 102.5s58.333 37.5 109 37.5
c11.333 0 25.666 -0.666992 42.999 -2s35 -4.66602 53 -9.99902c4.66699 -1.33301 7.16699 -3.16602 7.5 -5.49902s0.166016 -5.16602 -0.500977 -8.49902z" />
    <glyph glyph-name="g" unicode="g" horiz-adv-x="551" 
d="M413 453c-21.333 7.33301 -43.6699 12.501 -67.0029 15.501s-43.666 4.5 -60.999 4.5c-24 0 -46.167 -4.16699 -66.5 -12.5s-37.666 -21 -51.999 -38s-25.666 -39 -33.999 -66s-12.5 -59.167 -12.5 -96.5c0 -68.667 13.833 -120.5 41.5 -155.5s66.167 -52.5 115.5 -52.5
c13.333 0 32.833 1.66699 58.5 5s51.5 9.66602 77.5 18.999v377zM283.996 535.001c30 0 61.834 -2.17188 95.501 -6.50488s65.834 -12.833 96.501 -25.5c7.33301 -4 11 -9.66699 11 -17v-449c0 -44.667 -5.5 -82.167 -16.5 -112.5s-27 -55.5 -48 -75.5s-47 -35.5 -78 -46.5
s-66.167 -19.167 -105.5 -24.5c-8 -0.666992 -13 2.33301 -15 9l-6 46c0 6.66699 3.33301 10.334 10 11.001c28.667 4.66699 54.334 10.5 77.001 17.5s42 16.5 58 28.5s28.167 27.333 36.5 46s12.5 42.334 12.5 71.001v6c-21.333 -7.33301 -45.5 -13.166 -72.5 -17.499
s-50.5 -6.5 -70.5 -6.5c-39.333 0 -73 6.66699 -101 20s-51.167 31.833 -69.5 55.5s-31.833 51.834 -40.5 84.501s-13 68.334 -13 107.001c0 40 4.66699 77.167 14 111.5s23.666 63.833 42.999 88.5s44.166 44 74.499 58s66.166 21 107.499 21z" />
    <glyph glyph-name="h" unicode="h" horiz-adv-x="555" 
d="M490 13c0 -5.33301 -1 -8.83203 -3 -10.499s-5.33301 -2.5 -10 -2.5h-47c-5.33301 0 -9 0.833008 -11 2.5s-3 5.16699 -3 10.5v293c0 56.667 -11.667 98.5 -35 125.5s-60 40.5 -110 40.5c-19.333 0 -41.666 -1.83301 -66.999 -5.5s-47.333 -9.83398 -66 -18.501v-435
c0 -5.33301 -1 -8.83301 -3 -10.5s-5.66699 -2.5 -11 -2.5h-45c-4.66699 -0 -8.16699 0.833008 -10.5 2.5s-3.5 5.16699 -3.5 10.5v705c0 5.33301 1.16699 8.83301 3.5 10.5s5.83301 2.5 10.5 2.5h45c5.33301 0 9 -0.833008 11 -2.5s3 -5.16699 3 -10.5v-207
c24 9.33301 49.333 15.833 76 19.5s49.667 5.5 69 5.5c38 0 70.167 -5.33301 96.5 -16s47.666 -26 63.999 -46s28.333 -44.333 36 -73s11.5 -61 11.5 -97z" />
    <glyph glyph-name="i" unicode="i" horiz-adv-x="246" 
d="M173 669c0 -14 -4.83301 -25.667 -14.5 -35s-21.5 -14 -35.5 -14c-13.333 0 -25 4.66699 -35 14s-15 21 -15 35s5 26 15 36s21.667 15 35 15c14 0 25.833 -5 35.5 -15s14.5 -22 14.5 -36zM159 13c0 -5.33301 -1 -8.83301 -3 -10.5s-5.66699 -2.5 -11 -2.5h-45
c-4.66699 -0 -8.16699 0.833008 -10.5 2.5s-3.5 5.16699 -3.5 10.5v499c0 5.33301 1.16699 8.83301 3.5 10.5s5.83301 2.5 10.5 2.5h45c5.33301 0 9 -0.833008 11 -2.5s3 -5.16699 3 -10.5v-499z" />
    <glyph glyph-name="j" unicode="j" horiz-adv-x="260" 
d="M184 669c0 -14 -5 -25.667 -15 -35s-21.667 -14 -35 -14c-14 0 -25.833 4.66699 -35.5 14s-14.5 21 -14.5 35s4.83301 26 14.5 36s21.5 15 35.5 15c13.333 0 25 -5 35 -15s15 -22 15 -36zM171 61c0 -44.667 -4.49902 -82.834 -13.499 -114.501s-21.167 -58.5 -36.5 -80.5
s-33.333 -39.667 -54 -53s-42.334 -24.333 -65.001 -33c-4 -1.33301 -7.16699 -1.33301 -9.5 0s-3.83301 3.66602 -4.5 6.99902l-15 44c-2.66699 6 0 10.667 8 14c24.667 10.667 44.5 23.334 59.5 38.001s26.667 30.834 35 48.501s14 36.5 17 56.5s4.5 41 4.5 63v461
c0 5.33301 1.16699 8.83301 3.5 10.5s5.83301 2.5 10.5 2.5h47c5.33301 0 8.83301 -0.833008 10.5 -2.5s2.5 -5.16699 2.5 -10.5v-451z" />
    <glyph glyph-name="k" unicode="k" horiz-adv-x="482" 
d="M141 255l220 262c2 2.66699 4 4.66699 6 6s5.33301 2 10 2h64c3.33301 0 5.33301 -1.33301 6 -4s0 -5 -2 -7l-135 -162l157 -342c1.33301 -2 1.5 -4.16699 0.5 -6.5s-3.5 -3.5 -7.5 -3.5h-54c-9.33301 -0 -15.333 3.33301 -18 10l-128 283l-123 -143v-137
c0 -5.33301 -0.833008 -8.83301 -2.5 -10.5s-5.16699 -2.5 -10.5 -2.5h-46c-4.66699 -0 -8.16699 0.833008 -10.5 2.5s-3.5 5.16699 -3.5 10.5v705c0 5.33301 1.16699 8.83301 3.5 10.5s5.83301 2.5 10.5 2.5h46c5.33301 0 8.83301 -0.833008 10.5 -2.5
s2.5 -5.16699 2.5 -10.5v-461z" />
    <glyph glyph-name="l" unicode="l" horiz-adv-x="256" 
d="M239 17c0.666992 -5.33301 0.5 -8.83301 -0.5 -10.5s-3.83301 -3.5 -8.5 -5.5c-11.333 -4.66699 -23.333 -7.66699 -36 -9s-24 -2 -34 -2c-32 0 -54.167 7.83301 -66.5 23.5s-18.5 39.5 -18.5 71.5v633c0 5.33301 1 8.83301 3 10.5s5.66699 2.5 11 2.5h46
c5.33301 0 9 -0.833008 11 -2.5s3 -5.16699 3 -10.5v-611c0 -19.333 2.5 -32.833 7.5 -40.5s14.833 -11.5 29.5 -11.5c6.66699 0 13 0.333008 19 1s11.667 1.33398 17 2.00098c7.33301 1.33301 11.333 -1.33398 12 -8.00098l5 -33v0z" />
    <glyph glyph-name="m" unicode="m" horiz-adv-x="881" 
d="M601 536c40.667 0 74.667 -5.82812 102 -17.4951s49.333 -28.167 66 -49.5s28.5 -46.833 35.5 -76.5s10.5 -62.834 10.5 -99.501v-281c0 -5.33301 -0.833008 -8.66602 -2.5 -9.99902s-5.16699 -2 -10.5 -2h-45c-5.33301 0 -9 0.666992 -11 2s-3 4.66602 -3 9.99902v266
c0 66 -11 114.667 -33 146s-61.333 47 -118 47c-10 0 -21.333 -1 -34 -3s-25.5 -4.83301 -38.5 -8.5s-25.667 -7.83398 -38 -12.501s-23.5 -10 -33.5 -16c9.33301 -18.667 15.666 -39.834 18.999 -63.501s5 -51.5 5 -83.5v-272c0 -5.33301 -1 -8.66602 -3 -9.99902
s-5.66699 -2 -11 -2h-45c-4.66699 0 -8 0.666992 -10 2s-3 4.66602 -3 9.99902v274c0 30 -2.5 56.5 -7.5 79.5s-13.5 42.333 -25.5 58s-28.333 27.5 -49 35.5s-47 12 -79 12c-8 0 -20.667 -0.5 -38 -1.5s-37.666 -3.83301 -60.999 -8.5v-448
c0 -5.33301 -1 -8.83301 -3 -10.5s-5.66699 -2.5 -11 -2.5h-45c-4.66699 0 -8.16699 0.833008 -10.5 2.5s-3.5 5.16699 -3.5 10.5v447c0 38 18 60 54 66c8 1.33301 17 2.66602 27 3.99902s20.333 2.5 31 3.5s21 1.66699 31 2s18.667 0.5 26 0.5
c40.667 0 74.5 -4.5 101.5 -13.5s50.833 -23.5 71.5 -43.5h1c25.333 17.333 54.5 31.166 87.5 41.499s67.5 15.5 103.5 15.5z" />
    <glyph glyph-name="n" unicode="n" horiz-adv-x="555" 
d="M490 13c0 -5.33301 -0.999023 -8.83203 -2.99902 -10.499s-5.66699 -2.5 -11 -2.5h-46c-4.66699 0 -8.16699 0.833008 -10.5 2.5s-3.5 5.16699 -3.5 10.5v267c0 32 -2.5 60 -7.5 84s-13.833 43.833 -26.5 59.5s-30.167 27.5 -52.5 35.5s-50.5 12 -84.5 12
c-8 0 -22 -0.5 -42 -1.5s-41.667 -3.83301 -65 -8.5v-448c0 -5.33301 -1 -8.83301 -3 -10.5s-5.66699 -2.5 -11 -2.5h-45c-4.66699 0 -8.16699 0.833008 -10.5 2.5s-3.5 5.16699 -3.5 10.5v447c0 38 18 60 54 66c8 1.33301 17.833 2.66602 29.5 3.99902s23.667 2.5 36 3.5
s24.333 1.66699 36 2s21.5 0.5 29.5 0.5c42.667 0 79.167 -4.66699 109.5 -14s55.166 -24 74.499 -44s33.5 -46 42.5 -78s13.5 -70.667 13.5 -116v-271v0z" />
    <glyph glyph-name="o" unicode="o" horiz-adv-x="550" 
d="M505 265c0 -89.333 -20 -157.666 -60 -204.999s-97.333 -71 -172 -71c-74 0 -130.5 23.167 -169.5 69.5s-58.5 114.166 -58.5 203.499c0 44 5.66699 83.167 17 117.5s27.333 63 48 86s45 40.5 73 52.5s59 18 93 18c74.667 0 131.5 -23.833 170.5 -71.5
s58.5 -114.167 58.5 -199.5zM431 262c0 27.333 -2.33398 53.8311 -7.00098 79.498s-12.667 48.334 -24 68.001s-27.166 35.334 -47.499 47.001s-45.833 17.5 -76.5 17.5c-28 0 -52 -5.66699 -72 -17s-36.333 -26.5 -49 -45.5s-22 -41.167 -28 -66.5s-9 -52 -9 -80
c0 -31.333 2.66699 -60 8 -86s14 -48.667 26 -68s28 -34.333 48 -45s44.667 -16 74 -16c30 0 55.167 6.16699 75.5 18.5s36.5 28.5 48.5 48.5s20.5 42.667 25.5 68s7.5 51 7.5 77z" />
    <glyph glyph-name="p" unicode="p" horiz-adv-x="551" 
d="M506 264c0 -38.667 -4.66992 -74.667 -14.0029 -108s-23.666 -62.333 -42.999 -87s-43.5 -44.167 -72.5 -58.5s-62.833 -21.5 -101.5 -21.5c-19.333 0 -40.666 1.33301 -63.999 4s-47.666 7.66699 -72.999 15v-199c0 -5.33301 -0.833008 -8.66602 -2.5 -9.99902
s-5.16699 -2 -10.5 -2h-46c-4.66699 0 -8.16699 0.666992 -10.5 2s-3.5 4.66602 -3.5 9.99902v675c0 8 3.66699 13.333 11 16c32 14 65.5 23.5 100.5 28.5s68.5 7.5 100.5 7.5c39.333 0 73.5 -6.66699 102.5 -20s52.833 -32 71.5 -56s32.5 -52.667 41.5 -86
s13.5 -70 13.5 -110zM429.997 264c0 39.333 -3.99902 72.332 -11.999 98.999s-19.333 48.167 -34 64.5s-32 28 -52 35s-42.333 10.5 -67 10.5c-18 0 -39.167 -1.83301 -63.5 -5.5s-45.5 -9.16699 -63.5 -16.5v-378c28 -9.33301 52.167 -15.166 72.5 -17.499
s38.166 -3.5 53.499 -3.5c24 0 46.167 3.83301 66.5 11.5s37.833 20 52.5 37s26.167 39 34.5 66s12.5 59.5 12.5 97.5z" />
    <glyph glyph-name="q" unicode="q" horiz-adv-x="552" 
d="M45 256c0 40 4.66602 77.167 13.999 111.5s23.833 64 43.5 89s44.5 44.5 74.5 58.5s65.667 21 107 21c30 0 61.833 -2.33301 95.5 -7s65.834 -13.334 96.501 -26.001c7.33301 -2.66699 11 -8.33398 11 -17.001v-679c0 -5.33301 -1 -8.83301 -3 -10.5
s-5.66699 -2.5 -11 -2.5h-46c-5.33301 0 -9 0.833008 -11 2.5s-3 5.16699 -3 10.5v206c-10.667 -3.33301 -22.167 -6.5 -34.5 -9.5s-25 -5.5 -38 -7.5s-25.667 -3.66699 -38 -5s-23.5 -2 -33.5 -2c-39.333 0 -73 6.66699 -101 20s-51.167 31.833 -69.5 55.5
s-31.833 51.834 -40.5 84.501s-13 68.334 -13 107.001zM412.999 454c-21.333 7.33301 -43.499 12.334 -66.499 15.001s-43.167 4 -60.5 4c-24 0 -46.167 -4 -66.5 -12s-37.833 -20.5 -52.5 -37.5s-26.167 -39 -34.5 -66s-12.5 -59.167 -12.5 -96.5
c0 -68.667 13.833 -120.5 41.5 -155.5s66.5 -52.5 116.5 -52.5c13.333 0 32.666 1.66699 57.999 5s51 9.66602 77 18.999v377z" />
    <glyph glyph-name="r" unicode="r" horiz-adv-x="408" 
d="M376 413c-3.33301 -3.33301 -6 -4.83203 -8 -4.49902s-4.33301 1.5 -7 3.5c-18.667 17.333 -40.167 31.333 -64.5 42s-51.5 16 -81.5 16c-9.33301 0 -19.833 -0.333008 -31.5 -1s-24.167 -2.66699 -37.5 -6v-450c0 -5.33301 -1 -8.83301 -3 -10.5s-5.66699 -2.5 -11 -2.5
h-45c-4.66699 0 -8 0.833008 -10 2.5s-3 5.16699 -3 10.5v451c0 20.667 3.5 36 10.5 46s21.167 16.667 42.5 20c30 4 57.667 6 83 6c78 0 143.333 -23 196 -69c4.66699 -4.66699 5 -9.33398 1 -14.001z" />
    <glyph glyph-name="s" unicode="s" horiz-adv-x="454" 
d="M417 138c0 -24.667 -4.65918 -46.3359 -13.9922 -65.0029s-22.333 -34.167 -39 -46.5s-36.334 -21.666 -59.001 -27.999s-47.334 -9.5 -74.001 -9.5c-30.667 0 -63.167 3 -97.5 9s-64.833 16 -91.5 30c-3.33301 1.33301 -5.83301 3.5 -7.5 6.5s-1.16699 6.83301 1.5 11.5
l16 34c3.33301 8 9.66602 10.333 18.999 7c26.667 -12.667 54.167 -21.834 82.5 -27.501s54.166 -8.5 77.499 -8.5c34 0 61.667 7 83 21s32 35 32 63c0 26.667 -11.333 47.667 -34 63s-54.667 30.666 -96 45.999c-28.667 10 -53 20 -73 30s-36.333 20.833 -49 32.5
s-21.834 24.5 -27.501 38.5s-8.5 30.667 -8.5 50c0 40.667 15 74.334 45 101.001s73.333 40 130 40c27.333 0 53.666 -2.16699 78.999 -6.5s50.666 -11.833 75.999 -22.5c7.33301 -3.33301 9.66602 -9 6.99902 -17l-16 -39c-2 -3.33301 -4 -5.16602 -6 -5.49902
s-4.66699 0.166992 -8 1.5c-25.333 10 -48.333 17 -69 21s-42.334 6 -65.001 6c-30.667 0 -55.167 -7 -73.5 -21s-27.5 -32 -27.5 -54c0 -12.667 2.33301 -23.5 7 -32.5s12 -17.167 22 -24.5s23 -14.5 39 -21.5s35.333 -14.5 58 -22.5c22 -8 42.667 -16.667 62 -26
s36.333 -20.166 51 -32.499s26.334 -26.666 35.001 -42.999s13 -35.833 13 -58.5z" />
    <glyph glyph-name="t" unicode="t" horiz-adv-x="361" 
d="M32 466c-5.33301 0 -8.66602 1.16602 -9.99902 3.49902s-2 5.16602 -2 8.49902v24c0 4.66699 0.666992 8 2 10s4.66602 3.66699 9.99902 5l79 13l14 97c0.666992 6 2 10 4 12s5.66699 4 11 6l27 10c9.33301 2 14 -1.66699 14 -11v-119h117
c5.33301 0 8.66602 -1.16699 9.99902 -3.5s2 -5.5 2 -9.5v-34c0 -4 -0.666992 -7 -2 -9s-4.66602 -3 -9.99902 -3h-117v-337c0 -24.667 5 -43.167 15 -55.5s29.333 -18.5 58 -18.5c8 0 19.667 0.666992 35 2s29.333 3.33301 42 6c5.33301 0.666992 8.66602 0.5 9.99902 -0.5
s2.33301 -3.16699 3 -6.5l8 -38c0.666992 -3.33301 0.833984 -6.16602 0.500977 -8.49902s-2.83301 -4.5 -7.5 -6.5c-18.667 -5.33301 -38 -8.83301 -58 -10.5s-34.667 -2.5 -44 -2.5c-25.333 0 -46.666 2.66699 -63.999 8s-31.333 13.5 -42 24.5
s-18.334 24.833 -23.001 41.5s-7 36.334 -7 59.001v343h-75z" />
    <glyph glyph-name="u" unicode="u" horiz-adv-x="549" 
d="M65 513c0 5.33301 0.999023 8.83203 2.99902 10.499s5.66699 2.5 11 2.5h45c5.33301 0 9 -0.833008 11 -2.5s3 -5.16699 3 -10.5v-272c0 -32.667 2 -60.667 6 -84s12 -42.5 24 -57.5s28.833 -26.167 50.5 -33.5s50.167 -11 85.5 -11c8 0 21.833 0.5 41.5 1.5
s41.167 3.83301 64.5 8.5v448c0 5.33301 1 8.83301 3 10.5s5.66699 2.5 11 2.5h46c4.66699 0 8.16699 -0.833008 10.5 -2.5s3.5 -5.16699 3.5 -10.5v-448c0 -37.333 -18.333 -59.333 -55 -66c-9.33301 -1.33301 -19.833 -2.66602 -31.5 -3.99902s-23.5 -2.33301 -35.5 -3
s-23.5 -1.16699 -34.5 -1.5s-20.5 -0.5 -28.5 -0.5c-43.333 0 -79.833 4.33301 -109.5 13s-53.667 22.667 -72 42s-31.666 44.5 -39.999 75.5s-12.5 69.167 -12.5 114.5v278v0z" />
    <glyph glyph-name="v" unicode="v" horiz-adv-x="477" 
d="M300 35c-5.33301 -14 -10.5 -24 -15.5 -30s-14.167 -9 -27.5 -9h-33c-11.333 0 -20.166 2.5 -26.499 7.5s-12.166 15.167 -17.499 30.5l-169 482c-2.66699 6 -0.333984 9 6.99902 9h56c4 0 6.66699 -0.666992 8 -2s2.66602 -3.33301 3.99902 -6l105 -300l48 -152h5
l46 150l102 302c1.33301 5.33301 5.33301 8 12 8h55c6 0 8.33301 -3 7 -9z" />
    <glyph glyph-name="w" unicode="w" horiz-adv-x="705" 
d="M351 417l-41.9971 -150.999l-74 -233c-3.33301 -11.333 -7.83301 -20.333 -13.5 -27s-15.167 -10 -28.5 -10h-32c-10.667 0 -19.334 2.5 -26.001 7.5s-11.667 15.833 -15 32.5l-109 481c-2 6.66699 0.333008 10 7 10h56c4 0 6.66699 -0.666992 8 -2
s2.66602 -3.66602 3.99902 -6.99902l65 -314l26 -128h5l36 120l81 273c2.66699 8.66699 6.83398 16.5 12.501 23.5s15.5 10.5 29.5 10.5h26c12.667 0 21.167 -3.33301 25.5 -10s8.16602 -15.334 11.499 -26.001l79 -258l41 -139h5l27 139l64 309
c1.33301 3.33301 2.66602 5.66602 3.99902 6.99902s4 2 8 2h55c6.66699 0 9 -3.33301 7 -10l-109 -481c-3.33301 -16.667 -9 -27.5 -17 -32.5s-17 -7.5 -27 -7.5h-29c-13.333 0 -22.833 2.5 -28.5 7.5s-10.5 14.833 -14.5 29.5l-73 236l-42 148h-3z" />
    <glyph glyph-name="x" unicode="x" horiz-adv-x="454" 
d="M269 282l176.002 -270c1.33301 -2 2 -4.5 2 -7.5s-2.66699 -4.5 -8 -4.5h-61c-6.66699 -0 -11 0.833008 -13 2.5s-4 4.16699 -6 7.5l-133 217l-137 -216c-2 -3.33301 -4.33301 -6 -7 -8s-6.66699 -3 -12 -3h-54c-8.66699 -0 -10.667 4.33301 -6 13l175 266l-151 233
c-1.33301 2 -2 4.66699 -2 8s2.66699 5 8 5h56c5.33301 0 9.33301 -0.833008 12 -2.5s5 -4.16699 7 -7.5l114 -184l115 184c2 3.33301 4.16699 5.83301 6.5 7.5s6.16602 2.5 11.499 2.5h54c5.33301 0 8.16602 -1.5 8.49902 -4.5s-0.166992 -5.16699 -1.5 -6.5z" />
    <glyph glyph-name="y" unicode="y" horiz-adv-x="479" 
d="M262 -88c-15.333 -45.333 -34.1641 -76.8359 -56.4971 -94.5029s-51.166 -26.5 -86.499 -26.5c-9.33301 0 -20.833 0.5 -34.5 1.5s-28.834 4.16699 -45.501 9.5c-9.33301 2.66699 -13 7.66699 -11 15l10 37c1.33301 4.66699 3.16602 7.33398 5.49902 8.00098
s5.5 0.333984 9.5 -0.999023c14 -3.33301 24.5 -5.5 31.5 -6.5s14.5 -1.5 22.5 -1.5c10.667 0 20.334 0.833008 29.001 2.5s16.5 5 23.5 10s13.5 12 19.5 21s11.333 20.833 16 35.5l30 82h-17c-7.33301 0 -14 1.33301 -20 4s-11.333 11 -16 25l-160 482
c-2 6.66699 0.333008 10 7 10h55c4.66699 0 7.66699 -0.666992 9 -2s2.66602 -3.66602 3.99902 -6.99902l20.5 -63l28.5 -85.5l28 -85.5c8.66699 -27.333 15.667 -48.333 21 -63c2 -5.33301 5.16699 -15.833 9.5 -31.5l14.5 -50.5l15 -51c4.66699 -16 8 -26.667 10 -32h5
l14.5 45l17 53.5l15 47.5c4.33301 14 7.16602 22.667 8.49902 26c2 4.66699 6.16699 16.5 12.5 35.5l23.5 69.5l31 89l34 95c1.33301 3.33301 2.66602 5.83301 3.99902 7.5s4.33301 2.5 9 2.5h52c7.33301 0 10 -3.33301 8 -10z" />
    <glyph glyph-name="z" unicode="z" horiz-adv-x="452" 
d="M397 525c24.667 0 37 -11.334 37 -34.001v-12c0 -6 -1 -12.333 -3 -19s-5.66699 -13 -11 -19l-320 -379l1 -2h320c6 0 9.83301 -1.16699 11.5 -3.5s2.5 -5.16602 2.5 -8.49902v-35c0 -8.66699 -4.66699 -13 -14 -13h-370c-12.667 -0 -21.5 2.83301 -26.5 8.5
s-7.5 12.834 -7.5 21.501v12c0 7.33301 1 14.666 3 21.999s6.33301 14.666 13 21.999l317 376v3h-293c-5.33301 0 -8.83301 0.833008 -10.5 2.5s-2.5 4.83398 -2.5 9.50098v35c0 4 0.833008 7.16699 2.5 9.5s5.16699 3.5 10.5 3.5h340z" />
    <glyph glyph-name="braceleft" unicode="{" horiz-adv-x="347" 
d="M289 -90c0 -5.33301 -2.66602 -8.00098 -7.99902 -8.00098c-20.667 0.666992 -40.334 4 -59.001 10s-35 15.167 -49 27.5s-25.167 28 -33.5 47s-12.5 42.167 -12.5 69.5v142c0 32.667 -4.66699 57.334 -14 74.001s-24.666 27.667 -45.999 33
c-3.33301 1.33301 -5.83301 2.66602 -7.5 3.99902s-2.5 4 -2.5 8v33c0 6.66699 3.66699 11 11 13c21.333 5.33301 36.5 16.333 45.5 33s13.5 41 13.5 73v99c0 55.333 13.5 95.833 40.5 121.5s64.5 39.167 112.5 40.5c4 0 6.5 -0.666992 7.5 -2s1.5 -3.33301 1.5 -6v-40
c0 -3.33301 -0.5 -5.83301 -1.5 -7.5s-3.5 -2.5 -7.5 -2.5c-28 -1.33301 -48.167 -9.83301 -60.5 -25.5s-18.5 -33.834 -18.5 -54.501v-120c0 -32 -5.5 -60 -16.5 -84s-28.5 -41.667 -52.5 -53v-3c21.333 -9.33301 38.166 -25 50.499 -47s18.5 -49.333 18.5 -82v-160
c0 -21.333 6.5 -39.666 19.5 -54.999s32.833 -24 59.5 -26c4 0 6.5 -0.666992 7.5 -2s1.5 -3.66602 1.5 -6.99902v-43v0z" />
    <glyph glyph-name="bar" unicode="|" horiz-adv-x="206" 
d="M140 -123c0 -5.33301 -1 -8.83301 -3 -10.5s-5.66699 -2.5 -11 -2.5h-45c-4.66699 0 -8.16699 0.833008 -10.5 2.5s-3.5 5.16699 -3.5 10.5v888c0 5.33301 1.16699 8.83301 3.5 10.5s5.83301 2.5 10.5 2.5h45c5.33301 0 9 -0.833008 11 -2.5s3 -5.16699 3 -10.5v-888v0z
" />
    <glyph glyph-name="braceright" unicode="}" horiz-adv-x="347" 
d="M289 317c0 -4 -0.833984 -6.66895 -2.50098 -8.00195s-4.16699 -2.66602 -7.5 -3.99902c-21.333 -5.33301 -36.833 -16.5 -46.5 -33.5s-14.5 -41.5 -14.5 -73.5v-131c0 -54.667 -14 -95.5 -42 -122.5s-65 -41.167 -111 -42.5c-6 0 -9 2.66699 -9 8v43
c0 5.33301 3.33301 8.33301 10 9c28.667 3.33301 48.834 13.333 60.501 30s17.5 36.667 17.5 60v151c0 32.667 6.16699 60 18.5 82s29.166 37.667 50.499 47v3c-21.333 11.333 -38.166 27.5 -50.499 48.5s-18.5 47.5 -18.5 79.5v122c0 22 -6.16699 41.5 -18.5 58.5
s-32.5 26.5 -60.5 28.5c-6 0 -9 3.33301 -9 10v40c0 5.33301 3.33301 8 10 8c23.333 -0.666992 44.5 -4 63.5 -10s35 -15.5 48 -28.5s23 -29.667 30 -50s10.5 -44.833 10.5 -73.5v-99c0 -32.667 4.66699 -57.167 14 -73.5s24.333 -27.166 45 -32.499
c8 -2 12 -6.33301 12 -13v-33v0z" />
    <glyph glyph-name="asciitilde" unicode="~" horiz-adv-x="583" 
d="M516 316c-16.667 -28 -34.833 -48.501 -54.5 -61.501s-43.167 -19.5 -70.5 -19.5c-16.667 0 -33.667 3.5 -51 10.5s-34.5 14.667 -51.5 23s-33.667 16 -50 23s-31.833 10.5 -46.5 10.5c-18.667 0 -34.667 -4.33301 -48 -13s-25.666 -19.667 -36.999 -33
c-5.33301 -6.66699 -10.666 -7.66699 -15.999 -3l-22 18c-6 4.66699 -7 9.66699 -3 15c20.667 28 41.5 47.5 62.5 58.5s42.5 16.5 64.5 16.5c16.667 0 34 -3.66699 52 -11s35.833 -15.166 53.5 -23.499l51.5 -23.5c16.667 -7.33301 32 -11 46 -11
c17.333 0 31.166 4.83301 41.499 14.5s21.166 23.167 32.499 40.5c4 6 9.66699 6.66699 17 2l25 -16c6.66699 -4 8 -9.66699 4 -17z" />
    <glyph glyph-name="exclamdown" unicode="&#xa1;" horiz-adv-x="263" 
d="M109 320c0.666992 9.33301 6.66699 14 18 14h18c10 0 15 -4 15 -12l16 -493c0.666992 -3.33301 0 -6.5 -2 -9.5s-5.66699 -4.5 -11 -4.5h-57c-5.33301 0 -9 1.5 -11 4.5s-3 6.16699 -3 9.5zM77 468c0 16 5.49902 29.667 16.499 41s24.5 17 40.5 17
c16.667 0 30.334 -5.5 41.001 -16.5s16 -24.833 16 -41.5c0 -15.333 -5.5 -28.5 -16.5 -39.5s-24.5 -16.5 -40.5 -16.5s-29.5 5.33301 -40.5 16s-16.5 24 -16.5 40z" />
    <glyph glyph-name="cent" unicode="&#xa2;" horiz-adv-x="583" 
d="M338 -107c0 -7.33301 -3.66797 -11.001 -11.001 -11.001h-18c-6.66699 0 -10 3.66699 -10 11v97c-138.667 8 -208 96.667 -208 266c0 81.333 18.5 146 55.5 194s87.833 75.667 152.5 83v98c0 7.33301 3.33301 11 10 11h18c7.33301 0 11 -3.66699 11 -11v-95
c24 -1.33301 47.167 -4.66602 69.5 -9.99902s44.166 -13.666 65.499 -24.999c5.33301 -3.33301 8 -6.66602 8 -9.99902c0 -2.66699 -1 -5.33398 -3 -8.00098l-17 -35c-2.66699 -4.66699 -5.66699 -7 -9 -7c-1.33301 0 -4 0.666992 -8 2
c-15.333 7.33301 -31.833 13.333 -49.5 18s-36.5 7.66699 -56.5 9v-418c20.667 1.33301 41.334 4.66602 62.001 9.99902s38.667 12 54 20c2.66699 2 5.33398 3 8.00098 3c4 0 7 -2.66699 9 -8l16 -35c2 -3.33301 3 -6 3 -8c0 -3.33301 -2.33301 -6.33301 -7 -9
c-22 -12 -45.333 -20.667 -70 -26s-49.667 -8.33301 -75 -9v-97zM164.999 256.999c0 -26.667 2.16797 -51.499 6.50098 -74.499s11.666 -43.5 21.999 -61.5s24 -32.833 41 -44.5s38.5 -19.167 64.5 -22.5v413c-24 -4 -44.5 -12.5 -61.5 -25.5s-30.833 -28.833 -41.5 -47.5
s-18.5 -39.834 -23.5 -63.501s-7.5 -48.167 -7.5 -73.5z" />
    <glyph glyph-name="sterling" unicode="&#xa3;" horiz-adv-x="583" 
d="M348 678c26 0 52.667 -2.49805 80 -7.49805s51.666 -13.167 72.999 -24.5c3.33301 -1.33301 5.66602 -3.5 6.99902 -6.5s0.666016 -6.83301 -2.00098 -11.5l-16 -32c-3.33301 -6.66699 -9.33301 -8.33398 -18 -5.00098c-16 7.33301 -35.667 13.166 -59 17.499
s-44.666 6.5 -63.999 6.5s-37.333 -2.16699 -54 -6.5s-31.167 -11 -43.5 -20s-22 -20.5 -29 -34.5s-10.5 -30.333 -10.5 -49c0 -8 1 -17.667 3 -29s4.16699 -23 6.5 -35s4.83301 -23.667 7.5 -35s4.66699 -21.333 6 -30h199c5.33301 0 8.66602 -1 9.99902 -3
s2 -5.66699 2 -11v-27c0 -5.33301 -0.666992 -9.16602 -2 -11.499s-4.66602 -3.5 -9.99902 -3.5h-192c1.33301 -8 2.16602 -16.667 2.49902 -26s0.5 -18.666 0.5 -27.999c0 -16 -1 -32.833 -3 -50.5s-5.33301 -35.334 -10 -53.001s-11.334 -34.667 -20.001 -51
s-20 -31.166 -34 -44.499h334c5.33301 0 8.66602 -1.16699 9.99902 -3.5s2 -5.83301 2 -10.5v-39c0 -5.33301 -0.666992 -9 -2 -11s-4.66602 -3 -9.99902 -3h-408c-11.333 0 -19.166 2 -23.499 6s-6.5 9.66699 -6.5 17v14c0 10.667 2 18.5 6 23.5s10 11.167 18 18.5
c30.667 28 50.667 57.667 60 89s14 62.333 14 93v25.5c0 10.333 -0.666992 21.5 -2 33.5h-85c-5.33301 0 -8.83301 1.16699 -10.5 3.5s-2.5 6.16602 -2.5 11.499v27c0 5.33301 0.833008 9 2.5 11s5.16699 3 10.5 3h77c-1.33301 8 -3.16602 17.167 -5.49902 27.5
s-5 21.166 -8 32.499s-5.5 22.5 -7.5 33.5s-3 21.167 -3 30.5c0 31.333 5.33301 58.166 16 80.499s25.334 40.833 44.001 55.5s40.834 25.334 66.501 32.001s53.5 10 83.5 10z" />
    <glyph glyph-name="currency" unicode="&#xa4;" horiz-adv-x="521" 
d="M68 294c0 44 12.999 82.666 38.999 115.999l-49 49c-5.33301 5.33301 -5.66602 11 -0.999023 17l25 25c6 6 11.333 6 16 0l50 -51c15.333 11.333 32.5 20.166 51.5 26.499s38.833 9.5 59.5 9.5c21.333 0 41.5 -3.16699 60.5 -9.5s36.167 -15.166 51.5 -26.499l54 53
c6 6 12 6.33301 18 1l24 -25c3.33301 -3.33301 5 -6.33301 5 -9s-1.66699 -5.66699 -5 -9l-54 -53c12 -16 21.5 -33.667 28.5 -53s10.5 -39.666 10.5 -60.999c0 -22 -3.5 -42.833 -10.5 -62.5s-16.5 -37.5 -28.5 -53.5l52 -51c8 -6.66699 8.66699 -13 2 -19l-23 -25
c-6.66699 -4.66699 -13 -3.66699 -19 3l-53 52c-16 -11.333 -33.5 -20 -52.5 -26s-39.167 -9 -60.5 -9c-41.333 0 -77.333 10.667 -108 32l-53 -54c-3.33301 -3.33301 -6.5 -5.33301 -9.5 -6s-6.16699 1 -9.5 5l-25 23c-4.66699 6 -3.66699 12.333 3 19l52 52
c-27.333 33.333 -41 73.333 -41 120zM135.999 292.999c0 -17.333 3.16602 -33.5 9.49902 -48.5s15.166 -28 26.499 -39s24.333 -19.667 39 -26s30.667 -9.5 48 -9.5s33.5 3.16699 48.5 9.5s28.167 15 39.5 26s20.333 24 27 39s10 31.167 10 48.5
c0 16.667 -3.16699 32.5 -9.5 47.5s-15.166 28.167 -26.499 39.5s-24.5 20.166 -39.5 26.499s-31.167 9.5 -48.5 9.5s-33.5 -3.16699 -48.5 -9.5s-28.167 -15.166 -39.5 -26.499s-20.166 -24.5 -26.499 -39.5s-9.5 -30.833 -9.5 -47.5z" />
    <glyph glyph-name="yen" unicode="&#xa5;" horiz-adv-x="583" 
d="M90 300c-8.66699 0 -13 4.66699 -13 14v24c0 4.66699 0.833008 8.16699 2.5 10.5s5.16699 3.5 10.5 3.5h122l-155 310c-1.33301 2 -1.5 4.16699 -0.5 6.5s3.5 3.5 7.5 3.5h57c4 0 7.16699 -0.5 9.5 -1.5s4.5 -3.83301 6.5 -8.5l89 -183l63 -138h3l61 138l86 183
c2.66699 6.66699 8 10 16 10h57c3.33301 0 5.33301 -1.16699 6 -3.5s0.666992 -4.5 0 -6.5l-154 -310h135c8.66699 0 13 -4.66699 13 -14v-24c0 -9.33301 -4.33301 -14 -13 -14h-409zM499 242c8.66699 0 13 -4.66699 13 -14v-24c0 -9.33301 -4.33301 -14 -13 -14h-173v-178
c0 -5.33301 -0.833008 -8.66602 -2.5 -9.99902s-5.16699 -2 -10.5 -2h-47c-4.66699 0 -8 0.666992 -10 2s-3 4.66602 -3 9.99902v178h-163c-8.66699 0 -13 4.66699 -13 14v24c0 4.66699 0.833008 8.16699 2.5 10.5s5.16699 3.5 10.5 3.5h409z" />
    <glyph glyph-name="brokenbar" unicode="&#xa6;" horiz-adv-x="206" 
d="M140 -123c0 -5.33301 -1 -8.83301 -3 -10.5s-5.66699 -2.5 -11 -2.5h-45c-4.66699 0 -8.16699 0.833008 -10.5 2.5s-3.5 5.16699 -3.5 10.5v405c0 5.33301 1.16699 8.83301 3.5 10.5s5.83301 2.5 10.5 2.5h45c5.33301 0 9 -0.833008 11 -2.5s3 -5.16699 3 -10.5v-405z
M140 356c0 -5.33301 -1 -8.66602 -3 -9.99902s-5.66699 -2 -11 -2h-45c-4.66699 0 -8.16699 0.666992 -10.5 2s-3.5 4.66602 -3.5 9.99902v406c0 5.33301 1.16699 8.66602 3.5 9.99902s5.83301 2 10.5 2h45c5.33301 0 9 -0.666992 11 -2s3 -4.66602 3 -9.99902v-406z" />
    <glyph glyph-name="section" unicode="&#xa7;" horiz-adv-x="547" 
d="M266 407l-41.002 32.499c-12.667 9.66699 -22.667 18.167 -30 25.5c-17.333 -10.667 -31.333 -24 -42 -40s-16 -32.667 -16 -50c0 -13.333 3.33301 -26 10 -38s16.334 -24.667 29.001 -38s28.167 -27.666 46.5 -42.999l63.5 -52l40 -32.5l36 -28.5
c14.667 10 26.667 22.5 36 37.5s14 30.167 14 45.5c0 16 -3.33301 31 -10 45s-16.167 28 -28.5 42s-27.666 28.5 -45.999 43.5zM441.998 10.999c0 -18.667 -4.16699 -36.498 -12.5 -53.498s-20.666 -32 -36.999 -45s-36.666 -23.333 -60.999 -31s-52.5 -11.5 -84.5 -11.5
c-21.333 0 -44.833 2.16699 -70.5 6.5s-48.5 11.166 -68.5 20.499c-7.33301 4 -9.33301 9.66699 -6 17l16 31c2.66699 6.66699 7.66699 8.33398 15 5.00098c15.333 -6 33.333 -11.167 54 -15.5s39.667 -6.5 57 -6.5c43.333 0 74.333 8.16699 93 24.5s28 35.5 28 57.5
c0 21.333 -11 43.333 -33 66s-48.333 46 -79 70l-68.5 53.5c-22.333 17.667 -42.333 35.834 -60 54.501s-31.834 37.667 -42.501 57s-16 39.666 -16 60.999c0 24 7.5 48.333 22.5 73s35.167 45 60.5 61c-11.333 12.667 -20.333 26.5 -27 41.5s-10 30.167 -10 45.5
c0 19.333 3.66699 37.833 11 55.5s18.5 33 33.5 46s34.167 23.333 57.5 31s51 11.5 83 11.5c22 0 45.833 -2 71.5 -6s48.167 -10.333 67.5 -19c3.33301 -2 5.5 -4.16699 6.5 -6.5s0.5 -5.5 -1.5 -9.5l-15 -32c-2.66699 -6.66699 -8 -8.33398 -16 -5.00098
c-14.667 5.33301 -31.834 10 -51.501 14s-38.167 6 -55.5 6c-43.333 0 -74.333 -7.33301 -93 -22s-28 -33.334 -28 -56.001c0 -23.333 11.5 -45.5 34.5 -66.5s52.167 -45.167 87.5 -72.5l71 -57c22 -18 41 -36 57 -54s28.667 -36.333 38 -55s14 -38.667 14 -60
c0 -23.333 -7.5 -46.833 -22.5 -70.5s-35.167 -43.5 -60.5 -59.5c12 -14.667 21.833 -30.167 29.5 -46.5s11.5 -32.5 11.5 -48.5z" />
    <glyph glyph-name="dieresis" unicode="&#xa8;" horiz-adv-x="549" 
d="M399 670c0 -13.333 -4.83301 -24.666 -14.5 -33.999s-20.5 -14 -32.5 -14c-13.333 0 -24.666 4.66699 -33.999 14s-14 20.666 -14 33.999c0 12 4.66699 22.667 14 32s20.666 14 33.999 14c12 0 22.833 -4.5 32.5 -13.5s14.5 -19.833 14.5 -32.5zM223 670
c0 -13.333 -4.83301 -24.666 -14.5 -33.999s-20.5 -14 -32.5 -14c-12.667 0 -23.834 4.66699 -33.501 14s-14.5 20.666 -14.5 33.999c0 12 4.83301 22.667 14.5 32s20.834 14 33.501 14c12 0 22.833 -4.66699 32.5 -14s14.5 -20 14.5 -32z" />
    <glyph glyph-name="copyright" unicode="&#xa9;" horiz-adv-x="813" 
d="M769 348c0 -51.333 -9.16699 -99 -27.5 -143s-43.666 -82 -75.999 -114s-70.5 -57.167 -114.5 -75.5s-91.667 -27.5 -143 -27.5s-99.166 9.16699 -143.499 27.5s-82.666 43.5 -114.999 75.5s-57.666 70 -75.999 114s-27.5 91.667 -27.5 143s9.16699 99.166 27.5 143.499
s43.666 82.666 75.999 114.999s70.666 57.666 114.999 75.999s92.166 27.5 143.499 27.5s99 -9.16699 143 -27.5s82.167 -43.666 114.5 -75.999s57.666 -70.666 75.999 -114.999s27.5 -92.166 27.5 -143.499zM727 348c0 46 -8.16699 88.833 -24.5 128.5
s-38.666 73.834 -66.999 102.501s-62 51.167 -101 67.5s-81.167 24.5 -126.5 24.5s-87.5 -8.16699 -126.5 -24.5s-72.833 -38.833 -101.5 -67.5s-51.167 -62.834 -67.5 -102.501s-24.5 -82.5 -24.5 -128.5s8.16699 -88.667 24.5 -128s38.833 -73.166 67.5 -101.499
s62.5 -50.666 101.5 -66.999s81.167 -24.5 126.5 -24.5s87.5 8.16699 126.5 24.5s72.667 38.666 101 66.999s50.666 62.166 66.999 101.499s24.5 82 24.5 128zM414 168c23.333 0 41.334 3.83301 54.001 11.5s23.667 15.167 33 22.5
c5.33301 5.33301 10.333 5.66602 15 0.999023l21 -18c6 -5.33301 6.66699 -10.333 2 -15c-31.333 -32 -73 -48 -125 -48c-28 0 -53 5.16699 -75 15.5s-40.667 25 -56 44s-27 41.833 -35 68.5s-12 56 -12 88c0 32.667 4.16699 62.334 12.5 89.001s20.166 49.5 35.499 68.5
s34 33.5 56 43.5s46.667 15 74 15c25.333 0 48.5 -3.83301 69.5 -11.5s39.167 -19.5 54.5 -35.5c4 -4.66699 4 -9 0 -13l-22 -21c-3.33301 -3.33301 -5.83301 -4.33301 -7.5 -3l-7.5 6c-12.667 10 -26 18 -40 24s-29.667 9 -47 9c-22 0 -41.167 -4.33301 -57.5 -13
s-29.833 -20.667 -40.5 -36s-18.5 -33.5 -23.5 -54.5s-7.5 -43.5 -7.5 -67.5s2.66699 -46.333 8 -67s13.333 -38.667 24 -54s24 -27.333 40 -36s35 -13 57 -13z" />
    <glyph glyph-name="ordfeminine" unicode="&#xaa;" horiz-adv-x="366" 
d="M176 261c-30 0 -54.668 3.16406 -74.001 9.49707s-34.666 14.5 -45.999 24.5s-19.166 21.667 -23.499 35s-6.5 27 -6.5 41c0 34 12.5 62.333 37.5 85s62.833 34 113.5 34h85v14c0 19.333 -5.33301 35 -16 47s-32.334 18 -65.001 18c-14.667 0 -30.667 -1.33301 -48 -4
s-32.333 -5.66699 -45 -9c-3.33301 -1.33301 -6.83301 -2.16602 -10.5 -2.49902s-6.16699 2.16699 -7.5 7.5l-8 27c-1.33301 4.66699 -1.5 7.83398 -0.5 9.50098s4.16699 3.83398 9.5 6.50098c15.333 6 34 10.5 56 13.5s42.667 4.5 62 4.5c46 0 79.833 -9.5 101.5 -28.5
s32.5 -47.167 32.5 -84.5v-206c0 -10 -4.33301 -16.667 -13 -20c-20 -8 -42 -13.667 -66 -17s-46.667 -5 -68 -5zM178.999 436.997c-7.33301 0 -16.333 -0.498047 -27 -1.49805s-20.667 -3.83301 -30 -8.5s-17.333 -11.334 -24 -20.001s-10 -20.667 -10 -36
c0 -12 2.5 -21.667 7.5 -29s11.5 -13.333 19.5 -18s17.333 -7.83398 28 -9.50098s21.667 -2.5 33 -2.5c7.33301 0 19.5 0.666992 36.5 2s33.167 4.33301 48.5 9v114h-82z" />
    <glyph glyph-name="guillemotleft" unicode="&#xab;" horiz-adv-x="471" 
d="M137 243l124 -192c3.33301 -5.33301 3.83301 -9.33301 1.5 -12s-6.16602 -4 -11.499 -4h-43c-9.33301 0 -15.666 1.16699 -18.999 3.5s-6.33301 6.16602 -9 11.499l-104 161c-2.66699 4.66699 -5.33398 10.167 -8.00098 16.5s-4 11.833 -4 16.5c0 7.33301 1.5 14 4.5 20
s6.16699 11.667 9.5 17l99 160c3.33301 4.66699 6.66602 8.33398 9.99902 11.001s9.33301 4 18 4h42c5.33301 0 9 -1.66699 11 -5s1.66699 -7.33301 -1 -12zM293 243l123.001 -192c3.33301 -5.33301 3.83301 -9.33301 1.5 -12s-6.16602 -4 -11.499 -4h-43
c-8.66699 0 -14.667 1.16699 -18 3.5s-6.33301 6.16602 -9 11.499l-104 161c-2.66699 4.66699 -5.33398 10.167 -8.00098 16.5s-4 11.833 -4 16.5c0 7.33301 1.5 14 4.5 20s6.16699 11.667 9.5 17l99 160c3.33301 4.66699 6.66602 8.33398 9.99902 11.001s9 4 17 4h42
c5.33301 0 9 -1.66699 11 -5s1.66699 -7.33301 -1 -12z" />
    <glyph glyph-name="logicalnot" unicode="&#xac;" horiz-adv-x="583" 
d="M65 308c-5.33301 0 -8.83301 1 -10.5 3s-2.5 5.66699 -2.5 11v44c0 4.66699 0.833008 8.16699 2.5 10.5s5.16699 3.5 10.5 3.5h452c5.33301 0 8.83301 -1.16699 10.5 -3.5s2.5 -5.83301 2.5 -10.5v-256c0 -5.33301 -1 -8.83301 -3 -10.5s-5.66699 -2.5 -11 -2.5h-46
c-5.33301 0 -9 0.833008 -11 2.5s-3 5.16699 -3 10.5v198h-391v0z" />
    <glyph glyph-name="sfthyphen" unicode="&#xad;" horiz-adv-x="355" 
d="M63 242c-5.33301 0 -8.83301 0.833008 -10.5 2.5s-2.5 5.16699 -2.5 10.5v58c0 4.66699 0.833008 8 2.5 10s5.16699 3 10.5 3h230c5.33301 0 8.66602 -1 9.99902 -3s2 -5.33301 2 -10v-58c0 -5.33301 -0.666992 -8.83301 -2 -10.5s-4.66602 -2.5 -9.99902 -2.5h-230v0z
" />
    <glyph glyph-name="registered" unicode="&#xae;" horiz-adv-x="550" 
d="M497 483c0 -31.333 -5.83301 -60.666 -17.5 -87.999s-27.5 -51 -47.5 -71s-43.5 -35.833 -70.5 -47.5s-55.5 -17.5 -85.5 -17.5c-32 0 -61.5 5.83301 -88.5 17.5s-50.5 27.5 -70.5 47.5s-35.667 43.667 -47 71s-17 56.666 -17 87.999c0 32 5.66699 61.667 17 89
s27 51.166 47 71.499s43.5 36.333 70.5 48s56.5 17.5 88.5 17.5c31.333 0 60.5 -5.83301 87.5 -17.5s50.333 -27.667 70 -48s35.167 -44.166 46.5 -71.499s17 -57 17 -89zM461 483c0 26.667 -4.66602 51.834 -13.999 75.501s-22.333 44 -39 61s-36.334 30.5 -59.001 40.5
s-47 15 -73 15c-26.667 0 -51.5 -5 -74.5 -15s-42.833 -23.5 -59.5 -40.5s-29.667 -37.333 -39 -61s-14 -48.834 -14 -75.501s4.66699 -51.5 14 -74.5s22.333 -43 39 -60s36.5 -30.5 59.5 -40.5s47.833 -15 74.5 -15c26 0 50.333 5 73 15s42.167 23.5 58.5 40.5
s29.333 37 39 60s14.5 47.833 14.5 74.5zM219.001 356c0 -6 -3.33203 -9.00098 -9.99902 -9.00098h-20c-5.33301 0 -8 3 -8 9v246c0 7.33301 1.5 12.833 4.5 16.5s8.5 5.5 16.5 5.5h90c26 0 46.667 -7.33301 62 -22s23 -33.667 23 -57c0 -14 -3.83301 -27.167 -11.5 -39.5
s-17.834 -22.166 -30.501 -29.499c10 -4 17.167 -9.5 21.5 -16.5s7.5 -15.167 9.5 -24.5l23 -77c1.33301 -2 1.5 -4.33301 0.5 -7s-3.83301 -4 -8.5 -4h-21c-5.33301 0 -8.33301 2.66699 -9 8l-22 74c-4 14.667 -10.5 24.5 -19.5 29.5s-19.833 7.5 -32.5 7.5h-58v-110z
M339.002 543.999c0 11.333 -4 21.667 -12 31s-21 14 -39 14h-69v-91h67c18 0 31.333 4.33301 40 13s13 19.667 13 33z" />
    <glyph glyph-name="macron" unicode="&#xaf;" horiz-adv-x="323" 
d="M44 585c-5.33301 0 -8.83301 1 -10.5 3s-2.5 5.66699 -2.5 11v32c0 5.33301 0.833008 9 2.5 11s5.16699 3 10.5 3h237c5.33301 0 8.66602 -1 9.99902 -3s2 -5.66699 2 -11v-32c0 -5.33301 -0.666992 -9 -2 -11s-4.66602 -3 -9.99902 -3h-237v0z" />
    <glyph glyph-name="degree" unicode="&#xb0;" horiz-adv-x="369" 
d="M322 561c0 -20.667 -3.5 -39.334 -10.5 -56.001s-16.667 -31 -29 -43s-27 -21.333 -44 -28s-35.167 -10 -54.5 -10s-37.5 3.33301 -54.5 10s-31.667 16 -44 28s-22 26.333 -29 43s-10.5 35.334 -10.5 56.001c0 20 3.5 38.333 10.5 55s16.833 31 29.5 43
s27.5 21.333 44.5 28s35.167 10 54.5 10s37.333 -3.33301 54 -10s31.167 -16 43.5 -28s22 -26.333 29 -43s10.5 -35 10.5 -55zM276 561c0 26 -8.83203 47.833 -26.499 65.5s-39.167 26.5 -64.5 26.5c-26 0 -47.667 -8.83301 -65 -26.5s-26 -39.5 -26 -65.5
c0 -27.333 8.66699 -49.833 26 -67.5s38.666 -26.5 63.999 -26.5c26 0 47.833 8.83301 65.5 26.5s26.5 40.167 26.5 67.5z" />
    <glyph glyph-name="plusminus" unicode="&#xb1;" horiz-adv-x="583" 
d="M66 -1c-5.33301 0 -8.83301 1 -10.5 3s-2.5 5 -2.5 9v48c0 4 0.833008 6.83301 2.5 8.5s5.16699 2.5 10.5 2.5h452c5.33301 0 8.66602 -0.833008 9.99902 -2.5s2 -4.5 2 -8.5v-48c0 -4 -0.666992 -7 -2 -9s-4.66602 -3 -9.99902 -3h-452zM69 335
c-5.33301 0 -8.83301 1 -10.5 3s-2.5 5.66699 -2.5 11v43c0 5.33301 0.833008 9 2.5 11s5.16699 3 10.5 3h190v198c0 5.33301 1 8.83301 3 10.5s5.33301 2.5 10 2.5h47c5.33301 0 8.83301 -0.833008 10.5 -2.5s2.5 -5.16699 2.5 -10.5v-198h189
c5.33301 0 8.66602 -1 9.99902 -3s2 -5.66699 2 -11v-43c0 -5.33301 -0.666992 -9 -2 -11s-4.66602 -3 -9.99902 -3h-189v-198c0 -5.33301 -0.833008 -8.66602 -2.5 -9.99902s-5.16699 -2 -10.5 -2h-47c-4.66699 0 -8 0.666992 -10 2s-3 4.66602 -3 9.99902v198h-190z" />
    <glyph glyph-name="twosuperior" unicode="&#xb2;" horiz-adv-x="379" 
d="M89 358c-17.333 0 -30.833 2.5 -40.5 7.5s-14.5 16.5 -14.5 34.5c0 13.333 4.33301 28.833 13 46.5s22.667 35.834 42 54.501c16.667 16 34.167 30.333 52.5 43s35.166 23.667 50.499 33c26.667 15.333 46.334 28.5 59.001 39.5s19 24.5 19 40.5
c0 19.333 -8.33301 33.5 -25 42.5s-37.667 13.5 -63 13.5c-16 0 -32.167 -2.66699 -48.5 -8s-32.166 -12.666 -47.499 -21.999c-4 -2.66699 -8 -4.5 -12 -5.5s-7.33301 1.16699 -10 6.5c-1.33301 1.33301 -4 5.5 -8 12.5s-6.33301 11.167 -7 12.5c-4 6.66699 -2 13 6 19
c18 11.333 38.333 20.666 61 27.999s45.334 11 68.001 11c20.667 0 40 -2.16699 58 -6.5s33.667 -11 47 -20s24 -20.167 32 -33.5s12 -29 12 -47c0 -28.667 -9.83301 -53 -29.5 -73s-46.167 -39.333 -79.5 -58c-10.667 -6 -22.334 -13.167 -35.001 -21.5
s-24.834 -17.5 -36.501 -27.5s-22 -20.833 -31 -32.5s-15.5 -23.834 -19.5 -36.501h217c7.33301 0 11.5 -1 12.5 -3s1.5 -5.33301 1.5 -10v-26c0 -3.33301 -0.5 -6.5 -1.5 -9.5s-5.16699 -4.5 -12.5 -4.5h-230v0z" />
    <glyph glyph-name="threesuperior" unicode="&#xb3;" horiz-adv-x="379" 
d="M262 573c23.333 -7.33301 40.8311 -19.833 52.498 -37.5s17.5 -37.167 17.5 -58.5c0 -36 -14 -65.833 -42 -89.5s-67.667 -35.5 -119 -35.5c-25.333 0 -50.5 2.66699 -75.5 8s-46.5 14.666 -64.5 27.999c-7.33301 6 -8.66602 12.333 -3.99902 19l16 24
c3.33301 3.33301 6.33301 5 9 5s6.66699 -1.33301 12 -4c14 -8.66699 30.667 -15.334 50 -20.001s37.666 -7 54.999 -7c34 0 59.167 7 75.5 21s24.5 31.667 24.5 53c0 18.667 -7.83301 34.334 -23.5 47.001s-38.5 19 -68.5 19h-19c-6.66699 0 -12 1.33301 -16 4s-6 8 -6 16
v14c0 7.33301 2 12.5 6 15.5s9 4.5 15 4.5h14c25.333 0 46 5.16699 62 15.5s24 25.5 24 45.5c0 10.667 -2.66699 19.334 -8 26.001s-12 12 -20 16s-16.833 6.83301 -26.5 8.5s-19.167 2.5 -28.5 2.5c-17.333 0 -34.333 -2.16699 -51 -6.5s-32.667 -10.166 -48 -17.499
c-5.33301 -3.33301 -9.5 -5.33301 -12.5 -6s-5.83301 1.33301 -8.5 6l-14 25c-2 3.33301 -3 6.33301 -3 9s2.33301 5.66699 7 9c19.333 12 41.333 21 66 27s49 9 73 9c18.667 0 36.334 -2.16699 53.001 -6.5s31.334 -10.833 44.001 -19.5s22.5 -19.5 29.5 -32.5
s10.5 -27.833 10.5 -44.5c0 -19.333 -5 -36.833 -15 -52.5s-24.333 -27.834 -43 -36.501v-3z" />
    <glyph glyph-name="acute" unicode="&#xb4;" horiz-adv-x="442" 
d="M203 599c-3.33301 1.33301 -5.49805 2.66797 -6.49805 4.00098s-0.166992 4.66602 2.5 9.99902l65 149c1.33301 3.33301 3.16602 6 5.49902 8s6.16602 2.66699 11.499 2l59 -15c10 -2 12 -6.66699 6 -14l-101 -147c-4.66699 -6.66699 -10.667 -8.66699 -18 -6z" />
    <glyph glyph-name="mu" unicode="&#xb5;" horiz-adv-x="549" 
d="M65 513c0 5.33301 0.998047 8.83301 2.99805 10.5s5.66699 2.5 11 2.5h45c5.33301 0 9 -0.833008 11 -2.5s3 -5.16699 3 -10.5v-351c0 -18 1.83301 -33.667 5.5 -47s11.334 -24.5 23.001 -33.5s28.5 -15.667 50.5 -20s51 -6.5 87 -6.5c11.333 0 25.833 0.333008 43.5 1
s38.5 3.66699 62.5 9v448c0 5.33301 1 8.83301 3 10.5s5.66699 2.5 11 2.5h46c4.66699 0 8.16699 -0.833008 10.5 -2.5s3.5 -5.16699 3.5 -10.5v-447c0 -37.333 -18.333 -59.333 -55 -66c-19.333 -3.33301 -40.833 -5.83301 -64.5 -7.5s-46.167 -2.5 -67.5 -2.5
c-32.667 0 -63.667 2.5 -93 7.5s-51.666 13.167 -66.999 24.5v-213c0 -5.33301 -1 -8.66602 -3 -9.99902s-5.66699 -2 -11 -2h-44c-4.66699 0 -8.16699 0.666992 -10.5 2s-3.5 4.66602 -3.5 9.99902v704v0z" />
    <glyph glyph-name="mu" unicode="&#x3bc;" horiz-adv-x="549" 
d="M65 513c0 5.33301 0.998047 8.83301 2.99805 10.5s5.66699 2.5 11 2.5h45c5.33301 0 9 -0.833008 11 -2.5s3 -5.16699 3 -10.5v-351c0 -18 1.83301 -33.667 5.5 -47s11.334 -24.5 23.001 -33.5s28.5 -15.667 50.5 -20s51 -6.5 87 -6.5c11.333 0 25.833 0.333008 43.5 1
s38.5 3.66699 62.5 9v448c0 5.33301 1 8.83301 3 10.5s5.66699 2.5 11 2.5h46c4.66699 0 8.16699 -0.833008 10.5 -2.5s3.5 -5.16699 3.5 -10.5v-447c0 -37.333 -18.333 -59.333 -55 -66c-19.333 -3.33301 -40.833 -5.83301 -64.5 -7.5s-46.167 -2.5 -67.5 -2.5
c-32.667 0 -63.667 2.5 -93 7.5s-51.666 13.167 -66.999 24.5v-213c0 -5.33301 -1 -8.66602 -3 -9.99902s-5.66699 -2 -11 -2h-44c-4.66699 0 -8.16699 0.666992 -10.5 2s-3.5 4.66602 -3.5 9.99902v704v0z" />
    <glyph glyph-name="paragraph" unicode="&#xb6;" horiz-adv-x="484" 
d="M231 345c-26 0 -50 4.50098 -72 13.501s-41 21.5 -57 37.5s-28.333 34.667 -37 56s-13 44.666 -13 69.999c0 24.667 4.5 47.834 13.5 69.501s21.5 40.667 37.5 57s34.833 29.166 56.5 38.499s45.5 14 71.5 14h86c6 0 9 -2.66699 9 -8v-339c0 -6 -3 -9 -9 -9h-86z
M430 47.001c0 -29.333 -2.5 -55.333 -7.5 -78s-14.167 -42 -27.5 -58s-31.833 -29 -55.5 -39s-54.167 -16.333 -91.5 -19c-6 0 -9.33301 2.66699 -10 8l-3 37c-1.33301 6.66699 1 10.667 7 12c28.667 3.33301 51.667 8.83301 69 16.5s30.5 17.167 39.5 28.5s15 24.5 18 39.5
s4.5 32.167 4.5 51.5v647c0 5.33301 3.33301 8 10 8h38c6 0 9 -2.66699 9 -8v-646z" />
    <glyph glyph-name="periodcentered" unicode="&#xb7;" horiz-adv-x="257" 
d="M188 296c0 -17.333 -5.66699 -31.833 -17 -43.5s-25.666 -17.5 -42.999 -17.5s-31.666 5.66699 -42.999 17s-17 26 -17 44c0 16.667 5.66699 30.667 17 42s25.666 17 42.999 17s31.666 -5.5 42.999 -16.5s17 -25.167 17 -42.5z" />
    <glyph glyph-name="cedilla" unicode="&#xb8;" horiz-adv-x="483" 
d="M277 -54c36.667 -2 62.3301 -10.835 76.9971 -26.502s22 -32.5 22 -50.5c0 -9.33301 -2 -18.666 -6 -27.999s-10 -17.666 -18 -24.999s-18.333 -13.5 -31 -18.5s-28 -7.5 -46 -7.5c-17.333 0 -33.666 1.66699 -48.999 5s-27.666 7.33301 -36.999 12
c-6.66699 2.66699 -8.66699 7.33398 -6 14.001l7 18c2 4.66699 4.16699 7 6.5 7s5.16602 -0.666992 8.49902 -2c10 -4 20.5 -7 31.5 -9s21.167 -3 30.5 -3c19.333 0 33.333 3.5 42 10.5s13 16.167 13 27.5c0 13.333 -6.16699 23.333 -18.5 30s-27.166 10 -44.499 10h-13.5
c-4.33301 0 -7.16602 0.666992 -8.49902 2c-5.33301 1.33301 -8 4.16602 -8 8.49902s0.666992 8.83301 2 13.5l26 73c1.33301 3.33301 2.5 5.5 3.5 6.5s3.5 1.5 7.5 1.5h26c3.33301 0 5 -0.833008 5 -2.5s-0.333008 -3.16699 -1 -4.5l-21 -62v0z" />
    <glyph glyph-name="onesuperior" unicode="&#xb9;" horiz-adv-x="379" 
d="M309 372c0 -5.33301 -0.833008 -8.99707 -2.5 -10.9971s-6.16699 -3 -13.5 -3h-201c-6.66699 0 -10.834 1 -12.501 3s-2.5 5.66699 -2.5 11v26c0 5.33301 0.833008 8.83301 2.5 10.5s5.83398 2.5 12.501 2.5h69v292l-69 -12
c-4 -0.666992 -7.33301 -0.333984 -10 0.999023s-4 5 -4 11v22c0 5.33301 0.666992 9.16602 2 11.499s5 4.16602 11 5.49902l91 23c10 2.66699 19.333 2.5 28 -0.5s13 -10.5 13 -22.5v-331h70c7.33301 0 11.833 -0.833008 13.5 -2.5s2.5 -5.16699 2.5 -10.5v-26v0z" />
    <glyph glyph-name="ordmasculine" unicode="&#xba;" horiz-adv-x="379" 
d="M352 443c0 -58.667 -14 -103.832 -42 -135.499s-68.333 -47.5 -121 -47.5c-52 0 -92 15.5 -120 46.5s-42 75.833 -42 134.5s15.333 103.667 46 135s70 47 118 47c52 0 91.833 -15.833 119.5 -47.5s41.5 -75.834 41.5 -132.501zM289 441.002
c0 16.667 -1.50195 32.8359 -4.50195 48.5029s-8.16699 29.5 -15.5 41.5s-17.333 21.5 -30 28.5s-29 10.5 -49 10.5c-18 0 -33.333 -3.33301 -46 -10s-23.167 -15.834 -31.5 -27.501s-14.333 -25.167 -18 -40.5s-5.5 -31.666 -5.5 -48.999
c0 -18.667 1.66699 -35.834 5 -51.501s9 -29.334 17 -41.001s18.333 -20.834 31 -27.501s28.334 -10 47.001 -10c19.333 0 35.333 3.66699 48 11s22.834 17 30.501 29s13.167 25.667 16.5 41s5 31 5 47z" />
    <glyph glyph-name="guillemotright" unicode="&#xbb;" horiz-adv-x="471" 
d="M214 439c-2.66699 4.66699 -3.00098 8.66699 -1.00098 12s5.66699 5 11 5h42c8.66699 0 14.5 -1.33301 17.5 -4s6.16699 -6.33398 9.5 -11.001l100 -160l8.5 -17c3 -6 4.5 -12.667 4.5 -20c0 -4.66699 -1.33301 -10.167 -4 -16.5s-5.33398 -11.833 -8.00098 -16.5
l-103 -161c-3.33301 -5.33301 -6.66602 -9.16602 -9.99902 -11.499s-9.33301 -3.5 -18 -3.5h-43c-5.33301 0 -9.16602 1.33301 -11.499 4s-1.83301 6.66699 1.5 12l124 192zM57.999 439c-2.66699 4.66699 -3.00098 8.66699 -1.00098 12s5.66699 5 11 5h43
c8.66699 0 14.5 -1.33301 17.5 -4s6.16699 -6.33398 9.5 -11.001l100 -160l8.5 -17c3 -6 4.5 -12.667 4.5 -20c0 -4.66699 -1.33301 -10.167 -4 -16.5s-5.33398 -11.833 -8.00098 -16.5l-103 -161c-3.33301 -5.33301 -6.66602 -9.16602 -9.99902 -11.499
s-9.33301 -3.5 -18 -3.5h-44c-5.33301 0 -9.16602 1.33301 -11.499 4s-1.83301 6.66699 1.5 12l124 192z" />
    <glyph glyph-name="onequarter" unicode="&#xbc;" horiz-adv-x="880" 
d="M460 88c-7.33301 0.666992 -13.833 2.49609 -19.5 5.49609s-8.5 10.167 -8.5 21.5v10c0 6.66699 0.833008 12.167 2.5 16.5s5.16699 9.5 10.5 15.5l197 232c5.33301 6.66699 10.833 11.834 16.5 15.501s12.5 5.5 20.5 5.5h19c10 0 17.167 -2.16699 21.5 -6.5
s6.5 -12.166 6.5 -23.499v-240h44c6 0 9.66699 -1.16699 11 -3.5s2 -6.16602 2 -11.499v-21c0 -5.33301 -0.666992 -9.16602 -2 -11.499s-5 -3.5 -11 -3.5h-44v-76c0 -6 -1.33301 -9.66699 -4 -11s-7 -2 -13 -2h-29c-5.33301 0 -9.33301 0.666992 -12 2s-4 5 -4 11v75h-204z
M329 281.996c0 -5.33301 -0.833008 -8.99707 -2.5 -10.9971s-6.16699 -3 -13.5 -3h-201c-6.66699 0 -10.834 1 -12.501 3s-2.5 5.66699 -2.5 11v26c0 5.33301 0.833008 8.83301 2.5 10.5s5.83398 2.5 12.501 2.5h69v292l-69 -12
c-4 -0.666992 -7.33301 -0.333984 -10 0.999023s-4 5 -4 11v22c0 5.33301 0.666992 9.16602 2 11.499s5 4.16602 11 5.49902l91 23c10 2.66699 19.333 2.5 28 -0.5s13 -10.5 13 -22.5v-331h70c7.33301 0 11.833 -0.833008 13.5 -2.5s2.5 -5.16699 2.5 -10.5v-26z
M257 -11.001c-4.66699 -8 -10.668 -12.001 -18.001 -12.001h-26c-4 0 -7 0.833008 -9 2.5s-1.66699 4.83398 1 9.50098l409 698c3.33301 4.66699 5.83301 7.83398 7.5 9.50098s4.83398 2.5 9.50098 2.5h30c3.33301 0 6 -0.833008 8 -2.5s1.66699 -4.83398 -1 -9.50098z
M511.999 139.998h152l1 185l-2 1l-151 -182v-4z" />
    <glyph glyph-name="onehalf" unicode="&#xbd;" horiz-adv-x="880" 
d="M320 282c0 -5.33301 -0.833008 -8.99707 -2.5 -10.9971s-6.16699 -3 -13.5 -3h-201c-6.66699 0 -10.834 1 -12.501 3s-2.5 5.66699 -2.5 11v26c0 5.33301 0.833008 8.83301 2.5 10.5s5.83398 2.5 12.501 2.5h69v292l-69 -12
c-4 -0.666992 -7.33301 -0.333984 -10 0.999023s-4 5 -4 11v22c0 5.33301 0.666992 9.16602 2 11.499s5 4.16602 11 5.49902l91 23c10 2.66699 19.333 2.5 28 -0.5s13 -10.5 13 -22.5v-331h70c7.33301 0 11.833 -0.833008 13.5 -2.5s2.5 -5.16699 2.5 -10.5v-26z
M236 -10.9971c-4.66699 -8 -10.668 -12.001 -18.001 -12.001h-26c-4 0 -7 0.833008 -9 2.5s-1.66699 4.83398 1 9.50098l409 698c3.33301 4.66699 5.83301 7.83398 7.5 9.50098s4.83398 2.5 9.50098 2.5h30c3.33301 0 6 -0.833008 8 -2.5s1.66699 -4.83398 -1 -9.50098z
M546.999 0.00195312c-17.333 0 -30.832 2.50195 -40.499 7.50195s-14.5 16.167 -14.5 33.5c0 13.333 4.33301 28.833 13 46.5s22.667 35.834 42 54.501c16.667 16 34.167 30.333 52.5 43s35.166 23.667 50.499 33c26.667 15.333 46.334 28.5 59.001 39.5s19 24.833 19 41.5
c0 18.667 -8.33301 32.5 -25 41.5s-37.667 13.5 -63 13.5c-16 0 -32.167 -2.66699 -48.5 -8s-32.166 -12.333 -47.499 -21c-4 -3.33301 -8 -5.33301 -12 -6s-7.33301 1.66602 -10 6.99902c-1.33301 1.33301 -4 5.33301 -8 12s-6.33301 10.667 -7 12
c-2.66699 4.66699 -3.33398 8.33398 -2.00098 11.001s4 5.66699 8 9c18 11.333 38.333 20.5 61 27.5s45.334 10.5 68.001 10.5c20.667 0 40 -2.16699 58 -6.5s33.667 -11 47 -20s24 -20.167 32 -33.5s12 -29 12 -47c0 -28.667 -9.83301 -52.834 -29.5 -72.501
s-46.167 -38.834 -79.5 -57.501c-10.667 -6 -22.334 -13.167 -35.001 -21.5s-24.834 -17.5 -36.501 -27.5s-22 -20.833 -31 -32.5s-15.5 -23.834 -19.5 -36.501h217c7.33301 0 11.5 -1.16699 12.5 -3.5s1.5 -5.83301 1.5 -10.5v-26c0 -3.33301 -0.5 -6.33301 -1.5 -9
s-5.16699 -4 -12.5 -4h-230z" />
    <glyph glyph-name="threequarters" unicode="&#xbe;" horiz-adv-x="880" 
d="M494 88c-7.33301 0.666992 -13.833 2.49609 -19.5 5.49609s-8.5 10.167 -8.5 21.5v10c0 6.66699 0.833008 12.167 2.5 16.5s5.16699 9.5 10.5 15.5l197 232c5.33301 6.66699 10.833 11.834 16.5 15.501s12.5 5.5 20.5 5.5h19c10 0 17.167 -2.16699 21.5 -6.5
s6.5 -12.166 6.5 -23.499v-240h44c6 0 9.66699 -1.16699 11 -3.5s2 -6.16602 2 -11.499v-21c0 -5.33301 -0.666992 -9.16602 -2 -11.499s-5 -3.5 -11 -3.5h-44v-76c0 -6 -1.33301 -9.66699 -4 -11s-7 -2 -13 -2h-29c-5.33301 0 -9.33301 0.666992 -12 2s-4 5 -4 11v75h-204z
M302 482.996c23.333 -7.33301 40.8311 -19.833 52.498 -37.5s17.5 -37.167 17.5 -58.5c0 -36 -14 -65.833 -42 -89.5s-67.667 -35.5 -119 -35.5c-25.333 0 -50.5 2.66699 -75.5 8s-46.5 14.666 -64.5 27.999c-7.33301 6 -8.66602 12.333 -3.99902 19l16 24
c3.33301 3.33301 6.33301 5 9 5s6.66699 -1.33301 12 -4c14 -8.66699 30.667 -15.334 50 -20.001s37.666 -7 54.999 -7c34 0 59.167 7 75.5 21s24.5 31.667 24.5 53c0 18.667 -7.83301 34.334 -23.5 47.001s-38.5 19 -68.5 19h-19c-6.66699 0 -12 1.33301 -16 4s-6 8 -6 16
v14c0 7.33301 2 12.5 6 15.5s9 4.5 15 4.5h14c25.333 0 46 5.16699 62 15.5s24 25.5 24 45.5c0 10.667 -2.66699 19.334 -8 26.001s-12 12 -20 16s-16.833 6.83301 -26.5 8.5s-19.167 2.5 -28.5 2.5c-17.333 0 -34.333 -2.16699 -51 -6.5s-32.667 -10.166 -48 -17.499
c-5.33301 -3.33301 -9.5 -5.33301 -12.5 -6s-5.83301 1.33301 -8.5 6l-14 25c-2 3.33301 -3 6.33301 -3 9s2.33301 5.66699 7 9c19.333 12 41.333 21 66 27s49 9 73 9c18.667 0 36.334 -2.16699 53.001 -6.5s31.334 -10.833 44.001 -19.5s22.5 -19.5 29.5 -32.5
s10.5 -27.833 10.5 -44.5c0 -19.333 -5 -36.833 -15 -52.5s-24.333 -27.834 -43 -36.501v-3zM278.998 -11.0039c-4.66699 -8 -10.668 -12.001 -18.001 -12.001h-26c-4 0 -7 0.833008 -9 2.5s-1.66699 4.83398 1 9.50098l409 698
c3.33301 4.66699 5.83301 7.83398 7.5 9.50098s4.83398 2.5 9.50098 2.5h30c3.33301 0 6 -0.833008 8 -2.5s1.66699 -4.83398 -1 -9.50098zM545.997 139.995h152l1 185l-2 1l-151 -182v-4z" />
    <glyph glyph-name="questiondown" unicode="&#xbf;" horiz-adv-x="516" 
d="M268 -193c-32 0 -61.168 3.83301 -87.501 11.5s-49 18.834 -68 33.501s-33.833 33 -44.5 55s-16 47.333 -16 76c0 20 3.33301 38.333 10 55s15.5 32.334 26.5 47.001s23.333 28.334 37 41.001s27.5 24.667 41.5 36l37 31.5c12 10.333 22.667 21.166 32 32.499
s16.833 23.333 22.5 36s8.83398 26.334 9.50098 41.001v37c0 3.33301 0.833008 6.16602 2.5 8.49902s4.83398 3.5 9.50098 3.5h51c7.33301 0 11 -3.66699 11 -11v-40c0 -22.667 -4 -42.834 -12 -60.501s-18.167 -33.834 -30.5 -48.501s-26.333 -28.334 -42 -41.001
l-45.5 -37c-22.667 -18 -42.334 -37.5 -59.001 -58.5s-25 -45.167 -25 -72.5c0 -14.667 2.83301 -28.5 8.5 -41.5s14.167 -24.5 25.5 -34.5s25.833 -17.833 43.5 -23.5s38.5 -8.5 62.5 -8.5c25.333 0 52.5 4.33301 81.5 13s55.167 22.334 78.5 41.001
c8 5.33301 14.667 5 20 -1l23 -35c4 -6 2.66699 -12 -4 -18c-29.333 -23.333 -62.5 -40.5 -99.5 -51.5s-70.167 -16.5 -99.5 -16.5zM246.999 468c0 16.667 5.49902 30.5 16.499 41.5s25.167 16.5 42.5 16.5s31.5 -5.5 42.5 -16.5s16.5 -24.833 16.5 -41.5
s-5.83301 -30.667 -17.5 -42s-26.167 -17 -43.5 -17c-5.33301 0 -11.166 1 -17.499 3s-12.5 5.16699 -18.5 9.5s-11 10.333 -15 18s-6 17.167 -6 28.5z" />
    <glyph glyph-name="Agrave" unicode="&#xc0;" horiz-adv-x="605" 
d="M524 0c-5.33301 0 -9.49707 0.500977 -12.4971 1.50098s-5.5 4.83301 -7.5 11.5l-53 154h-297c-2 -4.66699 -5.5 -14.5 -10.5 -29.5l-16 -48l-16 -47.5c-5 -14.667 -8.5 -24.334 -10.5 -29.001c-2.66699 -8.66699 -8.66699 -13 -18 -13h-57
c-5.33301 0 -8.83301 1.66699 -10.5 5s-1.83398 7 -0.500977 11l231 651c5.33301 14 10.666 23.167 15.999 27.5s14.666 6.83301 27.999 7.5h26c15.333 0 25.666 -2.5 30.999 -7.5s10.333 -14.167 15 -27.5l228 -651c1.33301 -3.33301 1.33301 -6.83301 0 -10.5
s-4.66602 -5.5 -9.99902 -5.5h-56zM354.003 465.001l-49 152h-5l-48 -148l-77 -233h254zM329.003 751.001c-4.66699 -5.33301 -11 -6.33203 -19 -2.99902l-159 74c-7.33301 4 -8 9 -2 15l35 48c4 4.66699 7.5 6.66699 10.5 6s6.16699 -2.33398 9.5 -5.00098l137 -97
c6.66699 -4.66699 7.66699 -9.66699 3 -15z" />
    <glyph glyph-name="Aacute" unicode="&#xc1;" horiz-adv-x="605" 
d="M524 0c-5.33301 0 -9.49707 0.500977 -12.4971 1.50098s-5.5 4.83301 -7.5 11.5l-53 154h-297c-2 -4.66699 -5.5 -14.5 -10.5 -29.5l-16 -48l-16 -47.5c-5 -14.667 -8.5 -24.334 -10.5 -29.001c-2.66699 -8.66699 -8.66699 -13 -18 -13h-57
c-5.33301 0 -8.83301 1.66699 -10.5 5s-1.83398 7 -0.500977 11l231 651c5.33301 14 10.666 23.167 15.999 27.5s14.666 6.83301 27.999 7.5h26c15.333 0 25.666 -2.5 30.999 -7.5s10.333 -14.167 15 -27.5l228 -651c1.33301 -3.33301 1.33301 -6.83301 0 -10.5
s-4.66602 -5.5 -9.99902 -5.5h-56zM354.003 465.001l-49 152h-5l-48 -148l-77 -233h254zM266.003 774.001c-4 6 -3 11 3 15l137 97c3.33301 2.66699 6.5 4.33398 9.5 5.00098s6.16699 -1.33301 9.5 -6l36 -48c5.33301 -6.66699 4.66602 -11.667 -2.00098 -15l-159 -74
c-5.33301 -2 -9.16602 -2.83301 -11.499 -2.5s-4.83301 2.16602 -7.5 5.49902z" />
    <glyph glyph-name="Acircumflex" unicode="&#xc2;" horiz-adv-x="605" 
d="M524 0c-5.33301 0 -9.49707 0.500977 -12.4971 1.50098s-5.5 4.83301 -7.5 11.5l-53 154h-297c-2 -4.66699 -5.5 -14.5 -10.5 -29.5l-16 -48l-16 -47.5c-5 -14.667 -8.5 -24.334 -10.5 -29.001c-2.66699 -8.66699 -8.66699 -13 -18 -13h-57
c-5.33301 0 -8.83301 1.66699 -10.5 5s-1.83398 7 -0.500977 11l231 651c5.33301 14 10.666 23.167 15.999 27.5s14.666 6.83301 27.999 7.5h26c15.333 0 25.666 -2.5 30.999 -7.5s10.333 -14.167 15 -27.5l228 -651c1.33301 -3.33301 1.33301 -6.83301 0 -10.5
s-4.66602 -5.5 -9.99902 -5.5h-56zM354.003 465.001l-49 152h-5l-48 -148l-77 -233h254zM446.003 745.001c-2.66699 -3.33301 -5.33105 -4.50098 -7.99805 -3.50098s-6 2.5 -10 4.5l-127 70l-126 -71c-6.66699 -3.33301 -12.334 -2.66602 -17.001 2.00098l-14 16
c-4 5.33301 -3.66699 10 1 14l120 97c13.333 10.667 25.333 16 36 16c5.33301 0 11.166 -0.833008 17.499 -2.5s13.5 -6.16699 21.5 -13.5l117 -98c6 -5.33301 6.33301 -11 1 -17z" />
    <glyph glyph-name="Atilde" unicode="&#xc3;" horiz-adv-x="605" 
d="M524 0c-5.33301 0 -9.49707 0.500977 -12.4971 1.50098s-5.5 4.83301 -7.5 11.5l-53 154h-297c-2 -4.66699 -5.5 -14.5 -10.5 -29.5l-16 -48l-16 -47.5c-5 -14.667 -8.5 -24.334 -10.5 -29.001c-2.66699 -8.66699 -8.66699 -13 -18 -13h-57
c-5.33301 0 -8.83301 1.66699 -10.5 5s-1.83398 7 -0.500977 11l231 651c5.33301 14 10.666 23.167 15.999 27.5s14.666 6.83301 27.999 7.5h26c15.333 0 25.666 -2.5 30.999 -7.5s10.333 -14.167 15 -27.5l228 -651c1.33301 -3.33301 1.33301 -6.83301 0 -10.5
s-4.66602 -5.5 -9.99902 -5.5h-56zM354.003 465.001l-49 152h-5l-48 -148l-77 -233h254zM370.003 752.001c-12.667 0 -24.832 1.99609 -36.499 5.99609s-23 8.5 -34 13.5s-21.833 9.5 -32.5 13.5s-21.334 6 -32.001 6c-10 0 -19.5 -2.66699 -28.5 -8
s-16.167 -12.666 -21.5 -21.999c-2 -3.33301 -4.16699 -5.5 -6.5 -6.5s-5.83301 -0.166992 -10.5 2.5l-25 11c-4.66699 2 -7.66699 4 -9 6s-1 5 1 9c12 20 26.667 35.667 44 47s36.666 17 57.999 17c11.333 0 22.833 -2.16699 34.5 -6.5s23 -9 34 -14s21.5 -9.5 31.5 -13.5
s19.667 -6 29 -6c22.667 0 39.334 10 50.001 30c2 4.66699 3.83301 7.33398 5.5 8.00098s4.83398 0.333984 9.50098 -0.999023l29 -9c9.33301 -3.33301 12.333 -7.66602 9 -12.999c-12 -23.333 -25.833 -40.833 -41.5 -52.5s-34.834 -17.5 -57.501 -17.5z" />
    <glyph glyph-name="Adieresis" unicode="&#xc4;" horiz-adv-x="605" 
d="M524 0c-5.33301 0 -9.49707 0.500977 -12.4971 1.50098s-5.5 4.83301 -7.5 11.5l-53 154h-297c-2 -4.66699 -5.5 -14.5 -10.5 -29.5l-16 -48l-16 -47.5c-5 -14.667 -8.5 -24.334 -10.5 -29.001c-2.66699 -8.66699 -8.66699 -13 -18 -13h-57
c-5.33301 0 -8.83301 1.66699 -10.5 5s-1.83398 7 -0.500977 11l231 651c5.33301 14 10.666 23.167 15.999 27.5s14.666 6.83301 27.999 7.5h26c15.333 0 25.666 -2.5 30.999 -7.5s10.333 -14.167 15 -27.5l228 -651c1.33301 -3.33301 1.33301 -6.83301 0 -10.5
s-4.66602 -5.5 -9.99902 -5.5h-56zM354.003 465.001l-49 152h-5l-48 -148l-77 -233h254zM437.003 798.001c0 -13.333 -4.83301 -24.666 -14.5 -33.999s-20.5 -14 -32.5 -14c-13.333 0 -24.666 4.66699 -33.999 14s-14 20.666 -14 33.999c0 12 4.66699 22.667 14 32
s20.666 14 33.999 14c12 0 22.833 -4.5 32.5 -13.5s14.5 -19.833 14.5 -32.5zM261.003 798.001c0 -13.333 -4.83301 -24.666 -14.5 -33.999s-20.5 -14 -32.5 -14c-12.667 0 -23.834 4.66699 -33.501 14s-14.5 20.666 -14.5 33.999c0 12 4.83301 22.667 14.5 32
s20.834 14 33.501 14c12 0 22.833 -4.66699 32.5 -14s14.5 -20 14.5 -32z" />
    <glyph glyph-name="Aring" unicode="&#xc5;" horiz-adv-x="605" 
d="M524 0c-5.33301 0 -9.49707 0.500977 -12.4971 1.50098s-5.5 4.83301 -7.5 11.5l-53 154h-297c-2 -4.66699 -5.5 -14.5 -10.5 -29.5l-16 -48l-16 -47.5c-5 -14.667 -8.5 -24.334 -10.5 -29.001c-2.66699 -8.66699 -8.66699 -13 -18 -13h-57
c-5.33301 0 -8.83301 1.66699 -10.5 5s-1.83398 7 -0.500977 11l231 651c5.33301 14 10.666 23.167 15.999 27.5s14.666 6.83301 27.999 7.5h26c15.333 0 25.666 -2.5 30.999 -7.5s10.333 -14.167 15 -27.5l228 -651c1.33301 -3.33301 1.33301 -6.83301 0 -10.5
s-4.66602 -5.5 -9.99902 -5.5h-56zM354.003 465.001l-49 152h-5l-48 -148l-77 -233h254zM395.003 812.001c0 -25.333 -8.83203 -46.334 -26.499 -63.001s-39.5 -25 -65.5 -25c-25.333 0 -47 8.16699 -65 24.5s-27 37.5 -27 63.5c0 12.667 2.33301 24.334 7 35.001
s11.167 20 19.5 28s18.166 14.167 29.499 18.5s23.333 6.5 36 6.5c26 0 47.833 -8.33301 65.5 -25s26.5 -37.667 26.5 -63zM356.004 812c0 15.333 -5 27.833 -15 37.5s-22.667 14.5 -38 14.5s-28 -4.83301 -38 -14.5s-15 -22.167 -15 -37.5s5.16699 -27.833 15.5 -37.5
s22.833 -14.5 37.5 -14.5c15.333 0 28 4.83301 38 14.5s15 22.167 15 37.5z" />
    <glyph glyph-name="AE" unicode="&#xc6;" horiz-adv-x="841" 
d="M446 338v-180c0 -26 6.66699 -47.167 20 -63.5s37 -24.5 71 -24.5h255c5.33301 0 8.83301 -1 10.5 -3s2.5 -5.66699 2.5 -11v-43c0 -4.66699 -0.833008 -8 -2.5 -10s-5.16699 -3 -10.5 -3h-262c-30 0 -55.333 4.16699 -76 12.5s-37.334 20 -50.001 35
s-21.667 32.667 -27 53s-7.66602 42.833 -6.99902 67.5h-221l-52 -158c-2.66699 -6.66699 -7.66699 -10 -15 -10h-59c-8 0 -10.667 3 -8 9l196 572c13.333 40 32.333 70 57 90s59.667 30 105 30h410c5.33301 0 8.83301 -1.16699 10.5 -3.5s2.5 -5.83301 2.5 -10.5v-42
c0 -5.33301 -0.833008 -9 -2.5 -11s-5.16699 -3 -10.5 -3h-246c-32 0 -55.167 -7.33301 -69.5 -22s-21.5 -37 -21.5 -67v-137h307c5.33301 0 8.83301 -1 10.5 -3s2.5 -5.66699 2.5 -11v-39c0 -4.66699 -0.833008 -8.16699 -2.5 -10.5s-5.16699 -3.5 -10.5 -3.5h-307z
M168 231l201.999 -0.000976562v305c0 20.667 2 39.834 6 57.501s10.667 31.167 20 40.5c-35.333 0 -61.666 -4.66699 -78.999 -14s-30 -26 -38 -50l-25 -73z" />
    <glyph glyph-name="Ccedilla" unicode="&#xc7;" horiz-adv-x="588" 
d="M344 -54c36.667 -2 62.3281 -10.8369 76.9951 -26.5039s22 -32.5 22 -50.5c0 -9.33301 -2 -18.666 -6 -27.999s-10 -17.666 -18 -24.999s-18.333 -13.5 -31 -18.5s-28 -7.5 -46 -7.5c-17.333 0 -33.666 1.66699 -48.999 5s-27.666 7.33301 -36.999 12
c-6.66699 2.66699 -8.66699 7.33398 -6 14.001l7 18c2 4.66699 4.16699 7 6.5 7s5.16602 -0.666992 8.49902 -2c10 -4 20.5 -7 31.5 -9s21.167 -3 30.5 -3c19.333 0 33.333 3.5 42 10.5s13 16.167 13 27.5c0 13.333 -6.16699 23.333 -18.5 30s-27.166 10 -44.499 10h-13.5
c-4.33301 0 -7.16602 0.666992 -8.49902 2c-5.33301 1.33301 -8 4.16602 -8 8.49902s0.666992 8.83301 2 13.5l20 56c-82.667 5.33301 -147.167 36.333 -193.5 93s-69.5 142.334 -69.5 257.001c0 56.667 7.16699 107.834 21.5 153.501s34.666 84.5 60.999 116.5
s57.833 56.667 94.5 74s77.334 26 122.001 26c28.667 0 58.334 -2.66699 89.001 -8s63 -16.666 97 -33.999c3.33301 -1.33301 5.66602 -3.5 6.99902 -6.5s0.333008 -7.5 -3 -13.5l-19 -38c-2 -3.33301 -4 -5.66602 -6 -6.99902s-5.33301 -1 -10 1
c-25.333 12 -50.666 20.667 -75.999 26s-50.666 8 -75.999 8c-39.333 0 -73 -8.33301 -101 -25s-51 -38.667 -69 -66s-31.333 -59 -40 -95s-13 -73.333 -13 -112c0 -40 3.83301 -77 11.5 -111s20.5 -63.5 38.5 -88.5s41.5 -44.5 70.5 -58.5s64.5 -21 106.5 -21
c30 0 58.667 3.5 86 10.5s53.666 16.5 78.999 28.5c6.66699 2.66699 11.334 3 14.001 1s4.66699 -4.66699 6 -8l16 -35c3.33301 -6.66699 4.5 -11.334 3.5 -14.001s-3.5 -5.33398 -7.5 -8.00098c-32 -18.667 -65.833 -31 -101.5 -37s-68.5 -9.33301 -98.5 -10l-14 -43v0z
" />
    <glyph glyph-name="Egrave" unicode="&#xc8;" horiz-adv-x="567" 
d="M532 18c0 -6 -1 -10.5 -3 -13.5s-6.33301 -4.5 -13 -4.5h-278c-31.333 -0 -57.5 4.33301 -78.5 13s-37.667 20.5 -50 35.5s-21.166 32.5 -26.499 52.5s-8 41.333 -8 64v370c0 22.667 3 44.167 9 64.5s15.5 38 28.5 53s29.833 26.833 50.5 35.5s45.667 13 75 13h271
c6.66699 0 11 -1.5 13 -4.5s3 -7.5 3 -13.5v-35c0 -6.66699 -1 -11.167 -3 -13.5s-6.33301 -3.5 -13 -3.5h-270c-30.667 0 -52.834 -7 -66.501 -21s-20.5 -35.333 -20.5 -64v-140h325c6 0 10 -1.16699 12 -3.5s3 -6.83301 3 -13.5v-33c0 -5.33301 -1 -9.5 -3 -12.5
s-6 -4.5 -12 -4.5h-325v-184c0 -25.333 6.5 -45.666 19.5 -60.999s35.5 -23 67.5 -23h277c6.66699 0 11 -1.33301 13 -4s3 -7.33398 3 -14.001v-35zM366 751c-4.66699 -5.33301 -11 -6.33203 -19 -2.99902l-159 74c-7.33301 4 -8 9 -2 15l35 48
c4 4.66699 7.5 6.66699 10.5 6s6.16699 -2.33398 9.5 -5.00098l137 -97c6.66699 -4.66699 7.66699 -9.66699 3 -15z" />
    <glyph glyph-name="Eacute" unicode="&#xc9;" horiz-adv-x="567" 
d="M532 18c0 -6 -1 -10.5 -3 -13.5s-6.33301 -4.5 -13 -4.5h-278c-31.333 -0 -57.5 4.33301 -78.5 13s-37.667 20.5 -50 35.5s-21.166 32.5 -26.499 52.5s-8 41.333 -8 64v370c0 22.667 3 44.167 9 64.5s15.5 38 28.5 53s29.833 26.833 50.5 35.5s45.667 13 75 13h271
c6.66699 0 11 -1.5 13 -4.5s3 -7.5 3 -13.5v-35c0 -6.66699 -1 -11.167 -3 -13.5s-6.33301 -3.5 -13 -3.5h-270c-30.667 0 -52.834 -7 -66.501 -21s-20.5 -35.333 -20.5 -64v-140h325c6 0 10 -1.16699 12 -3.5s3 -6.83301 3 -13.5v-33c0 -5.33301 -1 -9.5 -3 -12.5
s-6 -4.5 -12 -4.5h-325v-184c0 -25.333 6.5 -45.666 19.5 -60.999s35.5 -23 67.5 -23h277c6.66699 0 11 -1.33301 13 -4s3 -7.33398 3 -14.001v-35zM260 774c-4 6 -3 11 3 15l137 97c3.33301 2.66699 6.5 4.33398 9.5 5.00098s6.16699 -1.33301 9.5 -6l36 -48
c5.33301 -6.66699 4.66602 -11.667 -2.00098 -15l-159 -74c-5.33301 -2 -9.16602 -2.83301 -11.499 -2.5s-4.83301 2.16602 -7.5 5.49902z" />
    <glyph glyph-name="Ecircumflex" unicode="&#xca;" horiz-adv-x="567" 
d="M532 18c0 -6 -1 -10.5 -3 -13.5s-6.33301 -4.5 -13 -4.5h-278c-31.333 -0 -57.5 4.33301 -78.5 13s-37.667 20.5 -50 35.5s-21.166 32.5 -26.499 52.5s-8 41.333 -8 64v370c0 22.667 3 44.167 9 64.5s15.5 38 28.5 53s29.833 26.833 50.5 35.5s45.667 13 75 13h271
c6.66699 0 11 -1.5 13 -4.5s3 -7.5 3 -13.5v-35c0 -6.66699 -1 -11.167 -3 -13.5s-6.33301 -3.5 -13 -3.5h-270c-30.667 0 -52.834 -7 -66.501 -21s-20.5 -35.333 -20.5 -64v-140h325c6 0 10 -1.16699 12 -3.5s3 -6.83301 3 -13.5v-33c0 -5.33301 -1 -9.5 -3 -12.5
s-6 -4.5 -12 -4.5h-325v-184c0 -25.333 6.5 -45.666 19.5 -60.999s35.5 -23 67.5 -23h277c6.66699 0 11 -1.33301 13 -4s3 -7.33398 3 -14.001v-35zM460 745c-2.66699 -3.33301 -5.33105 -4.50098 -7.99805 -3.50098s-6 2.5 -10 4.5l-127 70l-126 -71
c-6.66699 -3.33301 -12.334 -2.66602 -17.001 2.00098l-14 16c-4 5.33301 -3.66699 10 1 14l120 97c13.333 10.667 25.333 16 36 16c5.33301 0 11.166 -0.833008 17.499 -2.5s13.5 -6.16699 21.5 -13.5l117 -98c6 -5.33301 6.33301 -11 1 -17z" />
    <glyph glyph-name="Edieresis" unicode="&#xcb;" horiz-adv-x="567" 
d="M532 18c0 -6 -1 -10.5 -3 -13.5s-6.33301 -4.5 -13 -4.5h-278c-31.333 -0 -57.5 4.33301 -78.5 13s-37.667 20.5 -50 35.5s-21.166 32.5 -26.499 52.5s-8 41.333 -8 64v370c0 22.667 3 44.167 9 64.5s15.5 38 28.5 53s29.833 26.833 50.5 35.5s45.667 13 75 13h271
c6.66699 0 11 -1.5 13 -4.5s3 -7.5 3 -13.5v-35c0 -6.66699 -1 -11.167 -3 -13.5s-6.33301 -3.5 -13 -3.5h-270c-30.667 0 -52.834 -7 -66.501 -21s-20.5 -35.333 -20.5 -64v-140h325c6 0 10 -1.16699 12 -3.5s3 -6.83301 3 -13.5v-33c0 -5.33301 -1 -9.5 -3 -12.5
s-6 -4.5 -12 -4.5h-325v-184c0 -25.333 6.5 -45.666 19.5 -60.999s35.5 -23 67.5 -23h277c6.66699 0 11 -1.33301 13 -4s3 -7.33398 3 -14.001v-35zM454 799c0 -13.333 -4.83301 -24.666 -14.5 -33.999s-20.5 -14 -32.5 -14c-13.333 0 -24.666 4.66699 -33.999 14
s-14 20.666 -14 33.999c0 12 4.66699 22.667 14 32s20.666 14 33.999 14c12 0 22.833 -4.5 32.5 -13.5s14.5 -19.833 14.5 -32.5zM278 799c0 -13.333 -4.83301 -24.666 -14.5 -33.999s-20.5 -14 -32.5 -14c-12.667 0 -23.834 4.66699 -33.501 14s-14.5 20.666 -14.5 33.999
c0 12 4.83301 22.667 14.5 32s20.834 14 33.501 14c12 0 22.833 -4.66699 32.5 -14s14.5 -20 14.5 -32z" />
    <glyph glyph-name="Igrave" unicode="&#xcc;" horiz-adv-x="259" 
d="M168 13c0 -5.33301 -1 -8.83301 -3 -10.5s-5.66699 -2.5 -11 -2.5h-50c-5.33301 -0 -9 0.833008 -11 2.5s-3 5.16699 -3 10.5v674c0 5.33301 1 8.83301 3 10.5s5.66699 2.5 11 2.5h50c5.33301 0 9 -0.833008 11 -2.5s3 -5.16699 3 -10.5v-674zM147 751
c-4.66699 -5.33301 -11 -6.33203 -19 -2.99902l-159 74c-7.33301 4 -8 9 -2 15l35 48c4 4.66699 7.5 6.66699 10.5 6s6.16699 -2.33398 9.5 -5.00098l137 -97c6.66699 -4.66699 7.66699 -9.66699 3 -15z" />
    <glyph glyph-name="Iacute" unicode="&#xcd;" horiz-adv-x="259" 
d="M168 13c0 -5.33301 -1 -8.83301 -3 -10.5s-5.66699 -2.5 -11 -2.5h-50c-5.33301 -0 -9 0.833008 -11 2.5s-3 5.16699 -3 10.5v674c0 5.33301 1 8.83301 3 10.5s5.66699 2.5 11 2.5h50c5.33301 0 9 -0.833008 11 -2.5s3 -5.16699 3 -10.5v-674zM106 774c-4 6 -3 11 3 15
l137 97c3.33301 2.66699 6.5 4.33398 9.5 5.00098s6.16699 -1.33301 9.5 -6l36 -48c5.33301 -6.66699 4.66602 -11.667 -2.00098 -15l-159 -74c-5.33301 -2 -9.16602 -2.83301 -11.499 -2.5s-4.83301 2.16602 -7.5 5.49902z" />
    <glyph glyph-name="Icircumflex" unicode="&#xce;" horiz-adv-x="259" 
d="M168 13c0 -5.33301 -1 -8.83301 -3 -10.5s-5.66699 -2.5 -11 -2.5h-50c-5.33301 -0 -9 0.833008 -11 2.5s-3 5.16699 -3 10.5v674c0 5.33301 1 8.83301 3 10.5s5.66699 2.5 11 2.5h50c5.33301 0 9 -0.833008 11 -2.5s3 -5.16699 3 -10.5v-674zM276 745
c-2.66699 -3.33301 -5.33105 -4.50098 -7.99805 -3.50098s-6 2.5 -10 4.5l-127 70l-126 -71c-6.66699 -3.33301 -12.334 -2.66602 -17.001 2.00098l-14 16c-4 5.33301 -3.66699 10 1 14l120 97c13.333 10.667 25.333 16 36 16c5.33301 0 11.166 -0.833008 17.499 -2.5
s13.5 -6.16699 21.5 -13.5l117 -98c6 -5.33301 6.33301 -11 1 -17z" />
    <glyph glyph-name="Idieresis" unicode="&#xcf;" horiz-adv-x="259" 
d="M168 13c0 -5.33301 -1 -8.83301 -3 -10.5s-5.66699 -2.5 -11 -2.5h-50c-5.33301 -0 -9 0.833008 -11 2.5s-3 5.16699 -3 10.5v674c0 5.33301 1 8.83301 3 10.5s5.66699 2.5 11 2.5h50c5.33301 0 9 -0.833008 11 -2.5s3 -5.16699 3 -10.5v-674zM268 799
c0 -13.333 -4.83301 -24.666 -14.5 -33.999s-20.5 -14 -32.5 -14c-13.333 0 -24.666 4.66699 -33.999 14s-14 20.666 -14 33.999c0 12 4.66699 22.667 14 32s20.666 14 33.999 14c12 0 22.833 -4.5 32.5 -13.5s14.5 -19.833 14.5 -32.5zM92 799
c0 -13.333 -4.83301 -24.666 -14.5 -33.999s-20.5 -14 -32.5 -14c-12.667 0 -23.834 4.66699 -33.501 14s-14.5 20.666 -14.5 33.999c0 12 4.83301 22.667 14.5 32s20.834 14 33.501 14c12 0 22.833 -4.66699 32.5 -14s14.5 -20 14.5 -32z" />
    <glyph glyph-name="Eth" unicode="&#xd0;" horiz-adv-x="667" 
d="M122 0c-16.667 0 -28.667 3.50098 -36 10.501s-11 18.833 -11 35.5v281h-54c-5.33301 0 -8.83301 1 -10.5 3s-2.5 5.66699 -2.5 11v36c0 4.66699 0.833008 8 2.5 10s5.16699 3 10.5 3h54v264c0 15.333 3.33301 27 10 35s19 12 37 12l176 1c52 0 97.5 -8 136.5 -24
s71.667 -39.167 98 -69.5s46.166 -67 59.499 -110s20 -90.833 20 -143.5s-6.16699 -100.834 -18.5 -144.501s-31 -81 -56 -112s-56.667 -55.167 -95 -72.5s-83.166 -26 -134.499 -26h-186zM531 353.001c0 38 -3.99902 73.833 -11.999 107.5s-21.167 63.167 -39.5 88.5
s-42.833 45.333 -73.5 60s-68.334 22 -113.001 22h-139v-241h181c5.33301 0 8.83301 -1 10.5 -3s2.5 -5.33301 2.5 -10v-36c0 -5.33301 -0.833008 -9 -2.5 -11s-5.16699 -3 -10.5 -3h-181v-256h144c44 0 80.833 7.16699 110.5 21.5s53.5 34 71.5 59s31 54.667 39 89
s12 71.833 12 112.5z" />
    <glyph glyph-name="Ntilde" unicode="&#xd1;" horiz-adv-x="680" 
d="M151 591v-578.001c0 -5.33301 -1 -8.83301 -3 -10.5s-5.66699 -2.5 -11 -2.5h-48c-4.66699 0 -8.16699 0.833008 -10.5 2.5s-3.5 5.16699 -3.5 10.5v644c0 14.667 3 25.667 9 33s17.333 11 34 11h22c12.667 0 21.834 -2.66699 27.501 -8s12.5 -14.666 20.5 -27.999
l252 -412l85 -144h4v579c0 5.33301 1 8.83301 3 10.5s5.66699 2.5 11 2.5h48c4.66699 0 8.16699 -0.833008 10.5 -2.5s3.5 -5.16699 3.5 -10.5v-644c0 -14 -2.83301 -24.833 -8.5 -32.5s-16.834 -11.5 -33.501 -11.5h-23c-13.333 -0 -22.833 2.83301 -28.5 8.5
s-12.5 15.167 -20.5 28.5l-261 426l-76 128h-3zM425 760.999c-12.667 0 -24.832 1.99609 -36.499 5.99609s-23 8.5 -34 13.5s-21.833 9.5 -32.5 13.5s-21.334 6 -32.001 6c-10 0 -19.5 -2.66699 -28.5 -8s-16.167 -12.666 -21.5 -21.999
c-2 -3.33301 -4.16699 -5.5 -6.5 -6.5s-5.83301 -0.166992 -10.5 2.5l-25 11c-4.66699 2 -7.66699 4 -9 6s-1 5 1 9c12 20 26.667 35.667 44 47s36.666 17 57.999 17c11.333 0 22.833 -2.16699 34.5 -6.5s23 -9 34 -14s21.5 -9.5 31.5 -13.5s19.667 -6 29 -6
c22.667 0 39.334 10 50.001 30c2 4.66699 3.83301 7.33398 5.5 8.00098s4.83398 0.333984 9.50098 -0.999023l29 -9c9.33301 -3.33301 12.333 -7.66602 9 -12.999c-12 -23.333 -25.833 -40.833 -41.5 -52.5s-34.834 -17.5 -57.501 -17.5z" />
    <glyph glyph-name="Ograve" unicode="&#xd2;" horiz-adv-x="696" 
d="M641 352c0 -116.667 -24.834 -206.333 -74.501 -269s-123.167 -94 -220.5 -94c-49.333 0 -92.166 8.16699 -128.499 24.5s-66.5 40 -90.5 71s-42 68.833 -54 113.5s-18 95 -18 151c0 58 7.16699 109.5 21.5 154.5s34.333 82.833 60 113.5s56.5 54 92.5 70
s75.667 24 119 24c96.667 0 169.667 -31.667 219 -95s74 -151.333 74 -264zM561.999 349.001c0 38 -3.16699 74.666 -9.5 109.999s-17.5 66.5 -33.5 93.5s-37.667 48.667 -65 65s-62 24.5 -104 24.5c-38 0 -70.833 -7.83301 -98.5 -23.5s-50.334 -36.667 -68.001 -63
s-30.667 -57.166 -39 -92.499s-12.5 -72.333 -12.5 -111c0 -42 3.5 -80.833 10.5 -116.5s18.833 -66.667 35.5 -93s38.667 -47 66 -62s61.666 -22.5 102.999 -22.5c40.667 0 74.834 8 102.501 24s49.834 37.5 66.501 64.5s28.5 58 35.5 93s10.5 71.5 10.5 109.5z
M395.999 751c-4.66699 -5.33301 -11 -6.33203 -19 -2.99902l-159 74c-7.33301 4 -8 9 -2 15l35 48c4 4.66699 7.5 6.66699 10.5 6s6.16699 -2.33398 9.5 -5.00098l137 -97c6.66699 -4.66699 7.66699 -9.66699 3 -15z" />
    <glyph glyph-name="Oacute" unicode="&#xd3;" horiz-adv-x="696" 
d="M641 352c0 -116.667 -24.834 -206.333 -74.501 -269s-123.167 -94 -220.5 -94c-49.333 0 -92.166 8.16699 -128.499 24.5s-66.5 40 -90.5 71s-42 68.833 -54 113.5s-18 95 -18 151c0 58 7.16699 109.5 21.5 154.5s34.333 82.833 60 113.5s56.5 54 92.5 70
s75.667 24 119 24c96.667 0 169.667 -31.667 219 -95s74 -151.333 74 -264zM561.999 349.001c0 38 -3.16699 74.666 -9.5 109.999s-17.5 66.5 -33.5 93.5s-37.667 48.667 -65 65s-62 24.5 -104 24.5c-38 0 -70.833 -7.83301 -98.5 -23.5s-50.334 -36.667 -68.001 -63
s-30.667 -57.166 -39 -92.499s-12.5 -72.333 -12.5 -111c0 -42 3.5 -80.833 10.5 -116.5s18.833 -66.667 35.5 -93s38.667 -47 66 -62s61.666 -22.5 102.999 -22.5c40.667 0 74.834 8 102.501 24s49.834 37.5 66.501 64.5s28.5 58 35.5 93s10.5 71.5 10.5 109.5z
M300.999 774c-4 6 -3 11 3 15l137 97c3.33301 2.66699 6.5 4.33398 9.5 5.00098s6.16699 -1.33301 9.5 -6l36 -48c5.33301 -6.66699 4.66602 -11.667 -2.00098 -15l-159 -74c-5.33301 -2 -9.16602 -2.83301 -11.499 -2.5s-4.83301 2.16602 -7.5 5.49902z" />
    <glyph glyph-name="Ocircumflex" unicode="&#xd4;" horiz-adv-x="696" 
d="M641 352c0 -116.667 -24.834 -206.333 -74.501 -269s-123.167 -94 -220.5 -94c-49.333 0 -92.166 8.16699 -128.499 24.5s-66.5 40 -90.5 71s-42 68.833 -54 113.5s-18 95 -18 151c0 58 7.16699 109.5 21.5 154.5s34.333 82.833 60 113.5s56.5 54 92.5 70
s75.667 24 119 24c96.667 0 169.667 -31.667 219 -95s74 -151.333 74 -264zM561.999 349.001c0 38 -3.16699 74.666 -9.5 109.999s-17.5 66.5 -33.5 93.5s-37.667 48.667 -65 65s-62 24.5 -104 24.5c-38 0 -70.833 -7.83301 -98.5 -23.5s-50.334 -36.667 -68.001 -63
s-30.667 -57.166 -39 -92.499s-12.5 -72.333 -12.5 -111c0 -42 3.5 -80.833 10.5 -116.5s18.833 -66.667 35.5 -93s38.667 -47 66 -62s61.666 -22.5 102.999 -22.5c40.667 0 74.834 8 102.501 24s49.834 37.5 66.501 64.5s28.5 58 35.5 93s10.5 71.5 10.5 109.5z
M492.999 745c-2.66699 -3.33301 -5.33105 -4.50098 -7.99805 -3.50098s-6 2.5 -10 4.5l-127 70l-126 -71c-6.66699 -3.33301 -12.334 -2.66602 -17.001 2.00098l-14 16c-4 5.33301 -3.66699 10 1 14l120 97c13.333 10.667 25.333 16 36 16
c5.33301 0 11.166 -0.833008 17.499 -2.5s13.5 -6.16699 21.5 -13.5l117 -98c6 -5.33301 6.33301 -11 1 -17z" />
    <glyph glyph-name="Otilde" unicode="&#xd5;" horiz-adv-x="696" 
d="M641 352c0 -116.667 -24.834 -206.333 -74.501 -269s-123.167 -94 -220.5 -94c-49.333 0 -92.166 8.16699 -128.499 24.5s-66.5 40 -90.5 71s-42 68.833 -54 113.5s-18 95 -18 151c0 58 7.16699 109.5 21.5 154.5s34.333 82.833 60 113.5s56.5 54 92.5 70
s75.667 24 119 24c96.667 0 169.667 -31.667 219 -95s74 -151.333 74 -264zM561.999 349.001c0 38 -3.16699 74.666 -9.5 109.999s-17.5 66.5 -33.5 93.5s-37.667 48.667 -65 65s-62 24.5 -104 24.5c-38 0 -70.833 -7.83301 -98.5 -23.5s-50.334 -36.667 -68.001 -63
s-30.667 -57.166 -39 -92.499s-12.5 -72.333 -12.5 -111c0 -42 3.5 -80.833 10.5 -116.5s18.833 -66.667 35.5 -93s38.667 -47 66 -62s61.666 -22.5 102.999 -22.5c40.667 0 74.834 8 102.501 24s49.834 37.5 66.501 64.5s28.5 58 35.5 93s10.5 71.5 10.5 109.5z
M417.999 762c-12.667 0 -24.832 1.99609 -36.499 5.99609s-23 8.5 -34 13.5s-21.833 9.5 -32.5 13.5s-21.334 6 -32.001 6c-10 0 -19.5 -2.66699 -28.5 -8s-16.167 -12.666 -21.5 -21.999c-2 -3.33301 -4.16699 -5.5 -6.5 -6.5s-5.83301 -0.166992 -10.5 2.5l-25 11
c-4.66699 2 -7.66699 4 -9 6s-1 5 1 9c12 20 26.667 35.667 44 47s36.666 17 57.999 17c11.333 0 22.833 -2.16699 34.5 -6.5s23 -9 34 -14s21.5 -9.5 31.5 -13.5s19.667 -6 29 -6c22.667 0 39.334 10 50.001 30c2 4.66699 3.83301 7.33398 5.5 8.00098
s4.83398 0.333984 9.50098 -0.999023l29 -9c9.33301 -3.33301 12.333 -7.66602 9 -12.999c-12 -23.333 -25.833 -40.833 -41.5 -52.5s-34.834 -17.5 -57.501 -17.5z" />
    <glyph glyph-name="Odieresis" unicode="&#xd6;" horiz-adv-x="696" 
d="M641 352c0 -116.667 -24.834 -206.333 -74.501 -269s-123.167 -94 -220.5 -94c-49.333 0 -92.166 8.16699 -128.499 24.5s-66.5 40 -90.5 71s-42 68.833 -54 113.5s-18 95 -18 151c0 58 7.16699 109.5 21.5 154.5s34.333 82.833 60 113.5s56.5 54 92.5 70
s75.667 24 119 24c96.667 0 169.667 -31.667 219 -95s74 -151.333 74 -264zM561.999 349.001c0 38 -3.16699 74.666 -9.5 109.999s-17.5 66.5 -33.5 93.5s-37.667 48.667 -65 65s-62 24.5 -104 24.5c-38 0 -70.833 -7.83301 -98.5 -23.5s-50.334 -36.667 -68.001 -63
s-30.667 -57.166 -39 -92.499s-12.5 -72.333 -12.5 -111c0 -42 3.5 -80.833 10.5 -116.5s18.833 -66.667 35.5 -93s38.667 -47 66 -62s61.666 -22.5 102.999 -22.5c40.667 0 74.834 8 102.501 24s49.834 37.5 66.501 64.5s28.5 58 35.5 93s10.5 71.5 10.5 109.5z
M485.999 802c0 -13.333 -4.83301 -24.666 -14.5 -33.999s-20.5 -14 -32.5 -14c-13.333 0 -24.666 4.66699 -33.999 14s-14 20.666 -14 33.999c0 12 4.66699 22.667 14 32s20.666 14 33.999 14c12 0 22.833 -4.5 32.5 -13.5s14.5 -19.833 14.5 -32.5zM309.999 802
c0 -13.333 -4.83301 -24.666 -14.5 -33.999s-20.5 -14 -32.5 -14c-12.667 0 -23.834 4.66699 -33.501 14s-14.5 20.666 -14.5 33.999c0 12 4.83301 22.667 14.5 32s20.834 14 33.501 14c12 0 22.833 -4.66699 32.5 -14s14.5 -20 14.5 -32z" />
    <glyph glyph-name="multiply" unicode="&#xd7;" horiz-adv-x="583" 
d="M74 510c-3.33301 3.33301 -4.83301 6.33301 -4.5 9s2.16602 5.66699 5.49902 9l31 32c3.33301 3.33301 6.33301 5.16602 9 5.49902s6 -1.16699 10 -4.5l166 -167l168 169c3.33301 3.33301 6.5 4.83301 9.5 4.5s6.16699 -2.16602 9.5 -5.49902l32 -33
c3.33301 -3.33301 5.16602 -6.33301 5.49902 -9s-1.16699 -5.66699 -4.5 -9l-169 -168l166 -166c6.66699 -6 6.33398 -12 -0.999023 -18l-30 -32c-6.66699 -6.66699 -13 -7 -19 -1l-166 166l-168 -168c-6.66699 -6.66699 -13 -6.66699 -19 0l-33 33
c-3.33301 3.33301 -5.16602 6.33301 -5.49902 9s1.5 6 5.5 10l168 168l-166 166v0z" />
    <glyph glyph-name="Oslash" unicode="&#xd8;" horiz-adv-x="696" 
d="M641 352c0 -116.667 -24.835 -206.334 -74.502 -269.001s-123.167 -94 -220.5 -94c-42 0 -79 5.83301 -111 17.5s-59.667 28.5 -83 50.5l-45 -59c-3.33301 -4 -6 -5.83301 -8 -5.5s-4.66699 1.83301 -8 4.5l-16 10c-5.33301 3.33301 -5.66602 8.66602 -0.999023 15.999
l49 66c-22.667 30.667 -39.667 67.834 -51 111.501s-17 93.167 -17 148.5c0 58 7.16699 109.5 21.5 154.5s34.333 82.833 60 113.5s56.5 54 92.5 70s75.667 24 119 24c41.333 0 78 -6 110 -18s60 -29.333 84 -52l52 69c4.66699 6.66699 10.334 7.33398 17.001 2.00098
l16 -12c3.33301 -3.33301 5 -5.83301 5 -7.5s-1.33301 -4.5 -4 -8.5l-57 -74c23.333 -30.667 40.833 -67.667 52.5 -111s17.5 -92.333 17.5 -147zM561.998 349c0 36.667 -2.83301 71.999 -8.5 105.999s-15.834 64.333 -30.501 91l-326 -428
c17.333 -19.333 38.5 -34.166 63.5 -44.499s54.5 -15.5 88.5 -15.5c40.667 0 74.667 8 102 24s49.333 37.5 66 64.5s28.334 58 35.001 93s10 71.5 10 109.5zM131.998 351.999c0 -39.333 3.16895 -75.834 9.50195 -109.501s17.166 -63.5 32.499 -89.5l323 428
c-16 19.333 -36 34.333 -60 45s-53 16 -87 16c-38 0 -70.833 -7.83301 -98.5 -23.5s-50.334 -36.667 -68.001 -63s-30.667 -57.166 -39 -92.499s-12.5 -72.333 -12.5 -111z" />
    <glyph glyph-name="Ugrave" unicode="&#xd9;" horiz-adv-x="676" 
d="M75 687c0 5.33301 0.667969 8.83203 2.00098 10.499s3.66602 2.5 6.99902 2.5h59c3.33301 0 5.83301 -0.833008 7.5 -2.5s2.5 -5.16699 2.5 -10.5v-382c0 -43.333 2.66699 -80.666 8 -111.999s16 -57 32 -77s38.833 -34.833 68.5 -44.5s68.834 -14.5 117.501 -14.5
c11.333 0 30.666 0.833008 57.999 2.5s56.666 5.5 87.999 11.5v616c0 5.33301 0.666992 8.83301 2 10.5s3.66602 2.5 6.99902 2.5h59c3.33301 0 5.5 -0.833008 6.5 -2.5s1.5 -5.16699 1.5 -10.5v-609c0 -20.667 -4.5 -37.5 -13.5 -50.5s-25.833 -21.833 -50.5 -26.5
c-25.333 -4.66699 -53.166 -8 -83.499 -10s-56.166 -3 -77.499 -3c-55.333 0 -102.166 5 -140.499 15s-69.333 27 -93 51s-40.834 55.833 -51.501 95.5s-16 89.5 -16 149.5v388zM392.001 750.999c-4.66699 -5.33301 -11 -6.33203 -19 -2.99902l-159 74
c-7.33301 4 -8 9 -2 15l35 48c4 4.66699 7.5 6.66699 10.5 6s6.16699 -2.33398 9.5 -5.00098l137 -97c6.66699 -4.66699 7.66699 -9.66699 3 -15z" />
    <glyph glyph-name="Uacute" unicode="&#xda;" horiz-adv-x="676" 
d="M75 687c0 5.33301 0.667969 8.83203 2.00098 10.499s3.66602 2.5 6.99902 2.5h59c3.33301 0 5.83301 -0.833008 7.5 -2.5s2.5 -5.16699 2.5 -10.5v-382c0 -43.333 2.66699 -80.666 8 -111.999s16 -57 32 -77s38.833 -34.833 68.5 -44.5s68.834 -14.5 117.501 -14.5
c11.333 0 30.666 0.833008 57.999 2.5s56.666 5.5 87.999 11.5v616c0 5.33301 0.666992 8.83301 2 10.5s3.66602 2.5 6.99902 2.5h59c3.33301 0 5.5 -0.833008 6.5 -2.5s1.5 -5.16699 1.5 -10.5v-609c0 -20.667 -4.5 -37.5 -13.5 -50.5s-25.833 -21.833 -50.5 -26.5
c-25.333 -4.66699 -53.166 -8 -83.499 -10s-56.166 -3 -77.499 -3c-55.333 0 -102.166 5 -140.499 15s-69.333 27 -93 51s-40.834 55.833 -51.501 95.5s-16 89.5 -16 149.5v388zM281.001 773.999c-4 6 -3 11 3 15l137 97c3.33301 2.66699 6.5 4.33398 9.5 5.00098
s6.16699 -1.33301 9.5 -6l36 -48c5.33301 -6.66699 4.66602 -11.667 -2.00098 -15l-159 -74c-5.33301 -2 -9.16602 -2.83301 -11.499 -2.5s-4.83301 2.16602 -7.5 5.49902z" />
    <glyph glyph-name="Ucircumflex" unicode="&#xdb;" horiz-adv-x="676" 
d="M75 687c0 5.33301 0.667969 8.83203 2.00098 10.499s3.66602 2.5 6.99902 2.5h59c3.33301 0 5.83301 -0.833008 7.5 -2.5s2.5 -5.16699 2.5 -10.5v-382c0 -43.333 2.66699 -80.666 8 -111.999s16 -57 32 -77s38.833 -34.833 68.5 -44.5s68.834 -14.5 117.501 -14.5
c11.333 0 30.666 0.833008 57.999 2.5s56.666 5.5 87.999 11.5v616c0 5.33301 0.666992 8.83301 2 10.5s3.66602 2.5 6.99902 2.5h59c3.33301 0 5.5 -0.833008 6.5 -2.5s1.5 -5.16699 1.5 -10.5v-609c0 -20.667 -4.5 -37.5 -13.5 -50.5s-25.833 -21.833 -50.5 -26.5
c-25.333 -4.66699 -53.166 -8 -83.499 -10s-56.166 -3 -77.499 -3c-55.333 0 -102.166 5 -140.499 15s-69.333 27 -93 51s-40.834 55.833 -51.501 95.5s-16 89.5 -16 149.5v388zM486.001 744.999c-2.66699 -3.33301 -5.33105 -4.50098 -7.99805 -3.50098s-6 2.5 -10 4.5
l-127 70l-126 -71c-6.66699 -3.33301 -12.334 -2.66602 -17.001 2.00098l-14 16c-4 5.33301 -3.66699 10 1 14l120 97c13.333 10.667 25.333 16 36 16c5.33301 0 11.166 -0.833008 17.499 -2.5s13.5 -6.16699 21.5 -13.5l117 -98c6 -5.33301 6.33301 -11 1 -17z" />
    <glyph glyph-name="Udieresis" unicode="&#xdc;" horiz-adv-x="676" 
d="M75 687c0 5.33301 0.667969 8.83203 2.00098 10.499s3.66602 2.5 6.99902 2.5h59c3.33301 0 5.83301 -0.833008 7.5 -2.5s2.5 -5.16699 2.5 -10.5v-382c0 -43.333 2.66699 -80.666 8 -111.999s16 -57 32 -77s38.833 -34.833 68.5 -44.5s68.834 -14.5 117.501 -14.5
c11.333 0 30.666 0.833008 57.999 2.5s56.666 5.5 87.999 11.5v616c0 5.33301 0.666992 8.83301 2 10.5s3.66602 2.5 6.99902 2.5h59c3.33301 0 5.5 -0.833008 6.5 -2.5s1.5 -5.16699 1.5 -10.5v-609c0 -20.667 -4.5 -37.5 -13.5 -50.5s-25.833 -21.833 -50.5 -26.5
c-25.333 -4.66699 -53.166 -8 -83.499 -10s-56.166 -3 -77.499 -3c-55.333 0 -102.166 5 -140.499 15s-69.333 27 -93 51s-40.834 55.833 -51.501 95.5s-16 89.5 -16 149.5v388zM477.001 793.999c0 -13.333 -4.83301 -24.666 -14.5 -33.999s-20.5 -14 -32.5 -14
c-13.333 0 -24.666 4.66699 -33.999 14s-14 20.666 -14 33.999c0 12 4.66699 22.667 14 32s20.666 14 33.999 14c12 0 22.833 -4.5 32.5 -13.5s14.5 -19.833 14.5 -32.5zM301.001 793.999c0 -13.333 -4.83301 -24.666 -14.5 -33.999s-20.5 -14 -32.5 -14
c-12.667 0 -23.834 4.66699 -33.501 14s-14.5 20.666 -14.5 33.999c0 12 4.83301 22.667 14.5 32s20.834 14 33.501 14c12 0 22.833 -4.66699 32.5 -14s14.5 -20 14.5 -32z" />
    <glyph glyph-name="Yacute" unicode="&#xdd;" horiz-adv-x="546" 
d="M313 284v-271c0 -5.33301 -0.833008 -8.83301 -2.5 -10.5s-5.16699 -2.5 -10.5 -2.5h-48c-5.33301 -0 -9 0.833008 -11 2.5s-3 5.16699 -3 10.5v270l-226 408c-1.33301 2 -1.5 4.16699 -0.5 6.5s3.5 3.5 7.5 3.5h62c8 0 13.667 -3.66699 17 -11l99 -185l77 -150h4l80 155
l96 180c3.33301 7.33301 9 11 17 11h58c3.33301 0 5.33301 -1.33301 6 -4s0.666992 -4.66699 0 -6zM238 774c-4 6 -3 11 3 15l137 97c3.33301 2.66699 6.5 4.33398 9.5 5.00098s6.16699 -1.33301 9.5 -6l36 -48c5.33301 -6.66699 4.66602 -11.667 -2.00098 -15l-159 -74
c-5.33301 -2 -9.16602 -2.83301 -11.499 -2.5s-4.83301 2.16602 -7.5 5.49902z" />
    <glyph glyph-name="Thorn" unicode="&#xde;" horiz-adv-x="595" 
d="M75 687c0 5.33301 0.99707 8.83105 2.99707 10.498s5.33301 2.5 10 2.5h51c5.33301 0 9 -0.833008 11 -2.5s3 -5.16699 3 -10.5v-109h199c30.667 0 58.834 -5 84.501 -15s47.834 -24 66.501 -42s33 -39.5 43 -64.5s15 -52.5 15 -82.5c0 -16.667 -2.83301 -37 -8.5 -61
s-16.5 -47 -32.5 -69s-38.167 -40.667 -66.5 -56s-65.166 -23 -110.499 -23h-189c0 -25.333 -0.166992 -50.666 -0.5 -75.999s-0.5 -50.666 -0.5 -75.999c0 -8.66699 -3.66699 -13 -11 -13h-56c-5.33301 0 -8.5 1.16699 -9.5 3.5s-1.5 4.5 -1.5 6.5v677zM153.997 232.998
l180 0.000976562c46 0 82 11.833 108 35.5s39 57.5 39 101.5c0 14.667 -2.33301 30.167 -7 46.5s-12.667 31.166 -24 44.499s-26.5 24.333 -45.5 33s-42.833 13 -71.5 13h-179v-274z" />
    <glyph glyph-name="germandbls" unicode="&#xdf;" horiz-adv-x="548" 
d="M66 502c0 35.333 4.66602 66.6709 13.999 94.0039s22.666 50.5 39.999 69.5s38.5 33.333 63.5 43s52.5 14.5 82.5 14.5c34.667 0 64.334 -5.16699 89.001 -15.5s44.834 -23.833 60.501 -40.5s27.167 -35.5 34.5 -56.5s11 -41.833 11 -62.5
c0 -10 -1.33301 -21.833 -4 -35.5s-7.16699 -27.167 -13.5 -40.5s-15.166 -26 -26.499 -38s-25.333 -21.333 -42 -28v-2c20 -5.33301 37.833 -14.333 53.5 -27s29 -27.834 40 -45.501s19.5 -37 25.5 -58s9 -41.833 9 -62.5c0 -38 -6.16699 -71.5 -18.5 -100.5
s-29.333 -53.333 -51 -73s-47 -34.5 -76 -44.5s-60.5 -15 -94.5 -15c-4.66699 0 -7.83398 0.5 -9.50098 1.5s-2.5 3.5 -2.5 7.5v37c0 7.33301 3.66699 11 11 11c24 0 46.167 3.66699 66.5 11s38 18.333 53 33s26.667 32.5 35 53.5s12.5 45.5 12.5 73.5
c0 20 -2.83301 39.667 -8.5 59s-14.5 36.5 -26.5 51.5s-27.333 27.167 -46 36.5s-41.334 14 -68.001 14c-18 0 -27 7.66699 -27 23v14c0 17.333 8.33301 26 25 26c19.333 0 35.833 3 49.5 9s25 14.333 34 25s15.667 22.667 20 36s6.5 27.666 6.5 42.999
c0 14 -2.33301 28 -7 42s-11.834 26.833 -21.501 38.5s-22.167 21.167 -37.5 28.5s-34 11 -56 11c-25.333 0 -46.166 -4.83301 -62.499 -14.5s-29.166 -21.834 -38.499 -36.501s-16 -30.834 -20 -48.501s-6 -34.5 -6 -50.5v-500c0 -5.33301 -0.833008 -8.83301 -2.5 -10.5
s-5.16699 -2.5 -10.5 -2.5h-46c-4.66699 -0 -8 0.833008 -10 2.5s-3 5.16699 -3 10.5z" />
    <glyph glyph-name="agrave" unicode="&#xe0;" horiz-adv-x="530" 
d="M465 46c0 -12 -4.66797 -20.002 -14.001 -24.002c-30 -12.667 -62 -21.334 -96 -26.001s-66.667 -7 -98 -7c-42.667 0 -77.667 4.66699 -105 14s-49 21.5 -65 36.5s-27.167 32.333 -33.5 52s-9.5 40.167 -9.5 61.5c0 24.667 4.33301 47.834 13 69.501
s21.834 40.5 39.501 56.5s39.834 28.5 66.501 37.5s58.334 13.5 95.001 13.5h133v27c0 16.667 -1.66699 32.167 -5 46.5s-9.66602 26.5 -18.999 36.5s-22.333 17.833 -39 23.5s-38.334 8.5 -65.001 8.5c-22 0 -46.167 -2.16699 -72.5 -6.5s-48.833 -9.5 -67.5 -15.5
c-4.66699 -1.33301 -8.33398 -1.83301 -11.001 -1.5s-4.66699 2.83301 -6 7.5l-10 36c-2 7.33301 0.666992 12.333 8 15c12 4.66699 25 8.83398 39 12.501s28.5 6.83398 43.5 9.50098s30.167 4.5 45.5 5.5s29.666 1.5 42.999 1.5c64.667 0 112.5 -14.333 143.5 -43
s46.5 -70.667 46.5 -126v-321zM389.999 265.998h-129c-12 0 -26.333 -1 -43 -3s-32.5 -6.83301 -47.5 -14.5s-27.667 -19 -38 -34s-15.5 -35.5 -15.5 -61.5c0 -20 3.83301 -36.667 11.5 -50s18 -24 31 -32s27.833 -13.5 44.5 -16.5s34 -4.5 52 -4.5
c6 0 14.167 0.333008 24.5 1s21.833 1.66699 34.5 3s25.5 3.5 38.5 6.5s25.167 6.5 36.5 10.5v195zM285.999 589.998c-6.66699 -2.66699 -12.665 -0.668945 -17.998 5.99805l-101 147c-6 7.33301 -4 12 6 14l60 15c5.33301 0.666992 9.16602 0 11.499 -2
s4.16602 -4.66699 5.49902 -8l65 -149c2.66699 -5.33301 3.5 -8.66602 2.5 -9.99902s-3.16699 -2.66602 -6.5 -3.99902z" />
    <glyph glyph-name="aacute" unicode="&#xe1;" horiz-adv-x="530" 
d="M465 46c0 -12 -4.66797 -20.002 -14.001 -24.002c-30 -12.667 -62 -21.334 -96 -26.001s-66.667 -7 -98 -7c-42.667 0 -77.667 4.66699 -105 14s-49 21.5 -65 36.5s-27.167 32.333 -33.5 52s-9.5 40.167 -9.5 61.5c0 24.667 4.33301 47.834 13 69.501
s21.834 40.5 39.501 56.5s39.834 28.5 66.501 37.5s58.334 13.5 95.001 13.5h133v27c0 16.667 -1.66699 32.167 -5 46.5s-9.66602 26.5 -18.999 36.5s-22.333 17.833 -39 23.5s-38.334 8.5 -65.001 8.5c-22 0 -46.167 -2.16699 -72.5 -6.5s-48.833 -9.5 -67.5 -15.5
c-4.66699 -1.33301 -8.33398 -1.83301 -11.001 -1.5s-4.66699 2.83301 -6 7.5l-10 36c-2 7.33301 0.666992 12.333 8 15c12 4.66699 25 8.83398 39 12.501s28.5 6.83398 43.5 9.50098s30.167 4.5 45.5 5.5s29.666 1.5 42.999 1.5c64.667 0 112.5 -14.333 143.5 -43
s46.5 -70.667 46.5 -126v-321zM389.999 265.998h-129c-12 0 -26.333 -1 -43 -3s-32.5 -6.83301 -47.5 -14.5s-27.667 -19 -38 -34s-15.5 -35.5 -15.5 -61.5c0 -20 3.83301 -36.667 11.5 -50s18 -24 31 -32s27.833 -13.5 44.5 -16.5s34 -4.5 52 -4.5
c6 0 14.167 0.333008 24.5 1s21.833 1.66699 34.5 3s25.5 3.5 38.5 6.5s25.167 6.5 36.5 10.5v195zM233.999 598.998c-3.33301 1.33301 -5.49805 2.66797 -6.49805 4.00098s-0.166992 4.66602 2.5 9.99902l65 149c1.33301 3.33301 3.16602 6 5.49902 8
s6.16602 2.66699 11.499 2l59 -15c10 -2 12 -6.66699 6 -14l-101 -147c-4.66699 -6.66699 -10.667 -8.66699 -18 -6z" />
    <glyph glyph-name="acircumflex" unicode="&#xe2;" horiz-adv-x="530" 
d="M465 46c0 -12 -4.66797 -20.002 -14.001 -24.002c-30 -12.667 -62 -21.334 -96 -26.001s-66.667 -7 -98 -7c-42.667 0 -77.667 4.66699 -105 14s-49 21.5 -65 36.5s-27.167 32.333 -33.5 52s-9.5 40.167 -9.5 61.5c0 24.667 4.33301 47.834 13 69.501
s21.834 40.5 39.501 56.5s39.834 28.5 66.501 37.5s58.334 13.5 95.001 13.5h133v27c0 16.667 -1.66699 32.167 -5 46.5s-9.66602 26.5 -18.999 36.5s-22.333 17.833 -39 23.5s-38.334 8.5 -65.001 8.5c-22 0 -46.167 -2.16699 -72.5 -6.5s-48.833 -9.5 -67.5 -15.5
c-4.66699 -1.33301 -8.33398 -1.83301 -11.001 -1.5s-4.66699 2.83301 -6 7.5l-10 36c-2 7.33301 0.666992 12.333 8 15c12 4.66699 25 8.83398 39 12.501s28.5 6.83398 43.5 9.50098s30.167 4.5 45.5 5.5s29.666 1.5 42.999 1.5c64.667 0 112.5 -14.333 143.5 -43
s46.5 -70.667 46.5 -126v-321zM389.999 265.998h-129c-12 0 -26.333 -1 -43 -3s-32.5 -6.83301 -47.5 -14.5s-27.667 -19 -38 -34s-15.5 -35.5 -15.5 -61.5c0 -20 3.83301 -36.667 11.5 -50s18 -24 31 -32s27.833 -13.5 44.5 -16.5s34 -4.5 52 -4.5
c6 0 14.167 0.333008 24.5 1s21.833 1.66699 34.5 3s25.5 3.5 38.5 6.5s25.167 6.5 36.5 10.5v195zM420.999 586.998c-5.33301 -3.33301 -11.332 -3.00098 -17.999 0.999023l-127 99l-127 -100c-6 -4 -12 -3.33301 -18 2l-15 16c-4.66699 4 -5 8.33301 -1 13l125 126
c12 12 24 18 36 18c8 0 14.667 -1.16699 20 -3.5s11.666 -7.16602 18.999 -14.499l119 -125c6.66699 -6.66699 7 -13 1 -19z" />
    <glyph glyph-name="atilde" unicode="&#xe3;" horiz-adv-x="530" 
d="M465 46c0 -12 -4.66797 -20.002 -14.001 -24.002c-30 -12.667 -62 -21.334 -96 -26.001s-66.667 -7 -98 -7c-42.667 0 -77.667 4.66699 -105 14s-49 21.5 -65 36.5s-27.167 32.333 -33.5 52s-9.5 40.167 -9.5 61.5c0 24.667 4.33301 47.834 13 69.501
s21.834 40.5 39.501 56.5s39.834 28.5 66.501 37.5s58.334 13.5 95.001 13.5h133v27c0 16.667 -1.66699 32.167 -5 46.5s-9.66602 26.5 -18.999 36.5s-22.333 17.833 -39 23.5s-38.334 8.5 -65.001 8.5c-22 0 -46.167 -2.16699 -72.5 -6.5s-48.833 -9.5 -67.5 -15.5
c-4.66699 -1.33301 -8.33398 -1.83301 -11.001 -1.5s-4.66699 2.83301 -6 7.5l-10 36c-2 7.33301 0.666992 12.333 8 15c12 4.66699 25 8.83398 39 12.501s28.5 6.83398 43.5 9.50098s30.167 4.5 45.5 5.5s29.666 1.5 42.999 1.5c64.667 0 112.5 -14.333 143.5 -43
s46.5 -70.667 46.5 -126v-321zM389.999 265.998h-129c-12 0 -26.333 -1 -43 -3s-32.5 -6.83301 -47.5 -14.5s-27.667 -19 -38 -34s-15.5 -35.5 -15.5 -61.5c0 -20 3.83301 -36.667 11.5 -50s18 -24 31 -32s27.833 -13.5 44.5 -16.5s34 -4.5 52 -4.5
c6 0 14.167 0.333008 24.5 1s21.833 1.66699 34.5 3s25.5 3.5 38.5 6.5s25.167 6.5 36.5 10.5v195zM339.999 626.998c-12.667 0 -24.832 1.99609 -36.499 5.99609s-23 8.5 -34 13.5s-21.833 9.5 -32.5 13.5s-21.334 6 -32.001 6c-10 0 -19.5 -2.66699 -28.5 -8
s-16.167 -12.666 -21.5 -21.999c-2 -3.33301 -4.16699 -5.5 -6.5 -6.5s-5.83301 -0.166992 -10.5 2.5l-25 11c-4.66699 2 -7.66699 4 -9 6s-1 5 1 9c12 20 26.667 35.667 44 47s36.666 17 57.999 17c11.333 0 22.833 -2.16699 34.5 -6.5s23 -9 34 -14s21.5 -9.5 31.5 -13.5
s19.667 -6 29 -6c22.667 0 39.334 10 50.001 30c2 4.66699 3.83301 7.33398 5.5 8.00098s4.83398 0.333984 9.50098 -0.999023l29 -9c9.33301 -3.33301 12.333 -7.66602 9 -12.999c-12 -23.333 -25.833 -40.833 -41.5 -52.5s-34.834 -17.5 -57.501 -17.5z" />
    <glyph glyph-name="adieresis" unicode="&#xe4;" horiz-adv-x="530" 
d="M465 46c0 -12 -4.66797 -20.002 -14.001 -24.002c-30 -12.667 -62 -21.334 -96 -26.001s-66.667 -7 -98 -7c-42.667 0 -77.667 4.66699 -105 14s-49 21.5 -65 36.5s-27.167 32.333 -33.5 52s-9.5 40.167 -9.5 61.5c0 24.667 4.33301 47.834 13 69.501
s21.834 40.5 39.501 56.5s39.834 28.5 66.501 37.5s58.334 13.5 95.001 13.5h133v27c0 16.667 -1.66699 32.167 -5 46.5s-9.66602 26.5 -18.999 36.5s-22.333 17.833 -39 23.5s-38.334 8.5 -65.001 8.5c-22 0 -46.167 -2.16699 -72.5 -6.5s-48.833 -9.5 -67.5 -15.5
c-4.66699 -1.33301 -8.33398 -1.83301 -11.001 -1.5s-4.66699 2.83301 -6 7.5l-10 36c-2 7.33301 0.666992 12.333 8 15c12 4.66699 25 8.83398 39 12.501s28.5 6.83398 43.5 9.50098s30.167 4.5 45.5 5.5s29.666 1.5 42.999 1.5c64.667 0 112.5 -14.333 143.5 -43
s46.5 -70.667 46.5 -126v-321zM389.999 265.998h-129c-12 0 -26.333 -1 -43 -3s-32.5 -6.83301 -47.5 -14.5s-27.667 -19 -38 -34s-15.5 -35.5 -15.5 -61.5c0 -20 3.83301 -36.667 11.5 -50s18 -24 31 -32s27.833 -13.5 44.5 -16.5s34 -4.5 52 -4.5
c6 0 14.167 0.333008 24.5 1s21.833 1.66699 34.5 3s25.5 3.5 38.5 6.5s25.167 6.5 36.5 10.5v195zM413.999 672.998c0 -13.333 -4.83301 -24.666 -14.5 -33.999s-20.5 -14 -32.5 -14c-13.333 0 -24.666 4.66699 -33.999 14s-14 20.666 -14 33.999
c0 12 4.66699 22.667 14 32s20.666 14 33.999 14c12 0 22.833 -4.5 32.5 -13.5s14.5 -19.833 14.5 -32.5zM237.999 672.998c0 -13.333 -4.83301 -24.666 -14.5 -33.999s-20.5 -14 -32.5 -14c-12.667 0 -23.834 4.66699 -33.501 14s-14.5 20.666 -14.5 33.999
c0 12 4.83301 22.667 14.5 32s20.834 14 33.501 14c12 0 22.833 -4.66699 32.5 -14s14.5 -20 14.5 -32z" />
    <glyph glyph-name="aring" unicode="&#xe5;" horiz-adv-x="530" 
d="M465 46c0 -12 -4.66797 -20.002 -14.001 -24.002c-30 -12.667 -62 -21.334 -96 -26.001s-66.667 -7 -98 -7c-42.667 0 -77.667 4.66699 -105 14s-49 21.5 -65 36.5s-27.167 32.333 -33.5 52s-9.5 40.167 -9.5 61.5c0 24.667 4.33301 47.834 13 69.501
s21.834 40.5 39.501 56.5s39.834 28.5 66.501 37.5s58.334 13.5 95.001 13.5h133v27c0 16.667 -1.66699 32.167 -5 46.5s-9.66602 26.5 -18.999 36.5s-22.333 17.833 -39 23.5s-38.334 8.5 -65.001 8.5c-22 0 -46.167 -2.16699 -72.5 -6.5s-48.833 -9.5 -67.5 -15.5
c-4.66699 -1.33301 -8.33398 -1.83301 -11.001 -1.5s-4.66699 2.83301 -6 7.5l-10 36c-2 7.33301 0.666992 12.333 8 15c12 4.66699 25 8.83398 39 12.501s28.5 6.83398 43.5 9.50098s30.167 4.5 45.5 5.5s29.666 1.5 42.999 1.5c64.667 0 112.5 -14.333 143.5 -43
s46.5 -70.667 46.5 -126v-321zM389.999 265.998h-129c-12 0 -26.333 -1 -43 -3s-32.5 -6.83301 -47.5 -14.5s-27.667 -19 -38 -34s-15.5 -35.5 -15.5 -61.5c0 -20 3.83301 -36.667 11.5 -50s18 -24 31 -32s27.833 -13.5 44.5 -16.5s34 -4.5 52 -4.5
c6 0 14.167 0.333008 24.5 1s21.833 1.66699 34.5 3s25.5 3.5 38.5 6.5s25.167 6.5 36.5 10.5v195zM375.999 679.998c0 -25.333 -8.83203 -46.334 -26.499 -63.001s-39.5 -25 -65.5 -25c-25.333 0 -47 8.16699 -65 24.5s-27 37.5 -27 63.5c0 12.667 2.33301 24.334 7 35.001
s11.167 20 19.5 28s18.166 14.167 29.499 18.5s23.333 6.5 36 6.5c26 0 47.833 -8.33301 65.5 -25s26.5 -37.667 26.5 -63zM337 679.997c0 15.333 -5 27.833 -15 37.5s-22.667 14.5 -38 14.5s-28 -4.83301 -38 -14.5s-15 -22.167 -15 -37.5s5.16699 -27.833 15.5 -37.5
s22.833 -14.5 37.5 -14.5c15.333 0 28 4.83301 38 14.5s15 22.167 15 37.5z" />
    <glyph glyph-name="ae" unicode="&#xe6;" horiz-adv-x="863" 
d="M604 536c36 0 67.3271 -5.16602 93.9941 -15.499s48.834 -25 66.501 -44s31 -41.5 40 -67.5s13.833 -55 14.5 -87c0.666992 -14 -0.666016 -25.5 -3.99902 -34.5s-8 -16 -14 -21s-13.167 -8.5 -21.5 -10.5s-16.833 -3 -25.5 -3h-306
c0.666992 -39.333 5.33398 -72 14.001 -98s20.334 -46.5 35.001 -61.5s32.167 -25.5 52.5 -31.5s42.166 -9 65.499 -9c22 0 43.5 2.66699 64.5 8s38.833 12 53.5 20c8 4 13.667 2.66699 17 -4l18 -35c4 -8.66699 2.66699 -14.334 -4 -17.001
c-23.333 -14 -48.5 -23.5 -75.5 -28.5s-53.5 -7.5 -79.5 -7.5c-31.333 0 -60.166 4.83301 -86.499 14.5s-49.5 22.5 -69.5 38.5c-16 -9.33301 -33.167 -17.333 -51.5 -24s-37 -12.167 -56 -16.5s-37.667 -7.5 -56 -9.5s-35.833 -3 -52.5 -3
c-42.667 0 -76.667 4.83301 -102 14.5s-44.833 22 -58.5 37s-22.5 31.667 -26.5 50s-6 36.5 -6 54.5c0 22.667 3.5 44.167 10.5 64.5s18.333 38.166 34 53.499s36 27.5 61 36.5s55.5 13.5 91.5 13.5h136c8 56.667 1.66699 97.334 -19 122.001s-56 37 -106 37
c-22.667 0 -46.667 -2.16699 -72 -6.5s-47.333 -9.5 -66 -15.5c-5.33301 -1.33301 -9.16602 -1.83301 -11.499 -1.5s-4.16602 2.83301 -5.49902 7.5l-10 36c-2 7.33301 0.333008 12.333 7 15c23.333 10 50.5 17.333 81.5 22s60.167 7 87.5 7c46.667 0 83.5 -7.5 110.5 -22.5
s45.833 -38.167 56.5 -69.5c19.333 30.667 44 53.667 74 69s63.333 23 100 23zM410.994 90.001c-12 20 -21.1709 42.833 -27.5039 68.5s-9.5 57.167 -9.5 94.5h-126c-13.333 0 -27.666 -1.33301 -42.999 -4s-29.5 -7.83398 -42.5 -15.501s-23.833 -18.667 -32.5 -33
s-13 -33.166 -13 -56.499c0 -34 11.333 -58.5 34 -73.5s52 -22.5 88 -22.5c8 0 18.833 0.666992 32.5 2s28.334 3.5 44.001 6.5s31.834 7.16699 48.501 12.5s32.334 12.333 47.001 21zM749.99 313.001c0 20 -2.16699 39.667 -6.5 59s-12 36.5 -23 51.5s-26 27.167 -45 36.5
s-43.5 14 -73.5 14c-44 0 -79.333 -14.667 -106 -44s-41.667 -68.333 -45 -117h299z" />
    <glyph glyph-name="ccedilla" unicode="&#xe7;" horiz-adv-x="473" 
d="M275 -54c36.667 -2 62.3291 -10.8369 76.9961 -26.5039s22 -32.5 22 -50.5c0 -9.33301 -2 -18.666 -6 -27.999s-10 -17.666 -18 -24.999s-18.333 -13.5 -31 -18.5s-28 -7.5 -46 -7.5c-17.333 0 -33.666 1.66699 -48.999 5s-27.666 7.33301 -36.999 12
c-6.66699 2.66699 -8.66699 7.33398 -6 14.001l7 18c2 4.66699 4.16699 7 6.5 7s5.16602 -0.666992 8.49902 -2c10 -4 20.5 -7 31.5 -9s21.167 -3 30.5 -3c19.333 0 33.333 3.5 42 10.5s13 16.167 13 27.5c0 13.333 -6.16699 23.333 -18.5 30s-27.166 10 -44.499 10h-13.5
c-4.33301 0 -7.16602 0.666992 -8.49902 2c-5.33301 1.33301 -8 4.16602 -8 8.49902s0.666992 8.83301 2 13.5l20 56c-66.667 4.66699 -117.334 29.167 -152.001 73.5s-52 108.833 -52 193.5c0 43.333 5.5 82.166 16.5 116.499s26.667 63.5 47 87.5s45.166 42.5 74.499 55.5
s62 19.5 98 19.5c26 0 51 -2.66699 75 -8s47.667 -14.333 71 -27c8 -4.66699 9.66699 -10.667 5 -18l-18 -34c-1.33301 -3.33301 -3.16602 -5.66602 -5.49902 -6.99902s-6.16602 -0.666016 -11.499 2.00098c-16.667 7.33301 -34.5 13.666 -53.5 18.999s-39.833 8 -62.5 8
c-29.333 0 -54.166 -5.83301 -74.499 -17.5s-37.166 -27.5 -50.499 -47.5s-23 -42.833 -29 -68.5s-9 -52.5 -9 -80.5c0 -28.667 2.66699 -55.5 8 -80.5s14.333 -46.667 27 -65s29.5 -32.833 50.5 -43.5s47.167 -16 78.5 -16c23.333 0 46.166 3 68.499 9
s41.166 13.333 56.499 22c5.33301 2.66699 9.16602 3.33398 11.499 2.00098s4.5 -3.66602 6.5 -6.99902l16 -35c3.33301 -4 4.33301 -7.33301 3 -10s-3.66602 -5.33398 -6.99902 -8.00098c-22.667 -12 -46.667 -20.667 -72 -26s-50.666 -8.66602 -75.999 -9.99902l-14 -43v0
z" />
    <glyph glyph-name="egrave" unicode="&#xe8;" horiz-adv-x="533" 
d="M273 536c38 0 70.668 -5.49902 98.001 -16.499s49.833 -26.5 67.5 -46.5s30.834 -43.667 39.501 -71s13 -57.333 13 -90c0 -28 -6.5 -46.5 -19.5 -55.5s-28.833 -13.5 -47.5 -13.5h-305c0 -34.667 4.33301 -64.167 13 -88.5s20.5 -44 35.5 -59s32.667 -25.833 53 -32.5
s42.166 -10 65.499 -10c22 0 43.5 2.66699 64.5 8s38.833 12 53.5 20c8 4 13.667 2.66699 17 -4l18 -35c4 -8 2.33301 -13.667 -5 -17c-23.333 -14 -48.333 -23.5 -75 -28.5s-52.667 -7.5 -78 -7.5c-73.333 0 -131 21.5 -173 64.5s-63 111.833 -63 206.5
c0 44.667 5.66699 84.167 17 118.5s27.166 63.166 47.499 86.499s44.333 41 72 53s58.167 18 91.5 18zM421.001 303.001c0 22.667 -2.33398 44.332 -7.00098 64.999s-12.5 38.834 -23.5 54.501s-26.167 28.167 -45.5 37.5s-43.333 14 -72 14
c-23.333 0 -44.166 -4.5 -62.499 -13.5s-33.833 -21.167 -46.5 -36.5s-22.5 -33.333 -29.5 -54s-11.167 -43 -12.5 -67h299zM286 589.999c-6.66699 -2.66699 -12.665 -0.668945 -17.998 5.99805l-101 147c-6 7.33301 -4 12 6 14l60 15c5.33301 0.666992 9.16602 0 11.499 -2
s4.16602 -4.66699 5.49902 -8l65 -149c2.66699 -5.33301 3.5 -8.66602 2.5 -9.99902s-3.16699 -2.66602 -6.5 -3.99902z" />
    <glyph glyph-name="eacute" unicode="&#xe9;" horiz-adv-x="533" 
d="M273 536c38 0 70.668 -5.49902 98.001 -16.499s49.833 -26.5 67.5 -46.5s30.834 -43.667 39.501 -71s13 -57.333 13 -90c0 -28 -6.5 -46.5 -19.5 -55.5s-28.833 -13.5 -47.5 -13.5h-305c0 -34.667 4.33301 -64.167 13 -88.5s20.5 -44 35.5 -59s32.667 -25.833 53 -32.5
s42.166 -10 65.499 -10c22 0 43.5 2.66699 64.5 8s38.833 12 53.5 20c8 4 13.667 2.66699 17 -4l18 -35c4 -8 2.33301 -13.667 -5 -17c-23.333 -14 -48.333 -23.5 -75 -28.5s-52.667 -7.5 -78 -7.5c-73.333 0 -131 21.5 -173 64.5s-63 111.833 -63 206.5
c0 44.667 5.66699 84.167 17 118.5s27.166 63.166 47.499 86.499s44.333 41 72 53s58.167 18 91.5 18zM421.001 303.001c0 22.667 -2.33398 44.332 -7.00098 64.999s-12.5 38.834 -23.5 54.501s-26.167 28.167 -45.5 37.5s-43.333 14 -72 14
c-23.333 0 -44.166 -4.5 -62.499 -13.5s-33.833 -21.167 -46.5 -36.5s-22.5 -33.333 -29.5 -54s-11.167 -43 -12.5 -67h299zM235 598.999c-3.33301 1.33301 -5.49805 2.66797 -6.49805 4.00098s-0.166992 4.66602 2.5 9.99902l65 149c1.33301 3.33301 3.16602 6 5.49902 8
s6.16602 2.66699 11.499 2l59 -15c10 -2 12 -6.66699 6 -14l-101 -147c-4.66699 -6.66699 -10.667 -8.66699 -18 -6z" />
    <glyph glyph-name="ecircumflex" unicode="&#xea;" horiz-adv-x="533" 
d="M273 536c38 0 70.668 -5.49902 98.001 -16.499s49.833 -26.5 67.5 -46.5s30.834 -43.667 39.501 -71s13 -57.333 13 -90c0 -28 -6.5 -46.5 -19.5 -55.5s-28.833 -13.5 -47.5 -13.5h-305c0 -34.667 4.33301 -64.167 13 -88.5s20.5 -44 35.5 -59s32.667 -25.833 53 -32.5
s42.166 -10 65.499 -10c22 0 43.5 2.66699 64.5 8s38.833 12 53.5 20c8 4 13.667 2.66699 17 -4l18 -35c4 -8 2.33301 -13.667 -5 -17c-23.333 -14 -48.333 -23.5 -75 -28.5s-52.667 -7.5 -78 -7.5c-73.333 0 -131 21.5 -173 64.5s-63 111.833 -63 206.5
c0 44.667 5.66699 84.167 17 118.5s27.166 63.166 47.499 86.499s44.333 41 72 53s58.167 18 91.5 18zM421.001 303.001c0 22.667 -2.33398 44.332 -7.00098 64.999s-12.5 38.834 -23.5 54.501s-26.167 28.167 -45.5 37.5s-43.333 14 -72 14
c-23.333 0 -44.166 -4.5 -62.499 -13.5s-33.833 -21.167 -46.5 -36.5s-22.5 -33.333 -29.5 -54s-11.167 -43 -12.5 -67h299zM421 586.999c-5.33301 -3.33301 -11.332 -3.00098 -17.999 0.999023l-127 99l-127 -100c-6 -4 -12 -3.33301 -18 2l-15 16
c-4.66699 4 -5 8.33301 -1 13l125 126c12 12 24 18 36 18c8 0 14.667 -1.16699 20 -3.5s11.666 -7.16602 18.999 -14.499l119 -125c6.66699 -6.66699 7 -13 1 -19z" />
    <glyph glyph-name="edieresis" unicode="&#xeb;" horiz-adv-x="533" 
d="M273 536c38 0 70.668 -5.49902 98.001 -16.499s49.833 -26.5 67.5 -46.5s30.834 -43.667 39.501 -71s13 -57.333 13 -90c0 -28 -6.5 -46.5 -19.5 -55.5s-28.833 -13.5 -47.5 -13.5h-305c0 -34.667 4.33301 -64.167 13 -88.5s20.5 -44 35.5 -59s32.667 -25.833 53 -32.5
s42.166 -10 65.499 -10c22 0 43.5 2.66699 64.5 8s38.833 12 53.5 20c8 4 13.667 2.66699 17 -4l18 -35c4 -8 2.33301 -13.667 -5 -17c-23.333 -14 -48.333 -23.5 -75 -28.5s-52.667 -7.5 -78 -7.5c-73.333 0 -131 21.5 -173 64.5s-63 111.833 -63 206.5
c0 44.667 5.66699 84.167 17 118.5s27.166 63.166 47.499 86.499s44.333 41 72 53s58.167 18 91.5 18zM421.001 303.001c0 22.667 -2.33398 44.332 -7.00098 64.999s-12.5 38.834 -23.5 54.501s-26.167 28.167 -45.5 37.5s-43.333 14 -72 14
c-23.333 0 -44.166 -4.5 -62.499 -13.5s-33.833 -21.167 -46.5 -36.5s-22.5 -33.333 -29.5 -54s-11.167 -43 -12.5 -67h299zM412 671.999c0 -13.333 -4.83301 -24.666 -14.5 -33.999s-20.5 -14 -32.5 -14c-13.333 0 -24.666 4.66699 -33.999 14s-14 20.666 -14 33.999
c0 12 4.66699 22.667 14 32s20.666 14 33.999 14c12 0 22.833 -4.5 32.5 -13.5s14.5 -19.833 14.5 -32.5zM236 671.999c0 -13.333 -4.83301 -24.666 -14.5 -33.999s-20.5 -14 -32.5 -14c-12.667 0 -23.834 4.66699 -33.501 14s-14.5 20.666 -14.5 33.999
c0 12 4.83301 22.667 14.5 32s20.834 14 33.501 14c12 0 22.833 -4.66699 32.5 -14s14.5 -20 14.5 -32z" />
    <glyph glyph-name="igrave" unicode="&#xec;" horiz-adv-x="258" 
d="M165 13c0 -5.33301 -1 -8.83301 -3 -10.5s-5.33301 -2.5 -10 -2.5h-46c-5.33301 -0 -9 0.833008 -11 2.5s-3 5.16699 -3 10.5v499c0 5.33301 1 8.83301 3 10.5s5.66699 2.5 11 2.5h46c4.66699 0 8 -0.833008 10 -2.5s3 -5.16699 3 -10.5v-499zM136 590
c-6.66699 -2.66699 -12.665 -0.668945 -17.998 5.99805l-101 147c-6 7.33301 -4 12 6 14l60 15c5.33301 0.666992 9.16602 0 11.499 -2s4.16602 -4.66699 5.49902 -8l65 -149c2.66699 -5.33301 3.5 -8.66602 2.5 -9.99902s-3.16699 -2.66602 -6.5 -3.99902z" />
    <glyph glyph-name="iacute" unicode="&#xed;" horiz-adv-x="258" 
d="M165 13c0 -5.33301 -1 -8.83301 -3 -10.5s-5.33301 -2.5 -10 -2.5h-46c-5.33301 -0 -9 0.833008 -11 2.5s-3 5.16699 -3 10.5v499c0 5.33301 1 8.83301 3 10.5s5.66699 2.5 11 2.5h46c4.66699 0 8 -0.833008 10 -2.5s3 -5.16699 3 -10.5v-499zM102 599
c-3.33301 1.33301 -5.49805 2.66797 -6.49805 4.00098s-0.166992 4.66602 2.5 9.99902l65 149c1.33301 3.33301 3.16602 6 5.49902 8s6.16602 2.66699 11.499 2l59 -15c10 -2 12 -6.66699 6 -14l-101 -147c-4.66699 -6.66699 -10.667 -8.66699 -18 -6z" />
    <glyph glyph-name="icircumflex" unicode="&#xee;" horiz-adv-x="258" 
d="M165 13c0 -5.33301 -1 -8.83301 -3 -10.5s-5.33301 -2.5 -10 -2.5h-46c-5.33301 -0 -9 0.833008 -11 2.5s-3 5.16699 -3 10.5v499c0 5.33301 1 8.83301 3 10.5s5.66699 2.5 11 2.5h46c4.66699 0 8 -0.833008 10 -2.5s3 -5.16699 3 -10.5v-499zM276 583
c-5.33301 -3.33301 -11.332 -3.00098 -17.999 0.999023l-127 99l-127 -100c-6 -4 -12 -3.33301 -18 2l-15 16c-4.66699 4 -5 8.33301 -1 13l125 126c12 12 24 18 36 18c8 0 14.667 -1.16699 20 -3.5s11.666 -7.16602 18.999 -14.499l119 -125c6.66699 -6.66699 7 -13 1 -19z
" />
    <glyph glyph-name="idieresis" unicode="&#xef;" horiz-adv-x="258" 
d="M165 13c0 -5.33301 -1 -8.83301 -3 -10.5s-5.33301 -2.5 -10 -2.5h-46c-5.33301 -0 -9 0.833008 -11 2.5s-3 5.16699 -3 10.5v499c0 5.33301 1 8.83301 3 10.5s5.66699 2.5 11 2.5h46c4.66699 0 8 -0.833008 10 -2.5s3 -5.16699 3 -10.5v-499zM265 670
c0 -13.333 -4.83301 -24.666 -14.5 -33.999s-20.5 -14 -32.5 -14c-13.333 0 -24.666 4.66699 -33.999 14s-14 20.666 -14 33.999c0 12 4.66699 22.667 14 32s20.666 14 33.999 14c12 0 22.833 -4.5 32.5 -13.5s14.5 -19.833 14.5 -32.5zM89 670
c0 -13.333 -4.83301 -24.666 -14.5 -33.999s-20.5 -14 -32.5 -14c-12.667 0 -23.834 4.66699 -33.501 14s-14.5 20.666 -14.5 33.999c0 12 4.83301 22.667 14.5 32s20.834 14 33.501 14c12 0 22.833 -4.66699 32.5 -14s14.5 -20 14.5 -32z" />
    <glyph glyph-name="eth" unicode="&#xf0;" horiz-adv-x="542" 
d="M402 448c-9.33301 30 -22.501 58.1689 -39.501 84.502s-36.167 49.833 -57.5 70.5l-65 -56c-6 -6 -12 -5.33301 -18 2l-11 11c-3.33301 3.33301 -5.16602 6.33301 -5.49902 9s1.5 5.66699 5.5 9l62 54c-14.667 11.333 -29.667 22.166 -45 32.499
s-31.666 20.166 -48.999 29.499c-6 3.33301 -8.66699 6.66602 -8 9.99902s1.66699 6.33301 3 9l12 19c4.66699 8 9 11.667 13 11s8 -1.66699 12 -3c41.333 -20.667 77.333 -43 108 -67l71 59c3.33301 4 6.33301 5.5 9 4.5s5.66699 -3.16699 9 -6.5l10 -12
c3.33301 -4 5.16602 -7 5.49902 -9s-1.16699 -4.66699 -4.5 -8l-68 -58c48 -45.333 84.333 -98.666 109 -159.999s37 -127 37 -197c0 -19.333 -1.16699 -40 -3.5 -62s-6.5 -44 -12.5 -66s-14.333 -43 -25 -63s-24.5 -37.667 -41.5 -53s-37.667 -27.666 -62 -36.999
s-52.833 -14 -85.5 -14c-45.333 0 -82.333 7.5 -111 22.5s-51.334 34.167 -68.001 57.5s-28 49.166 -34 77.499s-9 55.833 -9 82.5c0 27.333 4 55.5 12 84.5s20.833 55.333 38.5 79s40.834 43.167 69.501 58.5s63.667 23 105 23c22.667 0 45 -2.83301 67 -8.5
s42.333 -13.167 61 -22.5zM276.999 416.002c-30.667 0 -56.1709 -5.66504 -76.5039 -16.998s-36.666 -25.833 -48.999 -43.5s-21 -37.334 -26 -59.001s-7.5 -42.5 -7.5 -62.5c0 -19.333 1.66699 -39.833 5 -61.5s10.333 -41.5 21 -59.5s25.834 -33 45.501 -45
s45.5 -18 77.5 -18s58.333 6.5 79 19.5s37 29.833 49 50.5s20.333 43.667 25 69s7 50.666 7 75.999c0 20 -0.833008 39.167 -2.5 57.5s-4.16699 33.5 -7.5 45.5c-23.333 18 -47.666 30.5 -72.999 37.5s-47.666 10.5 -66.999 10.5z" />
    <glyph glyph-name="ntilde" unicode="&#xf1;" horiz-adv-x="555" 
d="M490 13c0 -5.33301 -0.999023 -8.83203 -2.99902 -10.499s-5.66699 -2.5 -11 -2.5h-46c-4.66699 0 -8.16699 0.833008 -10.5 2.5s-3.5 5.16699 -3.5 10.5v267c0 32 -2.5 60 -7.5 84s-13.833 43.833 -26.5 59.5s-30.167 27.5 -52.5 35.5s-50.5 12 -84.5 12
c-8 0 -22 -0.5 -42 -1.5s-41.667 -3.83301 -65 -8.5v-448c0 -5.33301 -1 -8.83301 -3 -10.5s-5.66699 -2.5 -11 -2.5h-45c-4.66699 0 -8.16699 0.833008 -10.5 2.5s-3.5 5.16699 -3.5 10.5v447c0 38 18 60 54 66c8 1.33301 17.833 2.66602 29.5 3.99902s23.667 2.5 36 3.5
s24.333 1.66699 36 2s21.5 0.5 29.5 0.5c42.667 0 79.167 -4.66699 109.5 -14s55.166 -24 74.499 -44s33.5 -46 42.5 -78s13.5 -70.667 13.5 -116v-271zM324.001 627.001c-12.667 0 -24.832 1.99609 -36.499 5.99609s-23 8.5 -34 13.5s-21.833 9.5 -32.5 13.5
s-21.334 6 -32.001 6c-10 0 -19.5 -2.66699 -28.5 -8s-16.167 -12.666 -21.5 -21.999c-2 -3.33301 -4.16699 -5.5 -6.5 -6.5s-5.83301 -0.166992 -10.5 2.5l-25 11c-4.66699 2 -7.66699 4 -9 6s-1 5 1 9c12 20 26.667 35.667 44 47s36.666 17 57.999 17
c11.333 0 22.833 -2.16699 34.5 -6.5s23 -9 34 -14s21.5 -9.5 31.5 -13.5s19.667 -6 29 -6c22.667 0 39.334 10 50.001 30c2 4.66699 3.83301 7.33398 5.5 8.00098s4.83398 0.333984 9.50098 -0.999023l29 -9c9.33301 -3.33301 12.333 -7.66602 9 -12.999
c-12 -23.333 -25.833 -40.833 -41.5 -52.5s-34.834 -17.5 -57.501 -17.5z" />
    <glyph glyph-name="ograve" unicode="&#xf2;" horiz-adv-x="550" 
d="M505 265c0 -89.333 -20 -157.666 -60 -204.999s-97.333 -71 -172 -71c-74 0 -130.5 23.167 -169.5 69.5s-58.5 114.166 -58.5 203.499c0 44 5.66699 83.167 17 117.5s27.333 63 48 86s45 40.5 73 52.5s59 18 93 18c74.667 0 131.5 -23.833 170.5 -71.5
s58.5 -114.167 58.5 -199.5zM431 262c0 27.333 -2.33398 53.8311 -7.00098 79.498s-12.667 48.334 -24 68.001s-27.166 35.334 -47.499 47.001s-45.833 17.5 -76.5 17.5c-28 0 -52 -5.66699 -72 -17s-36.333 -26.5 -49 -45.5s-22 -41.167 -28 -66.5s-9 -52 -9 -80
c0 -31.333 2.66699 -60 8 -86s14 -48.667 26 -68s28 -34.333 48 -45s44.667 -16 74 -16c30 0 55.167 6.16699 75.5 18.5s36.5 28.5 48.5 48.5s20.5 42.667 25.5 68s7.5 51 7.5 77zM293.999 589.998c-6.66699 -2.66699 -12.665 -0.668945 -17.998 5.99805l-101 147
c-6 7.33301 -4 12 6 14l60 15c5.33301 0.666992 9.16602 0 11.499 -2s4.16602 -4.66699 5.49902 -8l65 -149c2.66699 -5.33301 3.5 -8.66602 2.5 -9.99902s-3.16699 -2.66602 -6.5 -3.99902z" />
    <glyph glyph-name="oacute" unicode="&#xf3;" horiz-adv-x="550" 
d="M505 265c0 -89.333 -20 -157.666 -60 -204.999s-97.333 -71 -172 -71c-74 0 -130.5 23.167 -169.5 69.5s-58.5 114.166 -58.5 203.499c0 44 5.66699 83.167 17 117.5s27.333 63 48 86s45 40.5 73 52.5s59 18 93 18c74.667 0 131.5 -23.833 170.5 -71.5
s58.5 -114.167 58.5 -199.5zM431 262c0 27.333 -2.33398 53.8311 -7.00098 79.498s-12.667 48.334 -24 68.001s-27.166 35.334 -47.499 47.001s-45.833 17.5 -76.5 17.5c-28 0 -52 -5.66699 -72 -17s-36.333 -26.5 -49 -45.5s-22 -41.167 -28 -66.5s-9 -52 -9 -80
c0 -31.333 2.66699 -60 8 -86s14 -48.667 26 -68s28 -34.333 48 -45s44.667 -16 74 -16c30 0 55.167 6.16699 75.5 18.5s36.5 28.5 48.5 48.5s20.5 42.667 25.5 68s7.5 51 7.5 77zM242.999 598.998c-3.33301 1.33301 -5.49805 2.66797 -6.49805 4.00098
s-0.166992 4.66602 2.5 9.99902l65 149c1.33301 3.33301 3.16602 6 5.49902 8s6.16602 2.66699 11.499 2l59 -15c10 -2 12 -6.66699 6 -14l-101 -147c-4.66699 -6.66699 -10.667 -8.66699 -18 -6z" />
    <glyph glyph-name="ocircumflex" unicode="&#xf4;" horiz-adv-x="550" 
d="M505 265c0 -89.333 -20 -157.666 -60 -204.999s-97.333 -71 -172 -71c-74 0 -130.5 23.167 -169.5 69.5s-58.5 114.166 -58.5 203.499c0 44 5.66699 83.167 17 117.5s27.333 63 48 86s45 40.5 73 52.5s59 18 93 18c74.667 0 131.5 -23.833 170.5 -71.5
s58.5 -114.167 58.5 -199.5zM431 262c0 27.333 -2.33398 53.8311 -7.00098 79.498s-12.667 48.334 -24 68.001s-27.166 35.334 -47.499 47.001s-45.833 17.5 -76.5 17.5c-28 0 -52 -5.66699 -72 -17s-36.333 -26.5 -49 -45.5s-22 -41.167 -28 -66.5s-9 -52 -9 -80
c0 -31.333 2.66699 -60 8 -86s14 -48.667 26 -68s28 -34.333 48 -45s44.667 -16 74 -16c30 0 55.167 6.16699 75.5 18.5s36.5 28.5 48.5 48.5s20.5 42.667 25.5 68s7.5 51 7.5 77zM423.999 586.998c-5.33301 -3.33301 -11.332 -3.00098 -17.999 0.999023l-127 99l-127 -100
c-6 -4 -12 -3.33301 -18 2l-15 16c-4.66699 4 -5 8.33301 -1 13l125 126c12 12 24 18 36 18c8 0 14.667 -1.16699 20 -3.5s11.666 -7.16602 18.999 -14.499l119 -125c6.66699 -6.66699 7 -13 1 -19z" />
    <glyph glyph-name="otilde" unicode="&#xf5;" horiz-adv-x="550" 
d="M505 265c0 -89.333 -20 -157.666 -60 -204.999s-97.333 -71 -172 -71c-74 0 -130.5 23.167 -169.5 69.5s-58.5 114.166 -58.5 203.499c0 44 5.66699 83.167 17 117.5s27.333 63 48 86s45 40.5 73 52.5s59 18 93 18c74.667 0 131.5 -23.833 170.5 -71.5
s58.5 -114.167 58.5 -199.5zM431 262c0 27.333 -2.33398 53.8311 -7.00098 79.498s-12.667 48.334 -24 68.001s-27.166 35.334 -47.499 47.001s-45.833 17.5 -76.5 17.5c-28 0 -52 -5.66699 -72 -17s-36.333 -26.5 -49 -45.5s-22 -41.167 -28 -66.5s-9 -52 -9 -80
c0 -31.333 2.66699 -60 8 -86s14 -48.667 26 -68s28 -34.333 48 -45s44.667 -16 74 -16c30 0 55.167 6.16699 75.5 18.5s36.5 28.5 48.5 48.5s20.5 42.667 25.5 68s7.5 51 7.5 77zM346.999 623.998c-12.667 0 -24.832 1.99609 -36.499 5.99609s-23 8.5 -34 13.5
s-21.833 9.5 -32.5 13.5s-21.334 6 -32.001 6c-10 0 -19.5 -2.66699 -28.5 -8s-16.167 -12.666 -21.5 -21.999c-2 -3.33301 -4.16699 -5.5 -6.5 -6.5s-5.83301 -0.166992 -10.5 2.5l-25 11c-4.66699 2 -7.66699 4 -9 6s-1 5 1 9c12 20 26.667 35.667 44 47
s36.666 17 57.999 17c11.333 0 22.833 -2.16699 34.5 -6.5s23 -9 34 -14s21.5 -9.5 31.5 -13.5s19.667 -6 29 -6c22.667 0 39.334 10 50.001 30c2 4.66699 3.83301 7.33398 5.5 8.00098s4.83398 0.333984 9.50098 -0.999023l29 -9
c9.33301 -3.33301 12.333 -7.66602 9 -12.999c-12 -23.333 -25.833 -40.833 -41.5 -52.5s-34.834 -17.5 -57.501 -17.5z" />
    <glyph glyph-name="odieresis" unicode="&#xf6;" horiz-adv-x="550" 
d="M505 265c0 -89.333 -20 -157.666 -60 -204.999s-97.333 -71 -172 -71c-74 0 -130.5 23.167 -169.5 69.5s-58.5 114.166 -58.5 203.499c0 44 5.66699 83.167 17 117.5s27.333 63 48 86s45 40.5 73 52.5s59 18 93 18c74.667 0 131.5 -23.833 170.5 -71.5
s58.5 -114.167 58.5 -199.5zM431 262c0 27.333 -2.33398 53.8311 -7.00098 79.498s-12.667 48.334 -24 68.001s-27.166 35.334 -47.499 47.001s-45.833 17.5 -76.5 17.5c-28 0 -52 -5.66699 -72 -17s-36.333 -26.5 -49 -45.5s-22 -41.167 -28 -66.5s-9 -52 -9 -80
c0 -31.333 2.66699 -60 8 -86s14 -48.667 26 -68s28 -34.333 48 -45s44.667 -16 74 -16c30 0 55.167 6.16699 75.5 18.5s36.5 28.5 48.5 48.5s20.5 42.667 25.5 68s7.5 51 7.5 77zM407.999 669.998c0 -13.333 -4.83301 -24.666 -14.5 -33.999s-20.5 -14 -32.5 -14
c-13.333 0 -24.666 4.66699 -33.999 14s-14 20.666 -14 33.999c0 12 4.66699 22.667 14 32s20.666 14 33.999 14c12 0 22.833 -4.5 32.5 -13.5s14.5 -19.833 14.5 -32.5zM231.999 669.998c0 -13.333 -4.83301 -24.666 -14.5 -33.999s-20.5 -14 -32.5 -14
c-12.667 0 -23.834 4.66699 -33.501 14s-14.5 20.666 -14.5 33.999c0 12 4.83301 22.667 14.5 32s20.834 14 33.501 14c12 0 22.833 -4.66699 32.5 -14s14.5 -20 14.5 -32z" />
    <glyph glyph-name="divide" unicode="&#xf7;" horiz-adv-x="583" 
d="M354 526c0 -17.333 -5.83105 -31.833 -17.498 -43.5s-25.834 -17.5 -42.501 -17.5c-17.333 0 -31.833 5.83301 -43.5 17.5s-17.5 26.167 -17.5 43.5s5.83301 31.666 17.5 42.999s26.167 17 43.5 17s31.666 -5.66699 42.999 -17s17 -25.666 17 -42.999zM354.002 155
c0 -17.333 -5.83105 -31.668 -17.498 -43.001s-25.834 -17 -42.501 -17c-17.333 0 -31.833 5.5 -43.5 16.5s-17.5 25.167 -17.5 42.5s5.83301 31.833 17.5 43.5s26.167 17.5 43.5 17.5s31.666 -5.66699 42.999 -17s17 -25.666 17 -42.999zM65.0039 307.998
c-5.33301 0 -8.83301 1 -10.5 3s-2.5 5.66699 -2.5 11v44c0 4.66699 0.833008 8.16699 2.5 10.5s5.16699 3.5 10.5 3.5h452c5.33301 0 8.83301 -1.16699 10.5 -3.5s2.5 -5.83301 2.5 -10.5v-44c0 -5.33301 -0.833008 -9 -2.5 -11s-5.16699 -3 -10.5 -3h-452z" />
    <glyph glyph-name="oslash" unicode="&#xf8;" horiz-adv-x="550" 
d="M80 1c-4.66699 -5.33301 -9 -5.66797 -13 -1.00098l-15 13c-6 4 -6 8.66699 0 14l39 48c-30.667 44.667 -46 107 -46 187c0 44 5.66699 83.167 17 117.5s27.333 63 48 86s45 40.5 73 52.5s59 18 93 18c64.667 0 116.667 -19 156 -57l42 48c4 4.66699 8.66699 5 14 1
l15 -14c2.66699 -2 4 -3.83301 4 -5.5s-1.33301 -4.16699 -4 -7.5l-45 -53c31.333 -46.667 47 -107.667 47 -183c0 -89.333 -20 -157.666 -60 -204.999s-97.333 -71 -172 -71c-67.333 0 -119.333 18.333 -156 55zM431 261.998c0 23.333 -1.66602 46 -4.99902 68
s-9.33301 42.333 -18 61l-246 -294c12.667 -15.333 28.167 -27 46.5 -35s40.166 -12 65.499 -12c30 0 55.167 6.16699 75.5 18.5s36.5 28.5 48.5 48.5s20.5 42.667 25.5 68s7.5 51 7.5 77zM118.001 264.998c0 -25.333 1.83203 -49.333 5.49902 -72
s9.83398 -42.667 18.501 -60l245 294c-12 14.667 -27 26.167 -45 34.5s-40 12.5 -66 12.5c-28 0 -52 -5.66699 -72 -17s-36.333 -26.5 -49 -45.5s-22 -41.167 -28 -66.5s-9 -52 -9 -80z" />
    <glyph glyph-name="ugrave" unicode="&#xf9;" horiz-adv-x="549" 
d="M65 513c0 5.33301 0.999023 8.83203 2.99902 10.499s5.66699 2.5 11 2.5h45c5.33301 0 9 -0.833008 11 -2.5s3 -5.16699 3 -10.5v-272c0 -32.667 2 -60.667 6 -84s12 -42.5 24 -57.5s28.833 -26.167 50.5 -33.5s50.167 -11 85.5 -11c8 0 21.833 0.5 41.5 1.5
s41.167 3.83301 64.5 8.5v448c0 5.33301 1 8.83301 3 10.5s5.66699 2.5 11 2.5h46c4.66699 0 8.16699 -0.833008 10.5 -2.5s3.5 -5.16699 3.5 -10.5v-448c0 -37.333 -18.333 -59.333 -55 -66c-9.33301 -1.33301 -19.833 -2.66602 -31.5 -3.99902s-23.5 -2.33301 -35.5 -3
s-23.5 -1.16699 -34.5 -1.5s-20.5 -0.5 -28.5 -0.5c-43.333 0 -79.833 4.33301 -109.5 13s-53.667 22.667 -72 42s-31.666 44.5 -39.999 75.5s-12.5 69.167 -12.5 114.5v278zM289.999 589.999c-6.66699 -2.66699 -12.665 -0.668945 -17.998 5.99805l-101 147
c-6 7.33301 -4 12 6 14l60 15c5.33301 0.666992 9.16602 0 11.499 -2s4.16602 -4.66699 5.49902 -8l65 -149c2.66699 -5.33301 3.5 -8.66602 2.5 -9.99902s-3.16699 -2.66602 -6.5 -3.99902z" />
    <glyph glyph-name="uacute" unicode="&#xfa;" horiz-adv-x="549" 
d="M65 513c0 5.33301 0.999023 8.83203 2.99902 10.499s5.66699 2.5 11 2.5h45c5.33301 0 9 -0.833008 11 -2.5s3 -5.16699 3 -10.5v-272c0 -32.667 2 -60.667 6 -84s12 -42.5 24 -57.5s28.833 -26.167 50.5 -33.5s50.167 -11 85.5 -11c8 0 21.833 0.5 41.5 1.5
s41.167 3.83301 64.5 8.5v448c0 5.33301 1 8.83301 3 10.5s5.66699 2.5 11 2.5h46c4.66699 0 8.16699 -0.833008 10.5 -2.5s3.5 -5.16699 3.5 -10.5v-448c0 -37.333 -18.333 -59.333 -55 -66c-9.33301 -1.33301 -19.833 -2.66602 -31.5 -3.99902s-23.5 -2.33301 -35.5 -3
s-23.5 -1.16699 -34.5 -1.5s-20.5 -0.5 -28.5 -0.5c-43.333 0 -79.833 4.33301 -109.5 13s-53.667 22.667 -72 42s-31.666 44.5 -39.999 75.5s-12.5 69.167 -12.5 114.5v278zM248.999 598.999c-3.33301 1.33301 -5.49805 2.66797 -6.49805 4.00098
s-0.166992 4.66602 2.5 9.99902l65 149c1.33301 3.33301 3.16602 6 5.49902 8s6.16602 2.66699 11.499 2l59 -15c10 -2 12 -6.66699 6 -14l-101 -147c-4.66699 -6.66699 -10.667 -8.66699 -18 -6z" />
    <glyph glyph-name="ucircumflex" unicode="&#xfb;" horiz-adv-x="549" 
d="M65 513c0 5.33301 0.999023 8.83203 2.99902 10.499s5.66699 2.5 11 2.5h45c5.33301 0 9 -0.833008 11 -2.5s3 -5.16699 3 -10.5v-272c0 -32.667 2 -60.667 6 -84s12 -42.5 24 -57.5s28.833 -26.167 50.5 -33.5s50.167 -11 85.5 -11c8 0 21.833 0.5 41.5 1.5
s41.167 3.83301 64.5 8.5v448c0 5.33301 1 8.83301 3 10.5s5.66699 2.5 11 2.5h46c4.66699 0 8.16699 -0.833008 10.5 -2.5s3.5 -5.16699 3.5 -10.5v-448c0 -37.333 -18.333 -59.333 -55 -66c-9.33301 -1.33301 -19.833 -2.66602 -31.5 -3.99902s-23.5 -2.33301 -35.5 -3
s-23.5 -1.16699 -34.5 -1.5s-20.5 -0.5 -28.5 -0.5c-43.333 0 -79.833 4.33301 -109.5 13s-53.667 22.667 -72 42s-31.666 44.5 -39.999 75.5s-12.5 69.167 -12.5 114.5v278zM425.999 586.999c-5.33301 -3.33301 -11.332 -3.00098 -17.999 0.999023l-127 99l-127 -100
c-6 -4 -12 -3.33301 -18 2l-15 16c-4.66699 4 -5 8.33301 -1 13l125 126c12 12 24 18 36 18c8 0 14.667 -1.16699 20 -3.5s11.666 -7.16602 18.999 -14.499l119 -125c6.66699 -6.66699 7 -13 1 -19z" />
    <glyph glyph-name="udieresis" unicode="&#xfc;" horiz-adv-x="549" 
d="M65 513c0 5.33301 0.999023 8.83203 2.99902 10.499s5.66699 2.5 11 2.5h45c5.33301 0 9 -0.833008 11 -2.5s3 -5.16699 3 -10.5v-272c0 -32.667 2 -60.667 6 -84s12 -42.5 24 -57.5s28.833 -26.167 50.5 -33.5s50.167 -11 85.5 -11c8 0 21.833 0.5 41.5 1.5
s41.167 3.83301 64.5 8.5v448c0 5.33301 1 8.83301 3 10.5s5.66699 2.5 11 2.5h46c4.66699 0 8.16699 -0.833008 10.5 -2.5s3.5 -5.16699 3.5 -10.5v-448c0 -37.333 -18.333 -59.333 -55 -66c-9.33301 -1.33301 -19.833 -2.66602 -31.5 -3.99902s-23.5 -2.33301 -35.5 -3
s-23.5 -1.16699 -34.5 -1.5s-20.5 -0.5 -28.5 -0.5c-43.333 0 -79.833 4.33301 -109.5 13s-53.667 22.667 -72 42s-31.666 44.5 -39.999 75.5s-12.5 69.167 -12.5 114.5v278zM415.999 669.999c0 -13.333 -4.83301 -24.666 -14.5 -33.999s-20.5 -14 -32.5 -14
c-13.333 0 -24.666 4.66699 -33.999 14s-14 20.666 -14 33.999c0 12 4.66699 22.667 14 32s20.666 14 33.999 14c12 0 22.833 -4.5 32.5 -13.5s14.5 -19.833 14.5 -32.5zM239.999 669.999c0 -13.333 -4.83301 -24.666 -14.5 -33.999s-20.5 -14 -32.5 -14
c-12.667 0 -23.834 4.66699 -33.501 14s-14.5 20.666 -14.5 33.999c0 12 4.83301 22.667 14.5 32s20.834 14 33.501 14c12 0 22.833 -4.66699 32.5 -14s14.5 -20 14.5 -32z" />
    <glyph glyph-name="yacute" unicode="&#xfd;" horiz-adv-x="479" 
d="M262 -88c-15.333 -45.333 -34.1641 -76.8359 -56.4971 -94.5029s-51.166 -26.5 -86.499 -26.5c-9.33301 0 -20.833 0.5 -34.5 1.5s-28.834 4.16699 -45.501 9.5c-9.33301 2.66699 -13 7.66699 -11 15l10 37c1.33301 4.66699 3.16602 7.33398 5.49902 8.00098
s5.5 0.333984 9.5 -0.999023c14 -3.33301 24.5 -5.5 31.5 -6.5s14.5 -1.5 22.5 -1.5c10.667 0 20.334 0.833008 29.001 2.5s16.5 5 23.5 10s13.5 12 19.5 21s11.333 20.833 16 35.5l30 82h-17c-7.33301 0 -14 1.33301 -20 4s-11.333 11 -16 25l-160 482
c-2 6.66699 0.333008 10 7 10h55c4.66699 0 7.66699 -0.666992 9 -2s2.66602 -3.66602 3.99902 -6.99902l20.5 -63l28.5 -85.5l28 -85.5c8.66699 -27.333 15.667 -48.333 21 -63c2 -5.33301 5.16699 -15.833 9.5 -31.5l14.5 -50.5l15 -51c4.66699 -16 8 -26.667 10 -32h5
l14.5 45l17 53.5l15 47.5c4.33301 14 7.16602 22.667 8.49902 26c2 4.66699 6.16699 16.5 12.5 35.5l23.5 69.5l31 89l34 95c1.33301 3.33301 2.66602 5.83301 3.99902 7.5s4.33301 2.5 9 2.5h52c7.33301 0 10 -3.33301 8 -10zM220.002 598.997
c-3.33301 1.33301 -5.49805 2.66797 -6.49805 4.00098s-0.166992 4.66602 2.5 9.99902l65 149c1.33301 3.33301 3.16602 6 5.49902 8s6.16602 2.66699 11.499 2l59 -15c10 -2 12 -6.66699 6 -14l-101 -147c-4.66699 -6.66699 -10.667 -8.66699 -18 -6z" />
    <glyph glyph-name="thorn" unicode="&#xfe;" horiz-adv-x="551" 
d="M506 264c0 -38.667 -4.6709 -74.667 -14.0039 -108s-23.666 -62.333 -42.999 -87s-43.5 -44.167 -72.5 -58.5s-62.833 -21.5 -101.5 -21.5c-19.333 0 -40.666 1.33301 -63.999 4s-47.666 7.66699 -72.999 15v-199c0 -5.33301 -0.833008 -8.66602 -2.5 -9.99902
s-5.16699 -2 -10.5 -2h-46c-4.66699 0 -8.16699 0.666992 -10.5 2s-3.5 4.66602 -3.5 9.99902v910c0 5.33301 1 8.66602 3 9.99902s5.66699 2 11 2h46c4.66699 0 8.16699 -0.666992 10.5 -2s3.5 -4.66602 3.5 -9.99902v-199c22.667 6 45.834 10.167 69.501 12.5
s46.5 3.5 68.5 3.5c39.333 0 73.5 -6.66699 102.5 -20s52.833 -32 71.5 -56s32.5 -52.667 41.5 -86s13.5 -70 13.5 -110zM429.996 264c0 39.333 -3.99902 72.332 -11.999 98.999s-19.333 48.167 -34 64.5s-32 28 -52 35s-42.333 10.5 -67 10.5c-18 0 -39 -1.83301 -63 -5.5
s-45 -9.16699 -63 -16.5v-59.5v-72.5v-77v-72.5c0 -22.333 -0.166992 -42 -0.5 -59s-0.5 -29.5 -0.5 -37.5c28 -9.33301 52.167 -15.166 72.5 -17.499s38.166 -3.5 53.499 -3.5c24 0 46.167 3.83301 66.5 11.5s37.833 20 52.5 37s26.167 39 34.5 66s12.5 59.5 12.5 97.5z
" />
    <glyph glyph-name="ydieresis" unicode="&#xff;" horiz-adv-x="479" 
d="M262 -88c-15.333 -45.333 -34.1641 -76.8359 -56.4971 -94.5029s-51.166 -26.5 -86.499 -26.5c-9.33301 0 -20.833 0.5 -34.5 1.5s-28.834 4.16699 -45.501 9.5c-9.33301 2.66699 -13 7.66699 -11 15l10 37c1.33301 4.66699 3.16602 7.33398 5.49902 8.00098
s5.5 0.333984 9.5 -0.999023c14 -3.33301 24.5 -5.5 31.5 -6.5s14.5 -1.5 22.5 -1.5c10.667 0 20.334 0.833008 29.001 2.5s16.5 5 23.5 10s13.5 12 19.5 21s11.333 20.833 16 35.5l30 82h-17c-7.33301 0 -14 1.33301 -20 4s-11.333 11 -16 25l-160 482
c-2 6.66699 0.333008 10 7 10h55c4.66699 0 7.66699 -0.666992 9 -2s2.66602 -3.66602 3.99902 -6.99902l20.5 -63l28.5 -85.5l28 -85.5c8.66699 -27.333 15.667 -48.333 21 -63c2 -5.33301 5.16699 -15.833 9.5 -31.5l14.5 -50.5l15 -51c4.66699 -16 8 -26.667 10 -32h5
l14.5 45l17 53.5l15 47.5c4.33301 14 7.16602 22.667 8.49902 26c2 4.66699 6.16699 16.5 12.5 35.5l23.5 69.5l31 89l34 95c1.33301 3.33301 2.66602 5.83301 3.99902 7.5s4.33301 2.5 9 2.5h52c7.33301 0 10 -3.33301 8 -10zM373.002 669.997
c0 -13.333 -4.83301 -24.666 -14.5 -33.999s-20.5 -14 -32.5 -14c-13.333 0 -24.666 4.66699 -33.999 14s-14 20.666 -14 33.999c0 12 4.66699 22.667 14 32s20.666 14 33.999 14c12 0 22.833 -4.5 32.5 -13.5s14.5 -19.833 14.5 -32.5zM197.002 669.997
c0 -13.333 -4.83301 -24.666 -14.5 -33.999s-20.5 -14 -32.5 -14c-12.667 0 -23.834 4.66699 -33.501 14s-14.5 20.666 -14.5 33.999c0 12 4.83301 22.667 14.5 32s20.834 14 33.501 14c12 0 22.833 -4.66699 32.5 -14s14.5 -20 14.5 -32z" />
    <glyph glyph-name="Amacron" unicode="&#x100;" horiz-adv-x="605" 
d="M524 0c-5.33301 0 -9.49707 0.500977 -12.4971 1.50098s-5.5 4.83301 -7.5 11.5l-53 154h-297c-2 -4.66699 -5.5 -14.5 -10.5 -29.5l-16 -48l-16 -47.5c-5 -14.667 -8.5 -24.334 -10.5 -29.001c-2.66699 -8.66699 -8.66699 -13 -18 -13h-57
c-5.33301 0 -8.83301 1.66699 -10.5 5s-1.83398 7 -0.500977 11l231 651c5.33301 14 10.666 23.167 15.999 27.5s14.666 6.83301 27.999 7.5h26c15.333 0 25.666 -2.5 30.999 -7.5s10.333 -14.167 15 -27.5l228 -651c1.33301 -3.33301 1.33301 -6.83301 0 -10.5
s-4.66602 -5.5 -9.99902 -5.5h-56zM354.003 465.001l-49 152h-5l-48 -148l-77 -233h254zM183.003 776.001c-5.33301 0 -8.83301 1 -10.5 3s-2.5 5.66699 -2.5 11v32c0 5.33301 0.833008 9 2.5 11s5.16699 3 10.5 3h237c5.33301 0 8.66602 -1 9.99902 -3s2 -5.66699 2 -11
v-32c0 -5.33301 -0.666992 -9 -2 -11s-4.66602 -3 -9.99902 -3h-237z" />
    <glyph glyph-name="amacron" unicode="&#x101;" horiz-adv-x="530" 
d="M465 46c0 -12 -4.66797 -20.002 -14.001 -24.002c-30 -12.667 -62 -21.334 -96 -26.001s-66.667 -7 -98 -7c-42.667 0 -77.667 4.66699 -105 14s-49 21.5 -65 36.5s-27.167 32.333 -33.5 52s-9.5 40.167 -9.5 61.5c0 24.667 4.33301 47.834 13 69.501
s21.834 40.5 39.501 56.5s39.834 28.5 66.501 37.5s58.334 13.5 95.001 13.5h133v27c0 16.667 -1.66699 32.167 -5 46.5s-9.66602 26.5 -18.999 36.5s-22.333 17.833 -39 23.5s-38.334 8.5 -65.001 8.5c-22 0 -46.167 -2.16699 -72.5 -6.5s-48.833 -9.5 -67.5 -15.5
c-4.66699 -1.33301 -8.33398 -1.83301 -11.001 -1.5s-4.66699 2.83301 -6 7.5l-10 36c-2 7.33301 0.666992 12.333 8 15c12 4.66699 25 8.83398 39 12.501s28.5 6.83398 43.5 9.50098s30.167 4.5 45.5 5.5s29.666 1.5 42.999 1.5c64.667 0 112.5 -14.333 143.5 -43
s46.5 -70.667 46.5 -126v-321zM389.999 265.998h-129c-12 0 -26.333 -1 -43 -3s-32.5 -6.83301 -47.5 -14.5s-27.667 -19 -38 -34s-15.5 -35.5 -15.5 -61.5c0 -20 3.83301 -36.667 11.5 -50s18 -24 31 -32s27.833 -13.5 44.5 -16.5s34 -4.5 52 -4.5
c6 0 14.167 0.333008 24.5 1s21.833 1.66699 34.5 3s25.5 3.5 38.5 6.5s25.167 6.5 36.5 10.5v195zM155.999 633.998c-5.33301 0 -8.83301 1 -10.5 3s-2.5 5.66699 -2.5 11v32c0 5.33301 0.833008 9 2.5 11s5.16699 3 10.5 3h237c5.33301 0 8.66602 -1 9.99902 -3
s2 -5.66699 2 -11v-32c0 -5.33301 -0.666992 -9 -2 -11s-4.66602 -3 -9.99902 -3h-237z" />
    <glyph glyph-name="Abreve" unicode="&#x102;" horiz-adv-x="605" 
d="M524 0c-5.33301 0 -9.49707 0.500977 -12.4971 1.50098s-5.5 4.83301 -7.5 11.5l-53 154h-297c-2 -4.66699 -5.5 -14.5 -10.5 -29.5l-16 -48l-16 -47.5c-5 -14.667 -8.5 -24.334 -10.5 -29.001c-2.66699 -8.66699 -8.66699 -13 -18 -13h-57
c-5.33301 0 -8.83301 1.66699 -10.5 5s-1.83398 7 -0.500977 11l231 651c5.33301 14 10.666 23.167 15.999 27.5s14.666 6.83301 27.999 7.5h26c15.333 0 25.666 -2.5 30.999 -7.5s10.333 -14.167 15 -27.5l228 -651c1.33301 -3.33301 1.33301 -6.83301 0 -10.5
s-4.66602 -5.5 -9.99902 -5.5h-56zM354.003 465.001l-49 152h-5l-48 -148l-77 -233h254zM299.003 742.001c-32 0 -61.332 9.66602 -87.999 28.999s-49 43.333 -67 72c-1.33301 2 -2.33301 4.5 -3 7.5s1 6.16699 5 9.5l17 14c5.33301 3.33301 9 4.33301 11 3
s4.66699 -3.66602 8 -6.99902c18 -22 37.667 -38.833 59 -50.5s41.666 -17.5 60.999 -17.5c15.333 0 32.5 4.5 51.5 13.5s41.167 27.833 66.5 56.5c4.66699 4.66699 8 7 10 7s4.66699 -1 8 -3l17 -13c5.33301 -4.66699 7.33301 -8.66699 6 -12s-3 -6.33301 -5 -9
c-25.333 -36 -51.5 -61.667 -78.5 -77s-53.167 -23 -78.5 -23z" />
    <glyph glyph-name="abreve" unicode="&#x103;" horiz-adv-x="530" 
d="M465 46c0 -12 -4.66797 -20.002 -14.001 -24.002c-30 -12.667 -62 -21.334 -96 -26.001s-66.667 -7 -98 -7c-42.667 0 -77.667 4.66699 -105 14s-49 21.5 -65 36.5s-27.167 32.333 -33.5 52s-9.5 40.167 -9.5 61.5c0 24.667 4.33301 47.834 13 69.501
s21.834 40.5 39.501 56.5s39.834 28.5 66.501 37.5s58.334 13.5 95.001 13.5h133v27c0 16.667 -1.66699 32.167 -5 46.5s-9.66602 26.5 -18.999 36.5s-22.333 17.833 -39 23.5s-38.334 8.5 -65.001 8.5c-22 0 -46.167 -2.16699 -72.5 -6.5s-48.833 -9.5 -67.5 -15.5
c-4.66699 -1.33301 -8.33398 -1.83301 -11.001 -1.5s-4.66699 2.83301 -6 7.5l-10 36c-2 7.33301 0.666992 12.333 8 15c12 4.66699 25 8.83398 39 12.501s28.5 6.83398 43.5 9.50098s30.167 4.5 45.5 5.5s29.666 1.5 42.999 1.5c64.667 0 112.5 -14.333 143.5 -43
s46.5 -70.667 46.5 -126v-321zM389.999 265.998h-129c-12 0 -26.333 -1 -43 -3s-32.5 -6.83301 -47.5 -14.5s-27.667 -19 -38 -34s-15.5 -35.5 -15.5 -61.5c0 -20 3.83301 -36.667 11.5 -50s18 -24 31 -32s27.833 -13.5 44.5 -16.5s34 -4.5 52 -4.5
c6 0 14.167 0.333008 24.5 1s21.833 1.66699 34.5 3s25.5 3.5 38.5 6.5s25.167 6.5 36.5 10.5v195zM279.999 596.998c-32 0 -61.332 9.66602 -87.999 28.999s-49 43.333 -67 72c-1.33301 2 -2.33301 4.5 -3 7.5s1 6.16699 5 9.5l17 14c5.33301 3.33301 9 4.33301 11 3
s4.66699 -3.66602 8 -6.99902c18 -22 37.667 -38.833 59 -50.5s41.666 -17.5 60.999 -17.5c15.333 0 32.5 4.5 51.5 13.5s41.167 27.833 66.5 56.5c4.66699 4.66699 8 7 10 7s4.66699 -1 8 -3l17 -13c5.33301 -4.66699 7.33301 -8.66699 6 -12s-3 -6.33301 -5 -9
c-25.333 -36 -51.5 -61.667 -78.5 -77s-53.167 -23 -78.5 -23z" />
    <glyph glyph-name="Aogonek" unicode="&#x104;" horiz-adv-x="605" 
d="M507 5l-2.99609 8.00098l-53 154h-297c-2 -4.66699 -5.5 -14.5 -10.5 -29.5l-16 -48l-16 -47.5c-5 -14.667 -8.5 -24.334 -10.5 -29.001c-2.66699 -8.66699 -8.66699 -13 -18 -13h-57c-5.33301 0 -8.83301 1.66699 -10.5 5s-1.83398 7 -0.500977 11l231 651
c5.33301 14 10.666 23.167 15.999 27.5s14.666 6.83301 27.999 7.5h26c15.333 0 25.666 -2.5 30.999 -7.5s10.333 -14.167 15 -27.5l228 -651c1.33301 -3.33301 1.33301 -6.83301 0 -10.5s-4.66602 -5.5 -9.99902 -5.5h-31c-8.66699 -8.66699 -17.167 -18.334 -25.5 -29.001
s-15.666 -21.5 -21.999 -32.5s-11.5 -22 -15.5 -33s-6 -21.5 -6 -31.5c0 -13.333 4.16699 -23.166 12.5 -29.499s22.166 -9.5 41.499 -9.5c6 0 14.167 0.833008 24.5 2.5s20.166 4.16699 29.499 7.5c4 1.33301 7 1.83301 9 1.5s3.66699 -2.5 5 -6.5l6 -17
c2.66699 -6.66699 1 -11.334 -5 -14.001c-8.66699 -4.66699 -21.667 -9.16699 -39 -13.5s-34.666 -6.5 -51.999 -6.5c-34 0 -57.833 7 -71.5 21s-20.5 31 -20.5 51c0 12.667 2.33301 25.834 7 39.501s11 27 19 40s17.167 25 27.5 36s21.166 20.167 32.499 27.5z
M354.004 465.001l-49 152h-5l-48 -148l-77 -233h254z" />
    <glyph glyph-name="aogonek" unicode="&#x105;" horiz-adv-x="530" 
d="M465 46c0 -8.66699 -2.00098 -15.001 -6.00098 -19.001l-2 -2c-8.66699 -8.66699 -17.167 -18.334 -25.5 -29.001s-15.666 -21.5 -21.999 -32.5s-11.5 -22 -15.5 -33s-6 -21.5 -6 -31.5c0 -13.333 4.16699 -23.166 12.5 -29.499s22.166 -9.5 41.499 -9.5
c6 0 14.167 0.833008 24.5 2.5s20.166 4.16699 29.499 7.5c4 1.33301 7 1.83301 9 1.5s3.66699 -2.5 5 -6.5l6 -17c2.66699 -6.66699 1 -11.334 -5 -14.001c-8.66699 -4.66699 -21.667 -9.16699 -39 -13.5s-34.666 -6.5 -51.999 -6.5c-34 0 -57.833 7 -71.5 21
s-20.5 31 -20.5 51c-0.666992 19.333 4 39.166 14 59.499s22.667 38.5 38 54.5c-20.667 -4 -41.5 -6.83301 -62.5 -8.5s-41.167 -2.5 -60.5 -2.5c-42.667 0 -77.667 4.66699 -105 14s-49 21.5 -65 36.5s-27.167 32.333 -33.5 52s-9.5 40.167 -9.5 61.5
c0 24.667 4.33301 47.834 13 69.501s21.834 40.5 39.501 56.5s39.834 28.5 66.501 37.5s58.334 13.5 95.001 13.5h133v27c0 16.667 -1.66699 32.167 -5 46.5s-9.66602 26.5 -18.999 36.5s-22.333 17.833 -39 23.5s-38.334 8.5 -65.001 8.5
c-22 0 -46.167 -2.16699 -72.5 -6.5s-48.833 -9.5 -67.5 -15.5c-4.66699 -1.33301 -8.33398 -1.83301 -11.001 -1.5s-4.66699 2.83301 -6 7.5l-10 36c-2 7.33301 0.666992 12.333 8 15c12 4.66699 25 8.83398 39 12.501s28.5 6.83398 43.5 9.50098s30.167 4.5 45.5 5.5
s29.666 1.5 42.999 1.5c64.667 0 112.5 -14.333 143.5 -43s46.5 -70.667 46.5 -126v-321zM389.999 265.999h-129c-12 0 -26.333 -1 -43 -3s-32.5 -6.83301 -47.5 -14.5s-27.667 -19 -38 -34s-15.5 -35.5 -15.5 -61.5c0 -20 3.83301 -36.667 11.5 -50s18 -24 31 -32
s27.833 -13.5 44.5 -16.5s34 -4.5 52 -4.5c6 0 14.167 0.333008 24.5 1s21.833 1.66699 34.5 3s25.5 3.5 38.5 6.5s25.167 6.5 36.5 10.5v195z" />
    <glyph glyph-name="Cacute" unicode="&#x106;" horiz-adv-x="588" 
d="M361 61c30 0 58.6641 3.49902 85.9971 10.499s53.666 16.5 78.999 28.5c6.66699 2.66699 11.334 3 14.001 1s4.66699 -4.66699 6 -8l16 -35c3.33301 -6.66699 4.5 -11.334 3.5 -14.001s-3.5 -5.33398 -7.5 -8.00098c-16.667 -10 -34.167 -18 -52.5 -24
s-36.666 -10.833 -54.999 -14.5s-36.333 -6 -54 -7s-33.834 -1.5 -48.501 -1.5c-46 0 -87 7 -123 21s-66.667 35.333 -92 64s-44.666 65 -57.999 109s-20 96.333 -20 157c0 56.667 7.16699 107.834 21.5 153.501s34.666 84.5 60.999 116.5s57.833 56.667 94.5 74
s77.334 26 122.001 26c28.667 0 58.334 -2.66699 89.001 -8s63 -16.666 97 -33.999c3.33301 -1.33301 5.66602 -3.5 6.99902 -6.5s0.333008 -7.5 -3 -13.5l-19 -38c-2 -3.33301 -4 -5.66602 -6 -6.99902s-5.33301 -1 -10 1c-25.333 12 -50.666 20.667 -75.999 26
s-50.666 8 -75.999 8c-39.333 0 -73 -8.33301 -101 -25s-51 -38.667 -69 -66s-31.333 -59 -40 -95s-13 -73.333 -13 -112c0 -40 3.83301 -77 11.5 -111s20.5 -63.5 38.5 -88.5s41.5 -44.5 70.5 -58.5s64.5 -21 106.5 -21zM288.997 773.999c-4 6 -3 11 3 15l137 97
c3.33301 2.66699 6.5 4.33398 9.5 5.00098s6.16699 -1.33301 9.5 -6l36 -48c5.33301 -6.66699 4.66602 -11.667 -2.00098 -15l-159 -74c-5.33301 -2 -9.16602 -2.83301 -11.499 -2.5s-4.83301 2.16602 -7.5 5.49902z" />
    <glyph glyph-name="cacute" unicode="&#x107;" horiz-adv-x="473" 
d="M282 52c23.333 0 46.165 2.99805 68.498 8.99805s41.166 13.333 56.499 22c5.33301 2.66699 9.16602 3.33398 11.499 2.00098s4.5 -3.66602 6.5 -6.99902l16 -35c3.33301 -4 4.33301 -7.33301 3 -10s-3.66602 -5.33398 -6.99902 -8.00098
c-25.333 -13.333 -52.333 -22.666 -81 -27.999s-56.667 -8 -84 -8c-74.667 0 -131.167 22.333 -169.5 67s-57.5 111.667 -57.5 201c0 43.333 5.5 82.166 16.5 116.499s26.667 63.5 47 87.5s45.166 42.5 74.499 55.5s62 19.5 98 19.5c26 0 51 -2.66699 75 -8
s47.667 -14.333 71 -27c8 -4.66699 9.66699 -10.667 5 -18l-18 -34c-1.33301 -3.33301 -3.16602 -5.66602 -5.49902 -6.99902s-6.16602 -0.666016 -11.499 2.00098c-16.667 7.33301 -34.5 13.666 -53.5 18.999s-39.833 8 -62.5 8c-29.333 0 -54.166 -5.83301 -74.499 -17.5
s-37.166 -27.5 -50.499 -47.5s-23 -42.833 -29 -68.5s-9 -52.5 -9 -80.5c0 -28.667 2.66699 -55.5 8 -80.5s14.333 -46.667 27 -65s29.5 -32.833 50.5 -43.5s47.167 -16 78.5 -16zM235.999 598.998c-3.33301 1.33301 -5.49805 2.66797 -6.49805 4.00098
s-0.166992 4.66602 2.5 9.99902l65 149c1.33301 3.33301 3.16602 6 5.49902 8s6.16602 2.66699 11.499 2l59 -15c10 -2 12 -6.66699 6 -14l-101 -147c-4.66699 -6.66699 -10.667 -8.66699 -18 -6z" />
    <glyph glyph-name="Ccircumflex" unicode="&#x108;" horiz-adv-x="588" 
d="M361 61c30 0 58.6641 3.49902 85.9971 10.499s53.666 16.5 78.999 28.5c6.66699 2.66699 11.334 3 14.001 1s4.66699 -4.66699 6 -8l16 -35c3.33301 -6.66699 4.5 -11.334 3.5 -14.001s-3.5 -5.33398 -7.5 -8.00098c-16.667 -10 -34.167 -18 -52.5 -24
s-36.666 -10.833 -54.999 -14.5s-36.333 -6 -54 -7s-33.834 -1.5 -48.501 -1.5c-46 0 -87 7 -123 21s-66.667 35.333 -92 64s-44.666 65 -57.999 109s-20 96.333 -20 157c0 56.667 7.16699 107.834 21.5 153.501s34.666 84.5 60.999 116.5s57.833 56.667 94.5 74
s77.334 26 122.001 26c28.667 0 58.334 -2.66699 89.001 -8s63 -16.666 97 -33.999c3.33301 -1.33301 5.66602 -3.5 6.99902 -6.5s0.333008 -7.5 -3 -13.5l-19 -38c-2 -3.33301 -4 -5.66602 -6 -6.99902s-5.33301 -1 -10 1c-25.333 12 -50.666 20.667 -75.999 26
s-50.666 8 -75.999 8c-39.333 0 -73 -8.33301 -101 -25s-51 -38.667 -69 -66s-31.333 -59 -40 -95s-13 -73.333 -13 -112c0 -40 3.83301 -77 11.5 -111s20.5 -63.5 38.5 -88.5s41.5 -44.5 70.5 -58.5s64.5 -21 106.5 -21zM490.997 744.999
c-2.66699 -3.33301 -5.33105 -4.50098 -7.99805 -3.50098s-6 2.5 -10 4.5l-127 70l-126 -71c-6.66699 -3.33301 -12.334 -2.66602 -17.001 2.00098l-14 16c-4 5.33301 -3.66699 10 1 14l120 97c13.333 10.667 25.333 16 36 16c5.33301 0 11.166 -0.833008 17.499 -2.5
s13.5 -6.16699 21.5 -13.5l117 -98c6 -5.33301 6.33301 -11 1 -17z" />
    <glyph glyph-name="ccircumflex" unicode="&#x109;" horiz-adv-x="473" 
d="M282 52c23.333 0 46.165 2.99805 68.498 8.99805s41.166 13.333 56.499 22c5.33301 2.66699 9.16602 3.33398 11.499 2.00098s4.5 -3.66602 6.5 -6.99902l16 -35c3.33301 -4 4.33301 -7.33301 3 -10s-3.66602 -5.33398 -6.99902 -8.00098
c-25.333 -13.333 -52.333 -22.666 -81 -27.999s-56.667 -8 -84 -8c-74.667 0 -131.167 22.333 -169.5 67s-57.5 111.667 -57.5 201c0 43.333 5.5 82.166 16.5 116.499s26.667 63.5 47 87.5s45.166 42.5 74.499 55.5s62 19.5 98 19.5c26 0 51 -2.66699 75 -8
s47.667 -14.333 71 -27c8 -4.66699 9.66699 -10.667 5 -18l-18 -34c-1.33301 -3.33301 -3.16602 -5.66602 -5.49902 -6.99902s-6.16602 -0.666016 -11.499 2.00098c-16.667 7.33301 -34.5 13.666 -53.5 18.999s-39.833 8 -62.5 8c-29.333 0 -54.166 -5.83301 -74.499 -17.5
s-37.166 -27.5 -50.499 -47.5s-23 -42.833 -29 -68.5s-9 -52.5 -9 -80.5c0 -28.667 2.66699 -55.5 8 -80.5s14.333 -46.667 27 -65s29.5 -32.833 50.5 -43.5s47.167 -16 78.5 -16zM416.999 588.998c-5.33301 -3.33301 -11.332 -3.00098 -17.999 0.999023l-127 99l-127 -100
c-6 -4 -12 -3.33301 -18 2l-15 16c-4.66699 4 -5 8.33301 -1 13l125 126c12 12 24 18 36 18c8 0 14.667 -1.16699 20 -3.5s11.666 -7.16602 18.999 -14.499l119 -125c6.66699 -6.66699 7 -13 1 -19z" />
    <glyph glyph-name="Cdotaccent" unicode="&#x10a;" horiz-adv-x="588" 
d="M361 61c30 0 58.6641 3.49902 85.9971 10.499s53.666 16.5 78.999 28.5c6.66699 2.66699 11.334 3 14.001 1s4.66699 -4.66699 6 -8l16 -35c3.33301 -6.66699 4.5 -11.334 3.5 -14.001s-3.5 -5.33398 -7.5 -8.00098c-16.667 -10 -34.167 -18 -52.5 -24
s-36.666 -10.833 -54.999 -14.5s-36.333 -6 -54 -7s-33.834 -1.5 -48.501 -1.5c-46 0 -87 7 -123 21s-66.667 35.333 -92 64s-44.666 65 -57.999 109s-20 96.333 -20 157c0 56.667 7.16699 107.834 21.5 153.501s34.666 84.5 60.999 116.5s57.833 56.667 94.5 74
s77.334 26 122.001 26c28.667 0 58.334 -2.66699 89.001 -8s63 -16.666 97 -33.999c3.33301 -1.33301 5.66602 -3.5 6.99902 -6.5s0.333008 -7.5 -3 -13.5l-19 -38c-2 -3.33301 -4 -5.66602 -6 -6.99902s-5.33301 -1 -10 1c-25.333 12 -50.666 20.667 -75.999 26
s-50.666 8 -75.999 8c-39.333 0 -73 -8.33301 -101 -25s-51 -38.667 -69 -66s-31.333 -59 -40 -95s-13 -73.333 -13 -112c0 -40 3.83301 -77 11.5 -111s20.5 -63.5 38.5 -88.5s41.5 -44.5 70.5 -58.5s64.5 -21 106.5 -21zM400.997 809.999c0 -13.333 -4.66699 -25 -14 -35
s-20.666 -15 -33.999 -15c-14 0 -26 5 -36 15s-15 21.667 -15 35s5 24.833 15 34.5s22 14.5 36 14.5c13.333 0 24.666 -4.83301 33.999 -14.5s14 -21.167 14 -34.5z" />
    <glyph glyph-name="cdotaccent" unicode="&#x10b;" horiz-adv-x="473" 
d="M282 52c23.333 0 46.165 2.99805 68.498 8.99805s41.166 13.333 56.499 22c5.33301 2.66699 9.16602 3.33398 11.499 2.00098s4.5 -3.66602 6.5 -6.99902l16 -35c3.33301 -4 4.33301 -7.33301 3 -10s-3.66602 -5.33398 -6.99902 -8.00098
c-25.333 -13.333 -52.333 -22.666 -81 -27.999s-56.667 -8 -84 -8c-74.667 0 -131.167 22.333 -169.5 67s-57.5 111.667 -57.5 201c0 43.333 5.5 82.166 16.5 116.499s26.667 63.5 47 87.5s45.166 42.5 74.499 55.5s62 19.5 98 19.5c26 0 51 -2.66699 75 -8
s47.667 -14.333 71 -27c8 -4.66699 9.66699 -10.667 5 -18l-18 -34c-1.33301 -3.33301 -3.16602 -5.66602 -5.49902 -6.99902s-6.16602 -0.666016 -11.499 2.00098c-16.667 7.33301 -34.5 13.666 -53.5 18.999s-39.833 8 -62.5 8c-29.333 0 -54.166 -5.83301 -74.499 -17.5
s-37.166 -27.5 -50.499 -47.5s-23 -42.833 -29 -68.5s-9 -52.5 -9 -80.5c0 -28.667 2.66699 -55.5 8 -80.5s14.333 -46.667 27 -65s29.5 -32.833 50.5 -43.5s47.167 -16 78.5 -16zM326.999 671.998c0 -13.333 -4.66699 -25 -14 -35s-20.666 -15 -33.999 -15
c-14 0 -26 5 -36 15s-15 21.667 -15 35s5 24.833 15 34.5s22 14.5 36 14.5c13.333 0 24.666 -4.83301 33.999 -14.5s14 -21.167 14 -34.5z" />
    <glyph glyph-name="Ccaron" unicode="&#x10c;" horiz-adv-x="588" 
d="M361 61c30 0 58.6641 3.49902 85.9971 10.499s53.666 16.5 78.999 28.5c6.66699 2.66699 11.334 3 14.001 1s4.66699 -4.66699 6 -8l16 -35c3.33301 -6.66699 4.5 -11.334 3.5 -14.001s-3.5 -5.33398 -7.5 -8.00098c-16.667 -10 -34.167 -18 -52.5 -24
s-36.666 -10.833 -54.999 -14.5s-36.333 -6 -54 -7s-33.834 -1.5 -48.501 -1.5c-46 0 -87 7 -123 21s-66.667 35.333 -92 64s-44.666 65 -57.999 109s-20 96.333 -20 157c0 56.667 7.16699 107.834 21.5 153.501s34.666 84.5 60.999 116.5s57.833 56.667 94.5 74
s77.334 26 122.001 26c28.667 0 58.334 -2.66699 89.001 -8s63 -16.666 97 -33.999c3.33301 -1.33301 5.66602 -3.5 6.99902 -6.5s0.333008 -7.5 -3 -13.5l-19 -38c-2 -3.33301 -4 -5.66602 -6 -6.99902s-5.33301 -1 -10 1c-25.333 12 -50.666 20.667 -75.999 26
s-50.666 8 -75.999 8c-39.333 0 -73 -8.33301 -101 -25s-51 -38.667 -69 -66s-31.333 -59 -40 -95s-13 -73.333 -13 -112c0 -40 3.83301 -77 11.5 -111s20.5 -63.5 38.5 -88.5s41.5 -44.5 70.5 -58.5s64.5 -21 106.5 -21zM506.997 873.999c6 -6 5.66699 -12.001 -1 -18.001
l-119 -96c-7.33301 -6 -14.333 -10.167 -21 -12.5s-12.667 -3.5 -18 -3.5c-11.333 0 -23.333 5.33301 -36 16l-124 97c-4 4 -4 8 0 12l13 18c3.33301 3.33301 6 4.83301 8 4.5s5.33301 -1.16602 10 -2.49902l129 -72l127 71c4 2 7.16699 3.33301 9.5 4s4.83301 0 7.5 -2z
" />
    <glyph glyph-name="ccaron" unicode="&#x10d;" horiz-adv-x="473" 
d="M282 52c23.333 0 46.165 2.99805 68.498 8.99805s41.166 13.333 56.499 22c5.33301 2.66699 9.16602 3.33398 11.499 2.00098s4.5 -3.66602 6.5 -6.99902l16 -35c3.33301 -4 4.33301 -7.33301 3 -10s-3.66602 -5.33398 -6.99902 -8.00098
c-25.333 -13.333 -52.333 -22.666 -81 -27.999s-56.667 -8 -84 -8c-74.667 0 -131.167 22.333 -169.5 67s-57.5 111.667 -57.5 201c0 43.333 5.5 82.166 16.5 116.499s26.667 63.5 47 87.5s45.166 42.5 74.499 55.5s62 19.5 98 19.5c26 0 51 -2.66699 75 -8
s47.667 -14.333 71 -27c8 -4.66699 9.66699 -10.667 5 -18l-18 -34c-1.33301 -3.33301 -3.16602 -5.66602 -5.49902 -6.99902s-6.16602 -0.666016 -11.499 2.00098c-16.667 7.33301 -34.5 13.666 -53.5 18.999s-39.833 8 -62.5 8c-29.333 0 -54.166 -5.83301 -74.499 -17.5
s-37.166 -27.5 -50.499 -47.5s-23 -42.833 -29 -68.5s-9 -52.5 -9 -80.5c0 -28.667 2.66699 -55.5 8 -80.5s14.333 -46.667 27 -65s29.5 -32.833 50.5 -43.5s47.167 -16 78.5 -16zM428.999 744.998c3.33301 -3.33301 4.99902 -6.33496 4.99902 -9.00195s-2 -6 -6 -10
l-119 -125c-7.33301 -7.33301 -13.666 -12.166 -18.999 -14.499s-12 -3.5 -20 -3.5c-12 0 -24 6 -36 18l-125 126c-4 4.66699 -3.66699 9 1 13l16 15c6 4.66699 12 5.33398 18 2.00098l126 -99l127 99c6.66699 4 12.667 4.33301 18 1z" />
    <glyph glyph-name="Dcaron" unicode="&#x10e;" horiz-adv-x="667" 
d="M532 353c0 38 -3.99902 73.833 -11.999 107.5s-21.167 63.167 -39.5 88.5s-42.833 45.333 -73.5 60s-68.334 22 -113.001 22h-141v-560h146c43.333 0 79.833 7.16699 109.5 21.5s53.667 34 72 59s31.5 54.667 39.5 89s12 71.833 12 112.5zM122.001 0
c-16.667 0 -28.667 3.50098 -36 10.501s-11 18.833 -11 35.5v608c0 15.333 3.33301 27 10 35s19 12 37 12l176 1c52 0 97.5 -8 136.5 -24s71.667 -39.167 98 -69.5s46.166 -67 59.499 -110s20 -90.833 20 -143.5s-6.16699 -100.834 -18.5 -144.501s-31 -81 -56 -112
s-56.667 -55.167 -95 -72.5s-83.166 -26 -134.499 -26h-186zM455.001 873.001c6 -6 5.66699 -12.001 -1 -18.001l-119 -96c-7.33301 -6 -14.333 -10.167 -21 -12.5s-12.667 -3.5 -18 -3.5c-11.333 0 -23.333 5.33301 -36 16l-124 97c-4 4 -4 8 0 12l13 18
c3.33301 3.33301 6 4.83301 8 4.5s5.33301 -1.16602 10 -2.49902l129 -72l127 71c4 2 7.16699 3.33301 9.5 4s4.83301 0 7.5 -2z" />
    <glyph glyph-name="dcaron" unicode="&#x10f;" horiz-adv-x="655" 
d="M45 255c0 37.333 4.66797 72.999 14.001 106.999s23.833 63.833 43.5 89.5s44.5 46.167 74.5 61.5s65.667 23 107 23c17.333 0 37.166 -1.16699 59.499 -3.5s45.166 -7.16602 68.499 -14.499v200c0 5.33301 1 8.83301 3 10.5s5.66699 2.5 11 2.5h47
c4.66699 0 8 -0.833008 10 -2.5s3 -5.16699 3 -10.5v-678c0 -8 -3.33301 -13.333 -10 -16c-34 -14.667 -68.833 -24.167 -104.5 -28.5s-68.5 -6.5 -98.5 -6.5c-40.667 0 -75.5 6.16699 -104.5 18.5s-52.667 30 -71 53s-31.666 50.833 -39.999 83.5s-12.5 69.667 -12.5 111z
M121.001 254.999c0 -38 4.00098 -70.001 12.001 -96.001s19.167 -47 33.5 -63s31.666 -27.333 51.999 -34s42.833 -10 67.5 -10c8.66699 0 18.5 0.5 29.5 1.5s22.167 2.33301 33.5 4s22.5 3.83398 33.5 6.50098s20.833 5.66699 29.5 9v379
c-27.333 9.33301 -50.833 15.166 -70.5 17.499s-37.167 3.5 -52.5 3.5c-24.667 0 -47.167 -4.33301 -67.5 -13s-38 -22 -53 -40s-26.667 -40.667 -35 -68s-12.5 -59.666 -12.5 -96.999zM615.002 530.998c-2 -5.33301 -3.99902 -9.16797 -5.99902 -11.501
s-5.66699 -3.5 -11 -3.5h-24c-11.333 0 -17 4.33301 -17 13l16 165c0.666992 4.66699 2 8.66699 4 12s6 5 12 5h63c5.33301 0 9.16602 -1.16699 11.499 -3.5s3.5 -5.16602 3.5 -8.49902v-4z" />
    </font>
</defs>
</svg>
